<?xml version="1.0" encoding="utf-8"?>
<!-- Generator: Adobe Illustrator 21.0.0, SVG Export Plug-In . SVG Version: 6.00 Build 0)  -->
<svg version="1.1" id="Слой_1" xmlns="http://www.w3.org/2000/svg" xmlns:xlink="http://www.w3.org/1999/xlink" x="0px" y="0px"
	 viewBox="-118.6 95.5 543.6 627" style="enable-background:new -118.6 95.5 543.6 627;" xml:space="preserve">
<path d="M-118.6,688.1c0,19.3,15.1,34.4,34.4,34.4h474.8c19,0,34.4-15.9,34.4-35.4V129.9c0-9.2-3.5-17.9-10-24.4
	c-6.4-6.4-15.1-10-24.3-10H-84.2c-19.3,0-34.4,15.1-34.4,34.4V688.1z M-102.8,129.9c0-10.4,8.2-18.6,18.6-18.6h474.8
	c10.4,0,18.6,8.2,18.6,18.6V685l0.1,2c0,10.4-8.2,18.6-18.6,18.6H-84.2c-10.4,0-18.6-8.2-18.6-18.6V129.9z"/>
<path d="M47,160.5h-85c-5.3,0-9.6,4.3-9.6,9.6v85c0,5.3,4.3,9.6,9.6,9.6h85c5.3,0,9.6-4.3,9.6-9.6v-85
	C56.6,164.8,52.3,160.5,47,160.5z M40.8,242c0,3.8-3.1,6.9-6.9,6.9h-57.7c-3.8,0-6.9-3.1-6.9-6.9v-57.7c0-3.8,3.1-6.9,6.9-6.9h57.7
	c3.8,0,6.9,3.1,6.9,6.9V242z"/>
<path d="M345.5,630.2H-39.2c-4.6,0-8.4,3.8-8.4,8.4s3.8,8.4,8.4,8.4h384.7c4.6,0,8.4-3.8,8.4-8.4S350.2,630.2,345.5,630.2z"/>
<path d="M345.5,160.5H121.2c-4.6,0-8.4,3.8-8.4,8.4s3.8,8.4,8.4,8.4h224.3c4.6,0,8.4-3.8,8.4-8.4S350.2,160.5,345.5,160.5z"/>
<path d="M345.5,235.8H121.2c-4.6,0-8.4,3.8-8.4,8.4s3.8,8.4,8.4,8.4h224.3c4.6,0,8.4-3.8,8.4-8.4S350.2,235.8,345.5,235.8z"/>
<path d="M329.2,331.4c5.4,0,9.7,4.4,9.7,9.7v214.8c0,5.4-4.4,9.7-9.7,9.7H-22.9c-5.4,0-9.7-4.4-9.7-9.7V341.1c0-5.4,4.4-9.7,9.7-9.7
	H329.2 M329.2,314.4H-22.9c-14.8,0-26.7,12-26.7,26.7v214.8c0,14.8,12,26.7,26.7,26.7h352.1c14.8,0,26.7-12,26.7-26.7V341.1
	C355.9,326.3,344,314.4,329.2,314.4L329.2,314.4z"/>
</svg>
