<?xml version="1.0" encoding="utf-8"?>
<!-- Generator: Adobe Illustrator 21.0.0, SVG Export Plug-In . SVG Version: 6.00 Build 0)  -->
<svg version="1.1" id="Слой_1" xmlns="http://www.w3.org/2000/svg" xmlns:xlink="http://www.w3.org/1999/xlink" x="0px" y="0px"
	 viewBox="0 0 166.3 181.6" style="enable-background:new 0 0 166.3 181.6;" xml:space="preserve">
<path d="M127.6,15.7l-0.3,0.3l-0.6,0.5L51,92.3c-0.4,0.4-0.7,0.9-0.8,1.4l-6.5,25.2c-0.3,1,0,2.2,0.8,2.9c0.8,0.8,1.9,1.1,2.9,0.8
	l25.2-6.5c0.5-0.1,1-0.4,1.4-0.8l91.5-91.5c1.2-1.2,1.2-3.1,0-4.3L146.8,0.9c-1.1-1.1-3.2-1.1-4.3,0L127.6,15.7L127.6,15.7z
	 M144.6,7.3l14.3,14.3l-11,11l-14.3-14.3L144.6,7.3z M143.6,37l-73.4,73.4l-19.3,5l5-19.3l0.1-0.1l73.2-73.2L143.6,37z"/>
<path d="M96.7,17.9h-78C8.4,17.9,0,26.3,0,36.6v126.3c0,10.3,8.4,18.7,18.7,18.7h128.9c10.3,0,18.7-8.4,18.7-18.7V55.1
	c0-1.5-1-2.8-2.4-3.1c-0.9-0.2-1.8,0-2.6,0.6c-0.7,0.6-1.1,1.4-1.1,2.4v104c0,9-7.4,16.4-16.4,16.4H22.5c-9,0-16.4-7.4-16.4-16.4
	V40.4c0-9,7.4-16.4,16.4-16.4h74.1c1.5,0,2.8-1,3.1-2.4c0.2-0.9,0-1.8-0.6-2.6C98.5,18.3,97.6,17.9,96.7,17.9z"/>
</svg>
