<?xml version="1.0" encoding="utf-8"?>
<!-- Generator: Adobe Illustrator 21.0.0, SVG Export Plug-In . SVG Version: 6.00 Build 0)  -->
<svg version="1.1" id="Слой_1" xmlns="http://www.w3.org/2000/svg" xmlns:xlink="http://www.w3.org/1999/xlink" x="0px" y="0px"
	 viewBox="0 0 409.6 409.6" style="enable-background:new 0 0 409.6 409.6;" xml:space="preserve">
<path d="M104.8,353.9c1.2,1,2.7,1.4,4.2,1.4c2,0,4.1-0.9,5.4-2.7c5.5-7.2,8.5-15.8,8.5-24.9c0-8.6-2.6-16.8-7.6-23.8
	c-2.2-3.1-6.5-3.8-9.5-1.6c-3.1,2.2-3.8,6.5-1.6,9.5c3.3,4.6,5.1,10.1,5.1,15.9c0,6.1-2,11.8-5.6,16.6
	C101.3,347.3,101.8,351.6,104.8,353.9L104.8,353.9z M104.8,353.9"/>
<path d="M389.1,0c-8,0-16.5,7.1-17.8,8.2c-0.9,0.7-90,69.5-171.3,150.8c-40.6,40.6-66.4,71.8-80.9,90.7c-2.3,3-1.7,7.3,1.3,9.6
	c3,2.3,7.3,1.7,9.6-1.3c5.1-6.7,11.7-15,19.9-24.7c4.2,1.8,10.9,5.3,16,10.4c5.4,5.4,8.7,12,10.4,16.1
	C152,280.5,137,290.8,133.7,293c0,0-0.1,0-0.1,0c-0.1,0.1-0.2,0.2-0.4,0.3c-0.1,0-0.2,0.1-0.2,0.1c-0.1,0.1-0.1,0.1-0.2,0.2
	c-0.6,0.4-1.1,0.9-1.6,1.5c-0.2,0.3-0.4,0.7-0.5,1c-0.2,0.4-0.4,0.7-0.5,1.1c-0.2,0.7-0.2,1.3-0.2,2c0,0.1,0,0.2,0,0.4
	c0.1,1.1,0.3,2.2,1,3.2c0,0.1,0.1,0.1,0.1,0.1c3.6,7.2,5.5,15.6,5.5,24.6c0,25.4-18,47.9-42.8,53.3c-2.8,0.6-45.5,7.9-78.6,13.4
	c5.6-33.1,12.8-75.9,13.5-78.7c5.5-24.8,27.9-42.7,53.3-42.7c13.1,0,25.8,4.7,35.7,13.3c2.8,2.5,7.2,2.2,9.6-0.7
	c2.5-2.8,2.2-7.2-0.7-9.6c-12.4-10.7-28.2-16.6-44.7-16.6c-31.8,0-59.8,22.5-66.6,53.4c-1,4.3-13.7,80.2-15.2,88.8
	c-0.4,2.2,0.3,4.4,1.9,6c1.3,1.3,3,2,4.8,2c0.4,0,0.8,0,1.1-0.1c8.6-1.5,84.4-14.2,88.7-15.2c31-6.8,53.5-34.9,53.5-66.7
	c0-9.3-1.7-18.1-4.9-26.1c12.9-9,50-36.7,105.3-92c81.3-81.3,150.1-170.4,150.5-171c1.4-1.6,8.6-10,8.6-18.2
	C409.6,9.2,400.4,0,389.1,0L389.1,0z M390.5,30c-0.7,0.9-68.9,89.3-149.6,170c-20.6,20.6-38.7,37.3-53.9,50.6
	c-2.4-5-6.2-11.1-11.6-16.5c-5.2-5.2-11.5-9-16.4-11.5c13.3-15.3,30-33.3,50.6-53.9C290.3,88,378.7,19.7,380,18.8
	c2.7-2.4,7.3-5.1,9.2-5.1c3.8,0,6.8,3.1,6.8,6.8C395.9,22.4,393.3,26.9,390.5,30L390.5,30z M390.5,30"/>
</svg>
