<?xml version="1.0" encoding="utf-8"?>
<!-- Generator: Adobe Illustrator 21.0.0, SVG Export Plug-In . SVG Version: 6.00 Build 0)  -->
<svg version="1.1" id="Layer_1" xmlns="http://www.w3.org/2000/svg" xmlns:xlink="http://www.w3.org/1999/xlink" x="0px" y="0px"
	 viewBox="-49 141 512 512" style="enable-background:new -49 141 512 512;" xml:space="preserve">
<path d="M53.1,589.4c-2.6,3.4-1.9,8.3,1.6,10.9C98.9,633.5,151.6,651,207,651c140.1,0,254-113.9,254-254
	c0-47.6-13.3-94.1-38.4-134.3c-2.3-3.6-7.1-4.7-10.7-2.5c-1.8,1.1-3,2.8-3.5,4.8s-0.1,4.1,1,5.9c23.5,37.7,36,81.3,36,126
	c0,131.5-107,238.5-238.5,238.5c-52.1,0-101.5-16.5-143-47.6c-1.4-1-3-1.6-4.7-1.6c-0.4,0-0.7,0-1.1,0.1
	C56.2,586.6,54.4,587.7,53.1,589.4z"/>
<path d="M82,507.9h102.3c4.3,0,7.8-3.5,7.8-7.8s-3.5-7.8-7.8-7.8h-83.5l52.9-52.9c24.8-24.8,38.4-57.8,38.4-92.8
	c0-32.5-26.4-58.9-58.9-58.9s-58.9,26.4-58.9,58.9c0,4.3,3.5,7.8,7.8,7.8s7.8-3.5,7.8-7.8c0-23.9,19.5-43.4,43.4-43.4
	s43.4,19.5,43.4,43.4c0,30.9-12,60-33.9,81.8l-66.1,66.1c-2.2,2.2-2.9,5.6-1.7,8.5C76,506.1,78.8,507.9,82,507.9z"/>
<path d="M304.2,507.9c4.3,0,7.8-3.5,7.8-7.8v-59.3H341c4.3,0,7.8-3.5,7.8-7.8s-3.5-7.8-7.8-7.8h-29.1v-17.8c0-4.3-3.5-7.8-7.8-7.8
	s-7.8,3.5-7.8,7.8v17.8h-60.6l60.6-101.5v51.1c0,4.3,3.5,7.8,7.8,7.8s7.8-3.5,7.8-7.8l0-79.3c0-2.8-1.4-5.3-3.8-6.6
	c-1.2-0.7-2.6-1.1-4-1.1c-2.6,0-5.2,1.4-6.7,3.8l-82.1,137.5c-1.4,2.4-1.5,5.4-0.1,7.8c1.4,2.4,4,3.9,6.8,3.9h74.3v59.3
	C296.4,504.5,299.9,507.9,304.2,507.9z"/>
<path d="M345.5,238.7l0.2,0l42.3-1c4.3-0.1,7.7-3.7,7.6-8l-1-42.3c-0.1-4.3-3.6-7.7-8-7.6c-4.3,0.1-7.7,3.7-7.6,8l0.5,22.9l-3.4-3.1
	c-19.5-17.5-41.6-31.8-65.6-42.5c-32.7-14.6-67.5-22-103.5-22C66.9,143-47,256.9-47,397c0,68.8,27,133.2,76.1,181.3
	c1.5,1.4,3.4,2.2,5.4,2.2c2.1,0,4.1-0.8,5.5-2.3c1.5-1.5,2.2-3.4,2.2-5.5s-0.8-4-2.3-5.5C-6.1,522-31.5,461.6-31.5,397
	c0-131.5,107-238.5,238.5-238.5c58.6,0,115,21.5,158.8,60.6l3.8,3.4l-24.3,0.6c-4.3,0.1-7.7,3.7-7.6,8
	C337.8,235.3,341.3,238.7,345.5,238.7z"/>
</svg>
