<svg xmlns="http://www.w3.org/2000/svg" viewBox="0 0 24.19 17.19">
  <g>
    <g>
      <path d="M4050.58,2272.25a.39.39,0,0,1-.27-.11l-4.49-4.21a.39.39,0,1,1,.53-.57l4.49,4.21a.39.39,0,0,1-.27.67Z" transform="translate(-4030.99 -2258.97)"/>
      <path d="M4035.6,2272.25a.39.39,0,0,1-.27-.67l4.49-4.21a.39.39,0,1,1,.53.57l-4.49,4.21A.39.39,0,0,1,4035.6,2272.25Z" transform="translate(-4030.99 -2258.97)"/>
    </g>
    <path
      d="M4053.23,2276.16h-20.29a2,2,0,0,1-1.95-1.95v-13.29a2,2,0,0,1,1.95-1.95h20.29a2,2,0,0,1,1.95,1.95v13.29A2,2,0,0,1,4053.23,2276.16Zm-20.29-16.41a1.17,1.17,0,0,0-1.17,1.17v13.29a1.17,1.17,0,0,0,1.17,1.17h20.29a1.17,1.17,0,0,0,1.17-1.17v-13.29a1.17,1.17,0,0,0-1.17-1.17Z"
      transform="translate(-4030.99 -2258.97)"/>
    <path
      d="M4043.09,2269.53a2.18,2.18,0,0,1-1.43-.52l-10-8.74a.39.39,0,1,1,.51-.59l10,8.73a1.46,1.46,0,0,0,1.84,0l10-8.72a.39.39,0,1,1,.51.59l-10,8.72A2.18,2.18,0,0,1,4043.09,2269.53Z"
      transform="translate(-4030.99 -2258.97)"/>
  </g>
</svg>
