<svg xmlns="http://www.w3.org/2000/svg" viewBox="0 0 32.01 27.73">
  <g>
    <g>
      <path id="_Path_" d="M3990.92,2259.89a.47.47,0,1,0,0,.93h8.38a.47.47,0,0,0,0-.93Z" transform="translate(-3978.36 -2254.3)"/>
      <path id="_Path_2" d="M3999.77,2266.87a.47.47,0,0,0-.47-.47h-8.38a.47.47,0,0,0,0,.93h8.38A.47.47,0,0,0,3999.77,2266.87Z" transform="translate(-3978.36 -2254.3)"/>
      <path id="_Path_3" d="M3987.93,2257.67a.46.46,0,0,0-.66.05l-2.91,3.39-1.78-1.33a.47.47,0,1,0-.56.74l2.13,1.6a.46.46,0,0,0,.63-.07l3.19-3.72A.46.46,0,0,0,3987.93,2257.67Z" transform="translate(-3978.36 -2254.3)"/>
      <path id="_Path_4" d="M3987.93,2264.19a.46.46,0,0,0-.66.05l-2.91,3.39-1.78-1.33a.47.47,0,1,0-.56.74l2.13,1.6a.46.46,0,0,0,.63-.07l3.19-3.72A.46.46,0,0,0,3987.93,2264.19Z" transform="translate(-3978.36 -2254.3)"/>
      <path id="_Path_5" d="M3987.28,2271.22l-2.91,3.39-1.78-1.33a.47.47,0,1,0-.56.74l2.13,1.6a.46.46,0,0,0,.63-.07l3.19-3.72a.47.47,0,1,0-.71-.61Z" transform="translate(-3978.36 -2254.3)"/>
      <path id="_Path_6" d="M3986.06,2278.51h-2a4.74,4.74,0,0,1-4.74-4.74V2260a4.74,4.74,0,0,1,4.74-4.74h13.8a4.74,4.74,0,0,1,4.74,4.74v7.16a.47.47,0,0,0,.93,0V2260a5.67,5.67,0,0,0-5.67-5.67H3984a5.67,5.67,0,0,0-5.67,5.67v13.8a5.67,5.67,0,0,0,5.67,5.67h2a.47.47,0,1,0,0-.93Z" transform="translate(-3978.36 -2254.3)"/>
    </g><text transform="translate(12.31 25.14)">238</text></g>
  </svg>
