<svg xmlns="http://www.w3.org/2000/svg" viewBox="0 0 26.53 27">
<g>
  <path d="M4104.7,2274l-.67-.13a.92.92,0,0,1-.57-1.44l.42-.58a.47.47,0,0,0,0-.6l-.91-.91a.47.47,0,0,0-.59-.06l-.57.38a.92.92,0,0,1-1.42-.62l-.11-.71a.46.46,0,0,0-.46-.39h-1.29a.47.47,0,0,0-.46.38l-.17.87a.92.92,0,0,1-1.42.59l-.73-.5a.47.47,0,0,0-.59.06l-.91.91a.47.47,0,0,0,0,.6l.42.58a.92.92,0,0,1-.57,1.44l-.67.13a.47.47,0,0,0-.38.46v1.29a.47.47,0,0,0,.39.46l.71.11a.92.92,0,0,1,.62,1.42l-.38.57a.47.47,0,0,0,.06.59l.91.91a.47.47,0,0,0,.6,0l.58-.42a.92.92,0,0,1,1.44.57l.13.67a.47.47,0,0,0,.46.38h1.29a.47.47,0,0,0,.46-.39l.08-.5a.92.92,0,0,1,1.45-.6l.4.3a.46.46,0,0,0,.6,0l.91-.91a.47.47,0,0,0,.06-.59l-.38-.57a.92.92,0,0,1,.62-1.42l.71-.11a.47.47,0,0,0,.39-.46v-1.29A.47.47,0,0,0,4104.7,2274Zm-.55,1.35-.31,0a1.85,1.85,0,0,0-1.25,2.86l.17.25-.36.36-.08-.06a1.85,1.85,0,0,0-2.92,1.21l0,.1h-.51l-.06-.29a1.85,1.85,0,0,0-2.91-1.14l-.25.19-.36-.36.17-.25a1.85,1.85,0,0,0-1.25-2.86l-.31,0v-.51l.29-.06a1.85,1.85,0,0,0,1.14-2.91l-.19-.25.36-.36.41.28a1.85,1.85,0,0,0,2.85-1.18l.09-.49h.51l0,.31a1.85,1.85,0,0,0,2.86,1.25l.25-.17.36.36-.19.25a1.85,1.85,0,0,0,1.14,2.91l.29.06v.51Z" transform="translate(-4078.55 -2254.07)"/>
  <path d="M4099,2272.69a2.33,2.33,0,1,0,2.33,2.33A2.33,2.33,0,0,0,4099,2272.69Zm0,3.72a1.4,1.4,0,1,1,1.4-1.4A1.4,1.4,0,0,1,4099,2276.41Z" transform="translate(-4078.55 -2254.07)"/>
  <path d="M4091.35,2278.74c-.3,0-.59,0-.88,0h-.15c-.3,0-.59-.06-.88-.11h0a11.83,11.83,0,0,1-1.81-.45l-.05,0c-.29-.1-.58-.21-.87-.33h0c-.27-.12-.53-.24-.79-.38l-.1-.05c-.24-.13-.47-.26-.7-.41l-.2-.13c-.21-.14-.42-.28-.62-.43l-.06,0,0,0,3.68-2a2,2,0,0,0,1-1.73v-1.68l-.11-.13a7.77,7.77,0,0,1-1.4-2.89l0-.18-.16-.1a.77.77,0,0,1-.36-.65v-1.65a.76.76,0,0,1,.26-.57l.15-.14v-2.65a2.8,2.8,0,0,1,.65-2,5.66,5.66,0,0,1,6.85,0,2.85,2.85,0,0,1,.66,2v2.65l.15.14a.76.76,0,0,1,.26.57v1.65a.78.78,0,0,1-.55.73.47.47,0,0,0,.27.89,1.69,1.69,0,0,0,1.21-1.62v-1.65a1.69,1.69,0,0,0-.41-1.1V2262a3.75,3.75,0,0,0-.88-2.73,6.51,6.51,0,0,0-8.26,0,3.76,3.76,0,0,0-.88,2.73v2.17a1.7,1.7,0,0,0-.41,1.1v1.65a1.69,1.69,0,0,0,.62,1.31,8.75,8.75,0,0,0,1.44,3v1.35a1,1,0,0,1-.54.91l-3.68,2a3.36,3.36,0,0,0-.35.22,11.87,11.87,0,1,1,19.8-8.83.47.47,0,0,0,.93,0,12.8,12.8,0,1,0-21.45,9.43h0l.42.35.08.06c.22.18.45.36.68.52l.23.16q.37.26.76.49l.17.1c.29.16.58.32.88.46l.07,0a12.69,12.69,0,0,0,3.1,1l.09,0c.34.06.68.1,1,.14h.13c.34,0,.69,0,1,0a.47.47,0,0,0,0-.93Z" transform="translate(-4078.55 -2254.07)"/>
</g>
</svg>
