<svg xmlns="http://www.w3.org/2000/svg" viewBox="0 0 312.13 336.15"><defs><style>.cls-1{fill:#030303;}</style></defs><title>anchor</title><g id="Слой_2" data-name="Слой 2"><g id="Capa_1" data-name="Capa 1"><path class="cls-1" d="M156.4,28.55A29.46,29.46,0,1,0,185.87,58,29.5,29.5,0,0,0,156.4,28.55Zm0,51.21A21.75,21.75,0,1,1,178.16,58,21.78,21.78,0,0,1,156.4,79.77Z"/><path class="cls-1" d="M282.8,258.73l1.9,1.16a18.5,18.5,0,0,0,17.46.7,18.16,18.16,0,0,0,8-24.35l-24.72-49.13-49.13,24.74a18.13,18.13,0,0,0,9,34.3L249,246l-1.69,3.15c-13.48,25.1-39.8,43.38-70.4,48.92l-2.36.43V157.82h19.18a18.13,18.13,0,0,0,0-36.27H174.51v-8.46l1.33-.47a58,58,0,1,0-38.91,0l1.33.47v8.46h-18a18.13,18.13,0,0,0,0,36.27h18V298.24l-2.38-.46c-30-5.8-55.85-24-69.16-48.66l-1.52-2.81,3.19-.13a18.13,18.13,0,0,0,7.39-34.31L26.66,187.13,1.95,236.25a18.13,18.13,0,0,0,8,24.35,18.56,18.56,0,0,0,18.72-1.43l2-1.41,1,2.19c21.47,46.29,70.65,76.21,125.29,76.21,54.16,0,103.17-29.6,124.86-75.41ZM278.08,250c-18.21,46.91-66.87,78.42-121.09,78.42-55.2,0-104.15-32.24-121.82-80.24l-3.06-8.32-4.65,9.22a10.46,10.46,0,0,1-6.06,5.16A10.39,10.39,0,0,1,8.84,239.72L30.1,197.48l42.24,21.28a10.41,10.41,0,0,1,4.62,14,10.6,10.6,0,0,1-14,4.63l-11.76-5.9,3.27,9.07c12.55,34.84,46.76,60.74,87.16,66l4.35.56v-157H120.26a10.42,10.42,0,0,1,0-20.84H146v-22l-2.83-.78a50.3,50.3,0,1,1,26.5,0l-2.83.78v22H193.7a10.42,10.42,0,0,1,0,20.84H166.82V307.18l4.31-.51c41.58-4.94,76.44-31.36,88.82-67.31l3.08-8.95-13.81,6.94a10.59,10.59,0,0,1-14-4.61,10.45,10.45,0,0,1,4.63-14l42.23-21.28,21.25,42.25a10.45,10.45,0,0,1-4.63,14A10.59,10.59,0,0,1,285,249.5l-4-7.05Z"/></g></g></svg>