<svg xmlns="http://www.w3.org/2000/svg" viewBox="0 0 350 43.83"><title>blackidea</title><path d="M215.93,42.8H203.14V1h12.79Z" fill="#666"/><path d="M241.11,1c12.79,0,21.07,7.74,21.07,20.77,0,13.9-7.63,21-21.29,21H222.47V1ZM235,32.24h5c6.28,0,9.38-3.94,9.38-10.21,0-7.1-4-10.5-10.62-10.5H235Z" fill="#666"/><path d="M302.27,11.17h-22v5.22h20v9.68h-20v6.1h22.59V42.79h-35.2V1h34.62Z" fill="#666"/><path d="M321.54,36.85l-2.05,5.93h-13L321.94,1h12.68L350,42.77H337L335,36.85l-2.82-9c-.77-2.41-2.23-7.16-2.23-7.16a56.66,56.66,0,0,1-1.59-6.34c-.7,2.88-.93,3.82-1.76,6.4,0,0-.88,2.87-2.29,7.1Z" fill="#666"/><path d="M21.06,1.09C28,1.08,35.91,2.9,35.91,11.52c0,4.11-2,6.51-5.22,8.39C35.38,21.56,38,24.78,38,30.18c0,9.8-7.86,12.67-16,12.68H0V1.09ZM12.44,17h7.22c2.4,0,3.87-1.17,3.87-3.17,0-2.17-1.46-3.28-4.46-3.28H12.44Zm0,15.9h7.92c3.23,0,4.87-1.29,4.87-3.87s-1.7-4-4.87-4H12.44Z" fill="#666"/><path d="M132.34,43.83c-12.79,0-20.95-9.62-21-22S119.89,0,132.57,0c10.2,0,18.36,7.1,19,16.48H139.09c-.71-3.76-3.11-5.87-6.75-5.87-6,0-8,6-8,11.21,0,6.92,3.05,11.2,8,11.2,3.75,0,6.1-2.35,6.75-6.69H151.7C150.94,37.9,142.49,43.82,132.34,43.83Z" fill="#666"/><path d="M181.33,17.27l17.55,25.52h-16L172.65,26.54l-3.75,3.94V42.79H156.3V1H169l-.06,8.45c0,4-.06,2.76-.17,6.4L180.63,1h15.84Z" fill="#666"/><path d="M97.56,1.07H84.88L73.49,31.93H55V1.08H42.16V42.85H82.42l2.06-5.92,2.75-9c1.41-4.23,2.29-7.1,2.29-7.1.82-2.58,1.05-3.52,1.76-6.4a54.91,54.91,0,0,0,1.58,6.34s1.47,4.74,2.23,7.16l2.82,9L100,42.84h13Z" fill="#666"/></svg>
