<svg xmlns="http://www.w3.org/2000/svg" viewBox="0 0 374 254"><title>eat</title><g id="Слой_2" data-name="Слой 2"><g id="Слой_1-2" data-name="Слой 1"><path d="M268.53,69.38a5,5,0,0,0-7.95,6.07A84.22,84.22,0,0,1,278,127a85,85,0,1,1-85-85,84.23,84.23,0,0,1,51.55,17.42,5,5,0,1,0,6.07-7.95A94.14,94.14,0,0,0,193,32a95,95,0,1,0,95,95A94.13,94.13,0,0,0,268.53,69.38Z"/><path d="M193,0A127,127,0,1,0,320,127,127.14,127.14,0,0,0,193,0Zm0,244A117,117,0,1,1,310,127,117.13,117.13,0,0,1,193,244Z"/><path d="M34,105.58l.8-.16A29.09,29.09,0,0,0,58,77V5A5,5,0,0,0,48,5V56H34V5A5,5,0,0,0,24,5V56H10V5A5,5,0,0,0,0,5V77a29.09,29.09,0,0,0,23.2,28.42l.8.16V249a5,5,0,0,0,10,0ZM29,96A19,19,0,0,1,10,77V66H48V77A19,19,0,0,1,29,96Z"/><path d="M374,5a5,5,0,0,0-5-5,29,29,0,0,0-29,29V139a5,5,0,0,0,5,5h19V249a5,5,0,0,0,10,0ZM364,134H350V29a19,19,0,0,1,12.67-17.92l1.33-.47Z"/></g></g></svg>