<svg xmlns="http://www.w3.org/2000/svg" viewBox="0 0 23.84 13.41"><title>eye</title><path d="M21.2,3.31A14.65,14.65,0,0,0,.37,5.65a1.72,1.72,0,0,0,0,2.12,14.57,14.57,0,0,0,11.56,5.65A14.57,14.57,0,0,0,23.48,7.77a1.72,1.72,0,0,0,0-2.12A.37.37,0,0,0,23,5.58a.37.37,0,0,0-.07.52,1,1,0,0,1,0,1.21,13.94,13.94,0,0,1-5.8,4.37l-1,.42.77-.82a6.69,6.69,0,0,0,0-9.13l-.76-.82,1,.42a13.84,13.84,0,0,1,3.62,2.14l.4.34a.35.35,0,0,0,.27.09.37.37,0,0,0,.22-.65ZM6.74,11.68A13.93,13.93,0,0,1,.95,7.31a1,1,0,0,1,0-1.21A13.93,13.93,0,0,1,6.74,1.73l1-.42L7,2.14a6.69,6.69,0,0,0,0,9.14l.76.82Zm11.14-5a6,6,0,0,1-6,6h-.06a6,6,0,1,1,6-6Z"/><path d="M11.92,4.32A2.38,2.38,0,1,0,14.3,6.71,2.38,2.38,0,0,0,11.92,4.32Zm0,4a1.64,1.64,0,1,1,1.64-1.64A1.64,1.64,0,0,1,11.92,8.35Z"/></svg>