<svg id="Слой_1" data-name="Слой 1" xmlns="http://www.w3.org/2000/svg" viewBox="0 0 298.54 84.33"><defs><style>.cls-1{fill:none;stroke:#000;stroke-linecap:round;stroke-linejoin:round;stroke-width:2.5px;}</style></defs><title>yacht-1</title><path id="_Контур_" data-name="&lt;Контур&gt;" class="cls-1" d="M3070.63-1167.28s41.74,0,58.74,0c2.52,0,5.64-1.44,5.64-5.19,0-4.17-3.29-5.28-5.64-5.28h-47.94l-19.3,18.82,15,16.65s132.4,0,197.74.1c13.13,0,32.48-7.67,41.86-12.66,13.13-7,29.36-18.34,41.44-41.48" transform="translate(-3060.88 1225.3)"/><path id="_Контур_2" data-name="&lt;Контур&gt;" class="cls-1" d="M3063.12-1159.83c79.67,0,182.28,0,261.95-.11" transform="translate(-3060.88 1225.3)"/><polyline id="_Контур_3" data-name="&lt;Контур&gt;" class="cls-1" points="20.55 47.51 27.21 40.9 289.72 41"/><polyline id="_Контур_4" data-name="&lt;Контур&gt;" class="cls-1" points="188.94 8.9 180.5 1.25 80.08 11.5 79.18 16.99"/><polyline id="_Контур_5" data-name="&lt;Контур&gt;" class="cls-1" points="221 28.96 202.5 8.08 74.48 17.36 72.49 27.98"/><line id="_Контур_6" data-name="&lt;Контур&gt;" class="cls-1" x1="72.49" y1="28.96" x2="297.29" y2="28.94"/><polyline id="_Контур_7" data-name="&lt;Контур&gt;" class="cls-1" points="62.49 39.98 65.89 28.96 72.49 28.96"/><polyline id="_Контур_8" data-name="&lt;Контур&gt;" class="cls-1" points="192.29 28.94 187.96 15.42 160.63 17.58"/><polyline id="_Контур_9" data-name="&lt;Контур&gt;" class="cls-1" points="162.46 28.96 160.63 17.58 137.49 19.25 136.54 28.96"/></svg>