<svg xmlns="http://www.w3.org/2000/svg" viewBox="0 0 482.46 512"><title>pdf</title><g id="Слой_2" data-name="Слой 2"><path d="M479.71,138.56,349.27,3a9.85,9.85,0,0,0-7.1-3H147.77a39.5,39.5,0,0,0-39.46,39.44V177.23H29.52A29.55,29.55,0,0,0,0,206.74V354.49A29.55,29.55,0,0,0,29.52,384h78.79v88.63A39.46,39.46,0,0,0,147.77,512H443a39.45,39.45,0,0,0,39.46-39.35V145.38A9.85,9.85,0,0,0,479.71,138.56Zm-135.09-112L451.7,137.85H344.62ZM29.52,364.31a9.83,9.83,0,0,1-9.83-9.82V206.74a9.84,9.84,0,0,1,9.83-9.82H295.4a9.84,9.84,0,0,1,9.83,9.82V354.49a9.84,9.84,0,0,1-9.83,9.82ZM462.77,472.65A19.74,19.74,0,0,1,443,492.31H147.77A19.75,19.75,0,0,1,128,472.63V384H295.4a29.55,29.55,0,0,0,29.52-29.51V206.74a29.55,29.55,0,0,0-29.52-29.51H128V39.44a19.78,19.78,0,0,1,19.77-19.75H324.92v128a9.85,9.85,0,0,0,9.85,9.85h128V472.65Z"/><path d="M117.71,249.89a22.17,22.17,0,0,0-12.17-8.28q-4.73-1.27-20.31-1.27H57.83v84.58H74.9V293H86a97.45,97.45,0,0,0,17.71-1.21,24.74,24.74,0,0,0,8.86-4,23.19,23.19,0,0,0,7.18-8.34,27.59,27.59,0,0,0,2.83-13.1Q122.62,256.27,117.71,249.89Zm-14.62,23.28a11.21,11.21,0,0,1-5.34,4.15q-3.4,1.33-13.5,1.33H74.9v-24h8.25a82,82,0,0,1,12.29.58,11.81,11.81,0,0,1,6.86,3.75A10.92,10.92,0,0,1,105,266.6,11.37,11.37,0,0,1,103.09,273.17Z"/><path d="M204.71,263.45a37,37,0,0,0-8.08-13.7A28.29,28.29,0,0,0,183.89,242q-5.54-1.62-16.1-1.62H136.58v84.58h32.13q9.46,0,15.12-1.79a30,30,0,0,0,12-6.75,37.3,37.3,0,0,0,9.06-14.94,55.58,55.58,0,0,0,2.6-18Q207.48,271.56,204.71,263.45ZM188.1,298.18q-1.73,5.68-4.47,8.16a15.76,15.76,0,0,1-6.89,3.52,46.49,46.49,0,0,1-10.33.81H153.65v-56h7.67q10.44,0,14,.81a16.25,16.25,0,0,1,7.9,4,19.35,19.35,0,0,1,4.85,8.19q1.73,5.25,1.73,15.06T188.1,298.18Z"/><polygon points="280.06 254.65 280.06 240.35 222.08 240.35 222.08 324.92 239.15 324.92 239.15 288.98 274.46 288.98 274.46 274.67 239.15 274.67 239.15 254.65 280.06 254.65"/></g></svg>