<svg xmlns="http://www.w3.org/2000/svg" viewBox="0 0 6.04 10.82"><title>question-mark</title><path d="M2.15,7.81a4.37,4.37,0,0,1,.18-1.48,3.69,3.69,0,0,1,.92-1.08,16.08,16.08,0,0,0,1-1.32,2,2,0,0,0,.31-1.11,1.62,1.62,0,0,0-.41-1.19A1.59,1.59,0,0,0,3,1.22a1.79,1.79,0,0,0-1.13.36A1.27,1.27,0,0,0,1.4,2.64H0l0,0A2.28,2.28,0,0,1,.83.71,3.26,3.26,0,0,1,3,0,3.18,3.18,0,0,1,5.24.74,2.65,2.65,0,0,1,6,2.79a3.08,3.08,0,0,1-.52,1.73,9.69,9.69,0,0,1-1.37,1.6,1.74,1.74,0,0,0-.47.71,4.15,4.15,0,0,0-.08,1Zm1.49,3H2.14V9.29h1.5Z"/></svg>