<svg id="Слой_1" data-name="Слой 1" xmlns="http://www.w3.org/2000/svg" viewBox="0 0 297.51 114.88"><defs><style>.cls-1{fill:none;stroke:#000;stroke-linecap:round;stroke-linejoin:round;stroke-width:2px;}</style></defs><title>yacht-3</title><path id="_Контур_" data-name="&lt;Контур&gt;" class="cls-1" d="M1754.06-940.17c49.41,0,98.83,0,148.24-.16,14.85-.06,28.6-4.94,41-13.34,6.92-4.68,21.54-17.4,22.59-19.62" transform="translate(-1669.41 1016.91)"/><path id="_Контур_2" data-name="&lt;Контур&gt;" class="cls-1" d="M1788.25-977.36c-20.63.28-54.58,0.59-58.67,0.46-5.73-.18-18.94,0-26.17-1.46a13,13,0,0,1-4.27-1.59l-4.77-7.7h-9.94l-14,14.44s7.49,22.06,15.91,28.5a19.91,19.91,0,0,0,12.49,4.58l19.24,0" transform="translate(-1669.41 1016.91)"/><path id="_Контур_3" data-name="&lt;Контур&gt;" class="cls-1" d="M1870.75-992.89c-9.17,6.66-27.83,14.41-69.67,15.32l-2.55.05" transform="translate(-1669.41 1016.91)"/><line id="_Контур_4" data-name="&lt;Контур&gt;" class="cls-1" x1="97.87" y1="54.71" x2="5.42" y2="54.72"/><line id="_Контур_5" data-name="&lt;Контур&gt;" class="cls-1" x1="284.87" y1="54.69" x2="107.89" y2="54.71"/><line id="_Контур_6" data-name="&lt;Контур&gt;" class="cls-1" x1="112.95" y1="43.7" x2="2.02" y2="43.7"/><line id="_Контур_7" data-name="&lt;Контур&gt;" class="cls-1" x1="295.76" y1="43.7" x2="122.99" y2="43.7"/><path id="_Контур_8" data-name="&lt;Контур&gt;" class="cls-1" d="M1794.66-981.75c-6.16.19-13.52,0.28-20,.39-32.76.54-61.53,0.92-71.53-.76l-4.53-5.52h-4.22" transform="translate(-1669.41 1016.91)"/><path id="_Контур_9" data-name="&lt;Контур&gt;" class="cls-1" d="M1965.92-973.32c-9.09-6-40.73-14-49.08-15.66-9.15-1.79-24.42-3.17-33.25-3.62-11.21-.58-23.78-0.09-23.78-0.09s-18.27,7.14-27,7.83c-5.27,1.24-15.21,2.07-27.82,2.64" transform="translate(-1669.41 1016.91)"/><path id="_Составной_контур_" data-name="&lt;Составной контур&gt;" class="cls-1" d="M1749.5-943.14c2.52-1.84,5.21-3.45,7.84-5.14,0.19-.12.4-0.52,0.67-0.22s-0.05.52-.17,0.74c-1,1.84-1.87,3.7-2.9,5.5a82.78,82.78,0,0,1-6.31,9.46,82.26,82.26,0,0,1-12.41,13c-6.74,5.62-14.1,10.4-21.16,15.6a5.78,5.78,0,0,1-3.71,1.15,4.28,4.28,0,0,1-3.19-1.69c-1.42-1.8-2.75-3.66-4.1-5.51-1.8-2.49-3.59-5-5.38-7.49a16.38,16.38,0,0,1-1.73-2.73,5.23,5.23,0,0,1,1.72-5.93c3.15-2.23,6.27-4.51,9.4-6.77,3.59-2.59,7.15-5.22,10.9-7.57a83.76,83.76,0,0,1,13.59-6.92,93.58,93.58,0,0,1,10.42-3.44,72.72,72.72,0,0,1,8.37-1.72l2.87-.43c0.18,0,.41-0.13.51,0.08s-0.14.31-.28,0.43c-1.9,1.64-3.93,3.12-5.89,4.67-3.62,2.85-7.22,5.72-10.84,8.57-2.73,2.15-5.5,4.25-8.24,6.39-4,3.11-7.92,6.23-11.88,9.34a11.64,11.64,0,0,0-2.45,2c-0.85,1.17-2.37,1.39-3.21,2.5-0.13.17-.53,0.24-0.29,0.55s0.45,0,.64-0.08c1.57-1,3.14-2,4.69-3,2.79-1.83,5.56-3.7,8.36-5.53q7.51-4.91,15-9.78C1740.84-937.44,1748-942,1749.5-943.14Z" transform="translate(-1669.41 1016.91)"/><path id="_Контур_10" data-name="&lt;Контур&gt;" class="cls-1" d="M1761.26-950.86c-0.89.64-.92,0.63-1.57-0.29s-1.32-1.91-2-2.82a0.81,0.81,0,0,1,.22-1.41c4-2.84,8-5.72,12-8.58l71.36-51.21c1.54-1.11,1.85-1.05,2.95.52l1.16,1.66c0.65,0.93.59,1.36-.33,2l-8.41,6-45.37,32.55Z" transform="translate(-1669.41 1016.91)"/></svg>