<svg id="Слой_1" data-name="Слой 1" xmlns="http://www.w3.org/2000/svg" viewBox="0 0 269.97 263.55"><defs><style>.cls-1,.cls-2{fill:none;stroke:#000;stroke-linejoin:round;stroke-width:2.5px;}.cls-1{stroke-linecap:round;}</style></defs><title>yacht-2</title><path id="_Контур_" data-name="&lt;Контур&gt;" class="cls-1" d="M3754.51-1165.2c-81,0-174.49,0-255.49,0" transform="translate(-3488.06 1404.42)"/><path id="_Контур_2" data-name="&lt;Контур&gt;" class="cls-1" d="M3751.93-1161.19c-78,0-249.56,0-249.56,0a11.42,11.42,0,0,1-1-1.06c-5.21-5.91-10.07-12.08-12-20,1.48-1,4.36-1,5-1,30.33,0,59.79.05,90.13,0,3,0,4.31,0,7,2.42,2.82,2.82,5.57,5.41,8.37,8.1a9.54,9.54,0,0,0,7,2.5h150" transform="translate(-3488.06 1404.42)"/><path id="_Контур_3" data-name="&lt;Контур&gt;" class="cls-1" d="M3502.13-1161.44c6.37,7.23,18.2,19.32,36.18,19.32,60.5-.17,121,0,181.5-0.21,17.88,0,33.81-17.37,37-27.87" transform="translate(-3488.06 1404.42)"/><path id="_Контур_4" data-name="&lt;Контур&gt;" class="cls-1" d="M3745.42-1154.21H3509.54" transform="translate(-3488.06 1404.42)"/><line id="_Контур_5" data-name="&lt;Контур&gt;" class="cls-1" x1="129.25" y1="217.21" x2="129.25" y2="1.25"/><path id="_Контур_6" data-name="&lt;Контур&gt;" class="cls-1" d="M3599.81-1174.71c2.14-2.52,4.15-4.76,6.49-7.5,3.83-4.49,11.5-4,11.5-4h109.5s3.22-.14,5.16,1.62c4.2,3.8,7.19,7.36,8.84,13.35" transform="translate(-3488.06 1404.42)"/><polygon id="_Контур_7" data-name="&lt;Контур&gt;" class="cls-1" points="129.25 2.77 118.32 203.31 10.19 203.31 129.25 2.77"/><polygon id="_Контур_8" data-name="&lt;Контур&gt;" class="cls-1" points="129.25 2.77 140.18 199.31 248.31 203.31 129.25 2.77"/><g id="_Группа_" data-name="&lt;Группа&gt;"><circle id="_Контур_9" data-name="&lt;Контур&gt;" class="cls-1" cx="132.05" cy="226.56" r="3"/><circle id="_Контур_10" data-name="&lt;Контур&gt;" class="cls-1" cx="143.26" cy="226.56" r="3"/><circle id="_Контур_11" data-name="&lt;Контур&gt;" class="cls-1" cx="154.47" cy="226.56" r="3"/><circle id="_Контур_12" data-name="&lt;Контур&gt;" class="cls-1" cx="165.68" cy="226.56" r="3"/><circle id="_Контур_13" data-name="&lt;Контур&gt;" class="cls-1" cx="176.89" cy="226.56" r="3"/><circle id="_Контур_14" data-name="&lt;Контур&gt;" class="cls-1" cx="188.11" cy="226.56" r="3"/><circle id="_Контур_15" data-name="&lt;Контур&gt;" class="cls-1" cx="199.32" cy="226.56" r="3"/><circle id="_Контур_16" data-name="&lt;Контур&gt;" class="cls-1" cx="210.53" cy="226.56" r="3"/><circle id="_Контур_17" data-name="&lt;Контур&gt;" class="cls-1" cx="221.74" cy="226.56" r="3"/><circle id="_Контур_18" data-name="&lt;Контур&gt;" class="cls-1" cx="232.95" cy="226.56" r="3"/></g><line id="_Контур_19" data-name="&lt;Контур&gt;" class="cls-2" x1="129.05" y1="226.56" x2="114.18" y2="226.56"/><line id="_Контур_20" data-name="&lt;Контур&gt;" class="cls-2" x1="250.82" y1="226.56" x2="235.95" y2="226.56"/><line id="_Контур_21" data-name="&lt;Контур&gt;" class="cls-2" x1="229.96" y1="226.56" x2="224.74" y2="226.56"/><line id="_Контур_22" data-name="&lt;Контур&gt;" class="cls-2" x1="218.75" y1="226.56" x2="213.53" y2="226.56"/><line id="_Контур_23" data-name="&lt;Контур&gt;" class="cls-2" x1="207.53" y1="226.56" x2="202.31" y2="226.56"/><line id="_Контур_24" data-name="&lt;Контур&gt;" class="cls-2" x1="196.32" y1="226.56" x2="191.1" y2="226.56"/><line id="_Контур_25" data-name="&lt;Контур&gt;" class="cls-2" x1="185.11" y1="226.56" x2="179.89" y2="226.56"/><line id="_Контур_26" data-name="&lt;Контур&gt;" class="cls-2" x1="173.9" y1="226.56" x2="168.68" y2="226.56"/><line id="_Контур_27" data-name="&lt;Контур&gt;" class="cls-2" x1="162.69" y1="226.56" x2="157.47" y2="226.56"/><line id="_Контур_28" data-name="&lt;Контур&gt;" class="cls-2" x1="151.48" y1="226.56" x2="146.26" y2="226.56"/><line id="_Контур_29" data-name="&lt;Контур&gt;" class="cls-2" x1="140.2" y1="226.56" x2="134.98" y2="226.56"/></svg>