<svg xmlns="http://www.w3.org/2000/svg" viewBox="0 0 523.67 195.23"><title>ship3</title><g id="Слой_2" data-name="Слой 2"><g id="Слой_1-2" data-name="Слой 1"><path id="_Составной_контур_" data-name="&lt;Составной контур&gt;" d="M523.43,74.63c0-.07,0-.13.05-.2s.06-.21.08-.32.05-.3.07-.46v-.08a5.48,5.48,0,0,0-.08-1.64c0-.11-.05-.22-.08-.33s0-.12,0-.19-.08-.24-.13-.36l-.05-.14c0-.11-.1-.22-.15-.33l-.08-.16-.16-.27-.12-.2-.14-.2-.18-.24-.12-.14-.23-.26-.12-.11-.27-.25-.17-.13-.25-.19a5.48,5.48,0,0,0-1.48-.71l-.11,0-.41-.1-.38-.06-.15,0a5.47,5.47,0,0,0-.59,0H389.06L348,2.56a5.5,5.5,0,0,0-5.46-2.5L141.21,30a5.5,5.5,0,0,0-4.35,3.53l-12.6,34h-6.82a5.5,5.5,0,0,0-5.28,4l-6.42,22L50.47,93.3a5.55,5.55,0,0,0-4.3,2L34.67,109.57,16,132.2a5.62,5.62,0,0,0-.4.55L1.25,150.13A5.5,5.5,0,0,0,1,156.86l26,35.89A5.5,5.5,0,0,0,31.48,195h0c2.29,0,230.57-.09,342.43.21,24.17,0,58.41-16.87,75.53-28.2,21-13.88,51.41-38.51,73.79-91.84A5.47,5.47,0,0,0,523.43,74.63ZM146,40.38,340.63,11.47l35.42,56.07H346.92L330.47,36.69a5.5,5.5,0,0,0-5.68-2.85L240.6,46.69a5.5,5.5,0,0,0-4.36,3.61l-6.09,17.25H136ZM334.46,67.54H241.82l3.7-10.48L322.6,45.3Zm39.46,116.69c-105.1-.28-313-.22-339.63-.21L14.92,157.27H28.66l140.08,0c93.64,0,191.35,0,275.8-.23l-1.18.79C414.35,177.07,385.36,184.23,373.92,184.23ZM459.4,146c-130.7.31-297,.27-430.74.24h-10l24.46-29.69,0,0v0l0,0,9.87-12.21,56.77.21h0a5.5,5.5,0,0,0,5.28-4l6.42-22H234.2l151.44,0,.42,0,.38,0h123.3C494.34,112.05,475.67,132.59,459.4,146Z"/></g></g></svg>