<svg xmlns="http://www.w3.org/2000/svg" viewBox="0 0 340.65 339.49"><title>ship2</title><g id="Слой_2" data-name="Слой 2"><g id="Слой_1-2" data-name="Слой 1"><g id="_Группа_" data-name="&lt;Группа&gt;"><path id="_Составной_контур_" data-name="&lt;Составной контур&gt;" d="M141.71,94a5.4,5.4,0,0,0-4-5.12h0a8.53,8.53,0,0,0-2.23-.34c-1.76,0-3,.81-4.18,2.64L42.36,234.75c-1.56,2.49-1,4.06-.33,5.16,1.32,2.13,2.74,3,4.91,3h88.93a5.56,5.56,0,0,0,5.85-5.36ZM130.53,232.23H56.32l74.22-118Z"/><path id="_Составной_контур_2" data-name="&lt;Составной контур&gt;" d="M48.47,337.4a4.91,4.91,0,0,0,4.4,2.09H288.11a5.87,5.87,0,0,0,4.51-2.24l46.89-64.88a4.46,4.46,0,0,0,.42-5.39l-.12-.25c-.9-2.08-2.29-2.93-4.7-2.93H169.54V242.92H314.59c2.18,0,3.34-.73,4.43-2.8,1.52-2.89.94-4.49.18-5.67L168.67,2.62c-1.58-2.4-3.38-3.06-6.44-2.35a5.06,5.06,0,0,0-3.52,5.09V263.8H5.52c-2.14,0-3.62,1-4.79,3.15a4.49,4.49,0,0,0,.38,5.41ZM169.54,24.5,305,232.23H169.54ZM324.48,275,285.39,328.8h-230L16.15,275Z"/><path id="_Контур_" data-name="&lt;Контур&gt;" d="M127.09,296.6a6.78,6.78,0,0,0-5-2.23H122a7.36,7.36,0,0,0-5.27,2.27A7.36,7.36,0,1,0,127.18,307a7.31,7.31,0,0,0,2.28-5.32,6.82,6.82,0,0,0-2.25-5Z"/><path id="_Контур_2" data-name="&lt;Контур&gt;" d="M103.84,296.6a6.82,6.82,0,0,0-5-2.23h-.08a7.34,7.34,0,0,0-5.25,2.27,7.36,7.36,0,1,0,10.42,10.41,7.31,7.31,0,0,0,2.28-5.33,6.82,6.82,0,0,0-2.25-5Z"/><path id="_Контур_3" data-name="&lt;Контур&gt;" d="M75.45,294.4a7.13,7.13,0,0,0-5.18,2.23,7.59,7.59,0,0,0,0,10.44,7.49,7.49,0,0,0,10.41,0h0a7.61,7.61,0,0,0,0-10.45A7.12,7.12,0,0,0,75.45,294.4Z"/></g></g></g></svg>