<svg xmlns="http://www.w3.org/2000/svg" viewBox="0 0 378.92 281.6"><title>ship6</title><g id="Слой_2" data-name="Слой 2"><g id="Слой_1-2" data-name="Слой 1"><path d="M374.42,201.16a4.5,4.5,0,0,0,0-9H240a4.66,4.66,0,0,0-.65.05l-.13,0a4.12,4.12,0,0,0-.59.14l-.12,0a4.58,4.58,0,0,0-.48.21l-.1,0a4.09,4.09,0,0,0-.51.31l-1-1.13h0l.91,1.19a5.37,5.37,0,0,0-.46.39,4,4,0,0,0-.42.48l-1.29-.78,1.2.9a4.3,4.3,0,0,0-.32.52l-.08.15c0,.1-.13.29-.2.49l0,.13c-4,12.13-13.8,21.12-26.74,24.58l-1.89.51V179.2h46.7a4.49,4.49,0,0,0,4.28-3.12l3.32-10.31a137,137,0,0,0,0-84.54l-3.32-10.31a4.49,4.49,0,0,0-4.28-3.12H205.5V50h14a4.5,4.5,0,0,0,0-9h-14V36.64l38.06-14.49a4.5,4.5,0,0,0-.2-8.48L202.4.22a4.5,4.5,0,0,0-5.9,4.27V41H183.7a4.5,4.5,0,0,0,0,9h12.8V67.8H151.4a4.5,4.5,0,0,0-4.28,5.88L150.44,84a130.83,130.83,0,0,1,3.89,15.11,5.7,5.7,0,0,0,.11.61,128.85,128.85,0,0,1-4,63.28l-3.32,10.31a4.5,4.5,0,0,0,4.28,5.88h46.7v42.2H131.88V14.74a4.5,4.5,0,0,0-9,0V34L51.81,155.83a4.5,4.5,0,0,0,3.89,6.77h67.18V221.4H105.16a19.5,19.5,0,0,1-18.86-14.55l0-.12-5.66-32.79a4.49,4.49,0,0,0-4.43-3.73H4.5a4.5,4.5,0,0,0,0,9h6.89l6.38,21.26L41.15,278.4a4.47,4.47,0,0,0,4.31,3.2h256a4.48,4.48,0,0,0,3.8-2.08l49.87-78.36ZM205.5,10.71l23,7.54L205.5,27ZM157.57,170.2l1.43-4.43a136.27,136.27,0,0,0,5.41-60.91l-.24-1.71H236a4.5,4.5,0,1,0,0-9H162.5L162.23,93c-.91-4-2-8-3.23-11.75l-1.43-4.43h92.95L252.84,84a128,128,0,0,1,0,79l-2.32,7.19Zm-94-16.61L122.88,51.86V153.6ZM299,272.6H48.81l-20.72-69H59.22a4.5,4.5,0,1,0,0-9H25.4L20.79,179.2h51.6l5.05,29.28c0,.1,0,.22.07.33a28.45,28.45,0,0,0,27.64,21.58H197.4c20.34,0,37.72-10.86,45.36-28.35l.39-.9h101.3Z"/></g></g></svg>