<svg xmlns="http://www.w3.org/2000/svg" viewBox="0 0 498.04 386.57"><title>ship5</title><g id="Слой_2" data-name="Слой 2"><g id="Layer_1" data-name="Layer 1"><path d="M498,287.17a39.25,39.25,0,0,0-39.67-39.67H395.63V210.38c0-17.75-14.85-31.13-34.55-31.13H335.9V111.39a17.71,17.71,0,0,0-17.48-17.48H291.12a17.71,17.71,0,0,0-17.48,17.48v67.85H233.5V111.39A17.71,17.71,0,0,0,216,93.91H188.71a17.71,17.71,0,0,0-17.48,17.48v67.85H146c-20.34,0-34.55,12.8-34.55,31.13v37.13H0l.57,6.29c.3,3,16.34,132.78,116.47,132.78h287.7l-.55-6.12c-.08-1-1.66-22.81,11.83-38.1,9.24-10.17,23.88-15.52,42.36-15.52A39.25,39.25,0,0,0,498,287.17ZM284.7,111.39a6.67,6.67,0,0,1,6.41-6.41h27.31a6.67,6.67,0,0,1,6.41,6.41v67.85H284.7Zm-102.4,0a6.67,6.67,0,0,1,6.41-6.41H216a6.67,6.67,0,0,1,6.41,6.41v67.85H182.3ZM146,190.31h215c11.69,0,23.48,6.2,23.48,20.07v37.13h-262V210.38C122.57,196.51,134.36,190.31,146,190.31ZM407.72,335.23c-12.63,13.53-14.13,31.59-14.63,37.53l-.23,2.75H117c-25,0-46.31-8.92-63.36-26.51l-4.93-5.09H338.9c3.46,0,5.53-2.07,5.53-5.53s-2.07-5.53-5.53-5.53H40.78l-.89-1.37a150.21,150.21,0,0,1-9.19-16.54c-1.48-3-2.92-6.09-4.37-9.51l-1.77-4.17h280.2c3.46,0,5.53-2.07,5.53-5.53s-2.07-5.53-5.53-5.53H22.93l-2.27.06L20,288.08c-3.28-10.47-5.26-19.74-6.58-25.88l-.78-3.63H458.37a28.6,28.6,0,0,1,0,57.2C436.06,315.78,419,322.32,407.72,335.23Z"/><path d="M216.44,45.68c0-4.62-1.64-11.47-9.43-17.89l-.24-.2-.2-.25a5.46,5.46,0,0,0-1.39-1.23c-5.05-2.56-5.81-5.41-5.81-6.89,0-1.25.61-4.66,6.25-9.17l.33-.23A4,4,0,0,0,207.84,7a6.25,6.25,0,0,0-1-4.76L206.62,2A4,4,0,0,0,203.8.11a6.26,6.26,0,0,0-4.7,1c-8.93,7.47-10.8,14.9-10.8,19.83,0,5.68,3.87,11,11.21,15.27l.59.27.34.3c4.45,4,4.93,7,4.93,8,0,1.48-.76,4.33-5.81,6.89-2.86,1.78-3.17,5.18-2.2,7.9a7.34,7.34,0,0,0,5,2.69,12.86,12.86,0,0,0,2.29-.12l.06-.06L205,62C212.47,57,216.44,51.33,216.44,45.68Z"/><path d="M304.77,62.31a4.88,4.88,0,0,0,2.76-.46c7.4-5,11.3-10.56,11.3-16.17,0-4.61-1.63-11.46-9.41-17.87l-.24-.2-.19-.24a5.58,5.58,0,0,0-1.42-1.26c-5.05-2.56-5.81-5.41-5.81-6.89,0-1.25.61-4.66,6.25-9.17l.33-.23A4,4,0,0,0,310.24,7a6.25,6.25,0,0,0-1-4.75L309,2A4,4,0,0,0,306.2.11a6.27,6.27,0,0,0-4.7,1c-8.92,7.47-10.8,14.9-10.8,19.83,0,5.68,3.87,11,11.2,15.27l.6.27.34.3c4.45,4,4.93,7,4.93,8.05,0,1.48-.76,4.33-5.81,6.89-2.88,1.78-3.88,5.07-2.33,7.72A7.31,7.31,0,0,0,304.77,62.31Z"/><path d="M210.9,224.44a5.55,5.55,0,0,0,5.53-5.53c0-2.59-2.95-5.53-5.53-5.53a5.53,5.53,0,1,0,0,11.07Z"/><path d="M253.57,213.38a5.53,5.53,0,1,0,5.53,5.53,6.22,6.22,0,0,0-5.53-5.53Z"/><path d="M296.23,213.38a5.53,5.53,0,1,0,5.53,5.53C301.77,216.32,298.82,213.38,296.23,213.38Z"/></g></g></svg>