<svg xmlns="http://www.w3.org/2000/svg" viewBox="0 0 498.04 412.56"><title>ship4</title><g id="Слой_2" data-name="Слой 2"><g id="Layer_1" data-name="Layer 1"><path d="M498,313.16a39.25,39.25,0,0,0-39.67-39.67h-79.8V242.34a37.15,37.15,0,0,0-37.11-37.11H267.63V179.91l74.2-36.69A54,54,0,0,0,370.89,98c.81-20.24-8.08-37.18-25-47.67L264.7.78a4.74,4.74,0,0,0-5.21,0l-.37.27-.32.23A4.94,4.94,0,0,0,256.63,5l0,.14a7.48,7.48,0,0,0,0,.78V205.23H182.94L97.61,273.5H0l.57,6.29c.3,3,16.34,132.78,116.47,132.78h287.7l-.55-6.12c-.08-1-1.66-22.81,11.83-38.1,9.24-10.17,23.88-15.52,42.36-15.52A39.25,39.25,0,0,0,498,313.16ZM267.64,16l72.81,43.69a41.49,41.49,0,0,1,19.37,37.73h0c-.95,16.14-9.57,29.53-23.06,35.82l-69.12,34.56ZM186.8,216.3H341.46a26.07,26.07,0,0,1,26,26V273.5H116.25ZM407.72,361.22c-12.63,13.53-14.13,31.59-14.63,37.53l-.23,2.75H117c-25,0-46.31-8.92-63.36-26.51l-4.93-5.09H338.9c3.46,0,5.53-2.07,5.53-5.53s-2.07-5.53-5.53-5.53H40.78l-.89-1.37a150.21,150.21,0,0,1-9.19-16.54c-1.48-3-2.92-6.09-4.37-9.51l-1.77-4.17h280.2c3.46,0,5.53-2.07,5.53-5.53s-2.07-5.53-5.53-5.53H22.93l-2.27.06L20,314.07c-3.28-10.47-5.26-19.74-6.58-25.88l-.78-3.63H458.37a28.6,28.6,0,1,1,0,57.2C436.06,341.76,419,348.31,407.72,361.22Z"/></g></g></svg>