<svg xmlns="http://www.w3.org/2000/svg" viewBox="0 0 405.6 193.57"><title>subscribe-type-defailt</title><path d="M404.52,60h0a4.83,4.83,0,0,0-5.08-1.61l-130.18,37L206.82,2.15a4.84,4.84,0,0,0-8,0L136.34,95.37,6.17,58.35A4.84,4.84,0,0,0,.56,65.28L67.09,191a4.83,4.83,0,0,0,4.28,2.58H334.23a4.83,4.83,0,0,0,4.28-2.58L405,65.28A4.84,4.84,0,0,0,404.52,60ZM207.64,20.77l51.83,77.38-51.83,14.74Zm-9.68,0v92.12L146.13,98.15Zm-183.53,50,175.44,49.89L73.39,182.19ZM90.9,183.89l111.9-59.11,111.9,59.11Zm241.31-1.7L215.73,120.66,391.18,70.77Z"/></svg>