<svg xmlns="http://www.w3.org/2000/svg" viewBox="0 0 255.09 280.91"><title>Векторный смарт-объект</title><path d="M173.16,72.34a72.57,72.57,0,0,0,0,102.62L314.25,316.06a54.28,54.28,0,0,0,85.95-64.61,9,9,0,0,0-2.56-5.93L256.55,104.41a36.27,36.27,0,1,0-51.3,51.3L320.69,271.16a9.07,9.07,0,1,0,12.82-12.82L218.07,142.89a18.14,18.14,0,1,1,25.65-25.65L378.41,251.93a36.27,36.27,0,0,1-51.3,51.3L186,162.14a54.42,54.42,0,1,1,77-77L391.22,213.44A9.07,9.07,0,1,0,404,200.61L275.78,72.34a72.57,72.57,0,0,0-102.62,0Zm0,0" transform="translate(-151.91 -51.09)"/></svg>