<svg xmlns="http://www.w3.org/2000/svg" viewBox="0 0 482.46 512"><title>Ресурс 3</title><path d="M479.71,138.56,349.27,3a9.85,9.85,0,0,0-7.1-3H147.77a39.5,39.5,0,0,0-39.46,39.44V177.23H29.52A29.55,29.55,0,0,0,0,206.74V354.49A29.55,29.55,0,0,0,29.52,384h78.79v88.63A39.46,39.46,0,0,0,147.77,512H443a39.45,39.45,0,0,0,39.46-39.35V145.38A9.85,9.85,0,0,0,479.71,138.56Zm-135.09-112L451.7,137.85H344.62ZM29.52,364.31a9.83,9.83,0,0,1-9.83-9.82V206.74a9.84,9.84,0,0,1,9.83-9.82H295.4a9.84,9.84,0,0,1,9.83,9.82V354.49a9.84,9.84,0,0,1-9.83,9.82ZM462.77,472.65A19.74,19.74,0,0,1,443,492.31H147.77A19.75,19.75,0,0,1,128,472.63V384H295.4a29.55,29.55,0,0,0,29.52-29.51V206.74a29.55,29.55,0,0,0-29.52-29.51H128V39.44a19.78,19.78,0,0,1,19.77-19.75H324.92v128a9.85,9.85,0,0,0,9.85,9.85h128V472.65Z"/><path d="M70.73,231.43A1.12,1.12,0,0,1,72,230.16h62.75a1.42,1.42,0,0,1,1.41.85l.56,1a1.32,1.32,0,0,1-.14,1.83,117.44,117.44,0,0,0-9.17,13.82L88.35,308.7c-1.69,2.54-3.67,5.36-5.78,8.18-1.13,1.41-.71,2.26.85,2.12,3.53-.14,6.77-.28,9.73-.28h41.74c1,0,1.41.56,1.13,1.41L134.32,326a1.26,1.26,0,0,1-1.41,1.13H70.44a1.36,1.36,0,0,1-1.41-1l-.56-1a1.71,1.71,0,0,1,.14-1.83,146.11,146.11,0,0,0,9.59-14.81l38.49-60.07c1.55-2.4,3.52-5.92,5.78-8.18,1-1.27.85-2.12-.71-2.12-3.67.28-6.77.42-9.59.42H72a1.12,1.12,0,0,1-1.27-1.27Z"/><path d="M167,325.9a1.12,1.12,0,0,1-1.27,1.27H159a1.12,1.12,0,0,1-1.27-1.27V231.43a1.12,1.12,0,0,1,1.27-1.27h6.77a1.12,1.12,0,0,1,1.27,1.27Z"/><path d="M227.23,230.16c20.3,0,32.15,10.86,32.15,29.19,0,19.74-13.54,30.46-40,30.46H201.15v36.1a1.12,1.12,0,0,1-1.27,1.27h-6.77a1.12,1.12,0,0,1-1.27-1.27V231.43a1.12,1.12,0,0,1,1.27-1.27Zm-26.09,51.19h18.19c20.45,0,30.46-7.76,30.46-22,0-13.11-8.46-20.73-22.56-20.73H201.15Z"/></svg>