<svg xmlns="http://www.w3.org/2000/svg"><symbol id="icon_arrow-next" viewBox="0 0 29.08 20"><path class="cls-1" d="M19.08 19.5l9.5-9.5M19.08.5l9.5 9.5m-.75 0H.5"/></symbol><symbol id="icon_arrow-prev" viewBox="0 0 29.08 20"><path class="cls-1" d="M10 .5L.5 10m9.5 9.5L.5 10m.75 0h27.33"/></symbol><symbol id="icon_blackidea" viewBox="0 0 350 43.83"><path d="M215.93 42.8h-12.79V1h12.79zM241.11 1c12.79 0 21.07 7.74 21.07 20.77 0 13.9-7.63 21-21.29 21h-18.42V1zM235 32.24h5c6.28 0 9.38-3.94 9.38-10.21 0-7.1-4-10.5-10.62-10.5H235zm67.27-21.07h-22v5.22h20v9.68h-20v6.1h22.59v10.62h-35.2V1h34.62zm19.27 25.68l-2.05 5.93h-13L321.94 1h12.68L350 42.77h-13l-2-5.92-2.82-9c-.77-2.41-2.23-7.16-2.23-7.16a56.66 56.66 0 0 1-1.59-6.34c-.7 2.88-.93 3.82-1.76 6.4 0 0-.88 2.87-2.29 7.1zM21.06 1.09C28 1.08 35.91 2.9 35.91 11.52c0 4.11-2 6.51-5.22 8.39C35.38 21.56 38 24.78 38 30.18c0 9.8-7.86 12.67-16 12.68H0V1.09zM12.44 17h7.22c2.4 0 3.87-1.17 3.87-3.17 0-2.17-1.46-3.28-4.46-3.28h-6.63zm0 15.9h7.92c3.23 0 4.87-1.29 4.87-3.87s-1.7-4-4.87-4h-7.92zm119.9 10.93c-12.79 0-20.95-9.62-21-22S119.89 0 132.57 0c10.2 0 18.36 7.1 19 16.48h-12.48c-.71-3.76-3.11-5.87-6.75-5.87-6 0-8 6-8 11.21 0 6.92 3.05 11.2 8 11.2 3.75 0 6.1-2.35 6.75-6.69h12.61c-.76 11.57-9.21 17.49-19.36 17.5zm48.99-26.56l17.55 25.52h-16l-10.23-16.25-3.75 3.94v12.31h-12.6V1H169l-.06 8.45c0 4-.06 2.76-.17 6.4L180.63 1h15.84zM97.56 1.07H84.88L73.49 31.93H55V1.08H42.16v41.77h40.26l2.06-5.92 2.75-9c1.41-4.23 2.29-7.1 2.29-7.1.82-2.58 1.05-3.52 1.76-6.4a54.91 54.91 0 0 0 1.58 6.34s1.47 4.74 2.23 7.16l2.82 9 2.09 5.91h13z"/></symbol><symbol id="icon_burger" viewBox="0 0 32 25"><rect width="32" height="3" rx="1.5" ry="1.5"/><rect y="10.97" width="32" height="3" rx="1.5" ry="1.5"/><rect y="22" width="32" height="3" rx="1.5" ry="1.5"/></symbol><symbol id="icon_caret" viewBox="0 0 11 6"><path stroke-linecap="round" stroke-miterlimit="10" d="M.5.5l5 5m5-5l-5 5"/></symbol><symbol id="icon_chevron" viewBox="0 0 512 512"><path d="M509.121 125.966a9.821 9.821 0 0 0-13.893 0L256.005 365.194 16.771 125.966a9.821 9.821 0 0 0-13.893 0 9.821 9.821 0 0 0 0 13.893l246.18 246.175a9.819 9.819 0 0 0 13.893 0l246.17-246.175a9.821 9.821 0 0 0 0-13.893z"/></symbol><symbol id="icon_close" viewBox="0 0 23.51 23.51"><path d="M13.87 11.75l9.19-9.19A1.5 1.5 0 1 0 20.95.44l-9.2 9.19L2.56.44A1.5 1.5 0 0 0 .44 2.56l9.19 9.19-9.19 9.2a1.5 1.5 0 0 0 2.12 2.12l9.19-9.19 9.19 9.19a1.5 1.5 0 1 0 2.12-2.12z"/></symbol><symbol id="icon_exclamation-point" viewBox="0 0 2.74 11.83"><path d="M2.74 10.44a1.27 1.27 0 0 1-1.38 1.39A1.27 1.27 0 0 1 0 10.44 1.26 1.26 0 0 1 1.36 9a1.27 1.27 0 0 1 1.38 1.44zM2.56 3c0 1.08-.33 2.92-.41 4.11 0 .13-.06.2-.19.2H.63c-.14 0-.2-.06-.2-.2C.36 5.9 0 4.05 0 3V.2A.18.18 0 0 1 .22 0h2.15a.18.18 0 0 1 .2.2z"/></symbol><symbol id="icon_fb" viewBox="0 0 10.27 19"><path d="M9.89 0H7.42a4.33 4.33 0 0 0-4.56 4.68v2.15H.39a.39.39 0 0 0-.39.39v3.12a.39.39 0 0 0 .39.39h2.47v7.88a.39.39 0 0 0 .39.39h3.23a.39.39 0 0 0 .39-.39v-7.88h2.9a.39.39 0 0 0 .39-.39V7.22a.39.39 0 0 0-.16-.27.39.39 0 0 0-.27-.11H6.87V5c0-.88.21-1.32 1.35-1.32h1.67a.39.39 0 0 0 .39-.39V.39A.39.39 0 0 0 9.89 0zm0 0"/></symbol><symbol id="icon_go" viewBox="0 0 26.42 16.78"><path d="M0 8a8.37 8.37 0 0 1 8.39-8A8.5 8.5 0 0 1 14 2.08a29.87 29.87 0 0 1-2.13 2.2C10 3 7.25 2.59 5.34 4.11a5.37 5.37 0 0 0-.23 8.37c2.55 2.32 7.38 1.17 8.08-2.38-1.6 0-3.2 0-4.8-.05V7.19h8a9.62 9.62 0 0 1-1.51 6.49c-2.09 2.94-6.28 3.79-9.55 2.54A8.4 8.4 0 0 1 0 8zm21.62-3.22H24v2.4h2.4v2.4L24 9.6V12h-2.38V9.61h-2.4V7.19h2.4q-.01-1.19 0-2.41z"/></symbol><symbol id="icon_insta" viewBox="0 0 19.48 20"><path d="M13.62 20H5.86A5.87 5.87 0 0 1 0 14.14V5.86A5.87 5.87 0 0 1 5.86 0h7.75a5.87 5.87 0 0 1 5.86 5.86v8.27A5.87 5.87 0 0 1 13.62 20zM5.86 2.12a3.75 3.75 0 0 0-3.74 3.74v8.27a3.75 3.75 0 0 0 3.75 3.75h7.75a3.75 3.75 0 0 0 3.75-3.75V5.86a3.75 3.75 0 0 0-3.75-3.75z"/><path d="M9.74 15.53A5.56 5.56 0 0 1 4.18 10a5.65 5.65 0 0 1 1.7-4 5.32 5.32 0 0 1 3.9-1.58 5.73 5.73 0 0 1 4.13 1.69A5.38 5.38 0 0 1 15.3 10a5.68 5.68 0 0 1-1.64 3.9 5.47 5.47 0 0 1-3.92 1.63zM9.62 7a2.76 2.76 0 0 0-1.93.8 3 3 0 0 0-.92 2.2 3 3 0 1 0 5.94 0A2.9 2.9 0 0 0 12 7.88 3.22 3.22 0 0 0 9.7 7z"/><circle cx="14.99" cy="4.7" r="1.2"/></symbol><symbol id="icon_login" viewBox="0 0 19.5 17"><path id="_Контур_" class="cls-1" d="M.5 8.5h11.08"/><g id="_Группа_"><path id="_Контур_2" class="cls-1" d="M8.99 5.91l2.59 2.59"/><path id="_Контур_3" class="cls-1" d="M8.99 11.09l2.59-2.59"/></g><g id="_Группа_2"><path id="_Контур_4" class="cls-1" d="M5.16.5H19"/><path id="_Контур_5" class="cls-1" d="M5.16 16.5H19"/><path id="_Контур_6" class="cls-1" d="M19 16.5V.5"/></g></symbol><symbol id="icon_magnifier" viewBox="0 0 17.31 17.5"><circle cx="6.81" cy="6.81" r="6.31" stroke-linecap="round" stroke-miterlimit="10"/><path stroke-linecap="round" stroke-miterlimit="10" d="M11.17 11.36L16.81 17"/></symbol><symbol id="icon_odnokl" viewBox="0 0 12.01 20"><path d="M5 14.09a7.78 7.78 0 0 1-4.13-1.48c-.15-.12-.3-.23-.44-.36a1.18 1.18 0 0 1-.16-1.67 1.18 1.18 0 0 1 1.57-.35 2.49 2.49 0 0 1 .34.2 6.8 6.8 0 0 0 7.53.07 2 2 0 0 1 .73-.38 1.15 1.15 0 0 1 1.32.53 1.12 1.12 0 0 1-.08 1.47 6.1 6.1 0 0 1-2.18 1.41 10.34 10.34 0 0 1-2.5.56l.27.29 3.46 3.47a1.15 1.15 0 0 1 .27 1.34 1.37 1.37 0 0 1-1.28.8 1.25 1.25 0 0 1-.81-.41 92.21 92.21 0 0 1-2.61-2.63c-.25-.26-.37-.21-.58 0-.87.9-1.76 1.79-2.66 2.67a1.11 1.11 0 0 1-1.34.24 1.36 1.36 0 0 1-.79-1.25 1.25 1.25 0 0 1 .42-.84l3.41-3.42.24-.26zm0 0" fill-rule="evenodd"/><path d="M6 10.12a5.06 5.06 0 1 1 5.09-5 5.06 5.06 0 0 1-5.09 5zm2.48-5.06A2.48 2.48 0 1 0 6 7.54a2.47 2.47 0 0 0 2.48-2.48zm0 0" fill-rule="evenodd"/></symbol><symbol id="icon_rouble" viewBox="0 0 10.76 12.39"><path d="M6.65 0c2.59 0 4.11 1.39 4.11 3.73 0 2.52-1.73 3.89-5.11 3.89H3.32v4.61a.14.14 0 0 1-.16.16H2.3a.14.14 0 0 1-.16-.16V.16A.14.14 0 0 1 2.3 0zm-1 6.54c2.61 0 3.89-1 3.89-2.81S8.45 1.08 6.65 1.08H3.32v5.46z"/><rect x="4.17" y="5.06" width="1.19" height="9.53" rx=".16" ry=".16" transform="rotate(90 4.765 9.825)"/></symbol><symbol id="icon_subscribe" viewBox="0 0 29.08 20"><path class="cls-1" d="M19.08 19.5l9.5-9.5M19.08.5l9.5 9.5m-.75 0H.5"/></symbol><symbol id="icon_tw" viewBox="0 0 24.12 20.68"><path d="M21.66 5.89v-.68a10 10 0 0 0 2.48-2.65 9.45 9.45 0 0 1-2.84.78A5 5 0 0 0 23.45.5a9.44 9.44 0 0 1-3.14 1.2A4.91 4.91 0 0 0 16.7 0a5 5 0 0 0-4.95 5.16 5.29 5.29 0 0 0 .13 1.19A13.92 13.92 0 0 1 1.68.72 5.46 5.46 0 0 0 1 3.36a5.43 5.43 0 0 0 2.21 4.42A4.75 4.75 0 0 1 1 7.1v.07a5.27 5.27 0 0 0 4 5.21 4.82 4.82 0 0 1-1.3.18 4.79 4.79 0 0 1-.93-.11 5 5 0 0 0 4.62 3.69 9.55 9.55 0 0 1-6.14 2.24A9.62 9.62 0 0 1 0 18.29a13.28 13.28 0 0 0 7.59 2.38c9.1 0 14.08-7.92 14.08-14.79zm0 0" fill-rule="evenodd"/></symbol><symbol id="icon_vk" viewBox="0 0 22 12.55"><path d="M21.88 11.34l-.07-.14a11.41 11.41 0 0 0-2.19-2.53q-.73-.7-.93-.94a.88.88 0 0 1-.16-.93 8.65 8.65 0 0 1 1-1.5l.74-1q2-2.64 1.72-3.37L21.9.79a.67.67 0 0 0-.35-.19 1.79 1.79 0 0 0-.73 0h-3.3a.43.43 0 0 0-.23 0h-.21a.5.5 0 0 0-.13.12.79.79 0 0 0-.11.2 18.73 18.73 0 0 1-1.27 2.68q-.42.71-.78 1.23a6 6 0 0 1-.6.77 4.12 4.12 0 0 1-.44.39c-.13.1-.23.14-.3.13h-.19a.75.75 0 0 1-.26-.33 1.25 1.25 0 0 1-.13-.45V1.46a2.64 2.64 0 0 0 0-.52 1.77 1.77 0 0 0-.12-.37.61.61 0 0 0-.23-.27 1.32 1.32 0 0 0-.38-.16A7.68 7.68 0 0 0 10.58 0a7.52 7.52 0 0 0-2.73.28 1.54 1.54 0 0 0-.44.34q-.2.25-.06.28a1.41 1.41 0 0 1 1 .49l.07.14a2.16 2.16 0 0 1 .16.53 5.29 5.29 0 0 1 .1.84 8.83 8.83 0 0 1 0 1.43q-.06.59-.11.93a1.86 1.86 0 0 1-.15.54 2.18 2.18 0 0 1-.16.2l-.06.1a.85.85 0 0 1-.31.06A.73.73 0 0 1 7.5 6a2.75 2.75 0 0 1-.5-.45 5.89 5.89 0 0 1-.56-.78q-.31-.5-.64-1.19l-.18-.33q-.17-.32-.47-.93t-.5-1.2a.76.76 0 0 0-.27-.36h-.06L4.14.63a1.22 1.22 0 0 0-.27-.08L.73.57a.8.8 0 0 0-.65.22L0 .86A.37.37 0 0 0 0 1a.91.91 0 0 0 .07.31Q.76 3 1.56 4.47T3 6.89q.6.92 1.21 1.73t.82 1l.32.34.29.28a6.73 6.73 0 0 0 .81.66 13.76 13.76 0 0 0 1.18.76 6.41 6.41 0 0 0 1.51.61 5.19 5.19 0 0 0 1.67.19h1.32a.91.91 0 0 0 .61-.25v-.06a.76.76 0 0 0 .09-.21 1.16 1.16 0 0 0 0-.31 3.8 3.8 0 0 1 .07-.89 2.33 2.33 0 0 1 .2-.6 1.44 1.44 0 0 1 .25-.34 1 1 0 0 1 .19-.17h.09a.73.73 0 0 1 .65.18 3.84 3.84 0 0 1 .7.66q.33.4.78.89a5.47 5.47 0 0 0 .8.73l.23.14a2.77 2.77 0 0 0 .6.25 1.28 1.28 0 0 0 .64.06h2.93a1.33 1.33 0 0 0 .68-.14.57.57 0 0 0 .36-.4.89.89 0 0 0 0-.39 1.49 1.49 0 0 0-.08-.3zm0 0"/></symbol><symbol id="icon_yt" viewBox="0 0 21.35 15.5"><path d="M21.27 4.41v-.18A4.52 4.52 0 0 0 16.89.06L14 0H4.39A4.47 4.47 0 0 0 .08 4.24v.17A96.59 96.59 0 0 0 .07 11v.18a4.49 4.49 0 0 0 4.34 4.19l3 .06h6.61l2.89-.06a4.54 4.54 0 0 0 4.37-4.19V11c.1-1.78.1-4.76-.01-6.59zm-1.81 6.54v.18a2.73 2.73 0 0 1-2.59 2.48l-2.87.05H7.45l-3-.06a2.64 2.64 0 0 1-2.56-2.47V11c-.09-1.78-.09-4.68 0-6.46v-.21a2.63 2.63 0 0 1 2.56-2.46H16.9a2.67 2.67 0 0 1 2.59 2.47v.18c.07 1.77.07 4.66-.03 6.43z"/><path d="M14.29 6.74L9.08 4a.91.91 0 0 0-1.33.8v5.46a.91.91 0 0 0 1.33.8l5.21-2.73a.9.9 0 0 0 0-1.6zm-2.37.8L9.57 8.77V6.31z"/></symbol></svg>