<svg xmlns="http://www.w3.org/2000/svg"><symbol id="icon_arrow-next" viewBox="0 0 29.08 20"><path class="cls-1" d="M19.08 19.5l9.5-9.5M19.08.5l9.5 9.5m-.75 0H.5"/></symbol><symbol id="icon_arrow-prev" viewBox="0 0 29.08 20"><path class="cls-1" d="M10 .5L.5 10m9.5 9.5L.5 10m.75 0h27.33"/></symbol><symbol id="icon_blackidea" viewBox="0 0 350 43.83"><path d="M215.93 42.8h-12.79V1h12.79zM241.11 1c12.79 0 21.07 7.74 21.07 20.77 0 13.9-7.63 21-21.29 21h-18.42V1zM235 32.24h5c6.28 0 9.38-3.94 9.38-10.21 0-7.1-4-10.5-10.62-10.5H235zm67.27-21.07h-22v5.22h20v9.68h-20v6.1h22.59v10.62h-35.2V1h34.62zm19.27 25.68l-2.05 5.93h-13L321.94 1h12.68L350 42.77h-13l-2-5.92-2.82-9c-.77-2.41-2.23-7.16-2.23-7.16a56.66 56.66 0 0 1-1.59-6.34c-.7 2.88-.93 3.82-1.76 6.4 0 0-.88 2.87-2.29 7.1zM21.06 1.09C28 1.08 35.91 2.9 35.91 11.52c0 4.11-2 6.51-5.22 8.39C35.38 21.56 38 24.78 38 30.18c0 9.8-7.86 12.67-16 12.68H0V1.09zM12.44 17h7.22c2.4 0 3.87-1.17 3.87-3.17 0-2.17-1.46-3.28-4.46-3.28h-6.63zm0 15.9h7.92c3.23 0 4.87-1.29 4.87-3.87s-1.7-4-4.87-4h-7.92zm119.9 10.93c-12.79 0-20.95-9.62-21-22S119.89 0 132.57 0c10.2 0 18.36 7.1 19 16.48h-12.48c-.71-3.76-3.11-5.87-6.75-5.87-6 0-8 6-8 11.21 0 6.92 3.05 11.2 8 11.2 3.75 0 6.1-2.35 6.75-6.69h12.61c-.76 11.57-9.21 17.49-19.36 17.5zm48.99-26.56l17.55 25.52h-16l-10.23-16.25-3.75 3.94v12.31h-12.6V1H169l-.06 8.45c0 4-.06 2.76-.17 6.4L180.63 1h15.84zM97.56 1.07H84.88L73.49 31.93H55V1.08H42.16v41.77h40.26l2.06-5.92 2.75-9c1.41-4.23 2.29-7.1 2.29-7.1.82-2.58 1.05-3.52 1.76-6.4a54.91 54.91 0 0 0 1.58 6.34s1.47 4.74 2.23 7.16l2.82 9 2.09 5.91h13z"/></symbol><symbol id="icon_burger" viewBox="0 0 32 25"><rect width="32" height="3" rx="1.5" ry="1.5"/><rect y="10.97" width="32" height="3" rx="1.5" ry="1.5"/><rect y="22" width="32" height="3" rx="1.5" ry="1.5"/></symbol><symbol id="icon_caret" viewBox="0 0 11 6"><path stroke-linecap="round" stroke-miterlimit="10" d="M.5.5l5 5m5-5l-5 5"/></symbol><symbol id="icon_check-mark" viewBox="0 0 12.86 8.41"><path stroke-linecap="square" stroke-miterlimit="10" d="M.71 3.26l4.45 4.45m0 0l7-7"/></symbol><symbol id="icon_chevron" viewBox="0 0 512 512"><path d="M509.121 125.966a9.821 9.821 0 0 0-13.893 0L256.005 365.194 16.771 125.966a9.821 9.821 0 0 0-13.893 0 9.821 9.821 0 0 0 0 13.893l246.18 246.175a9.819 9.819 0 0 0 13.893 0l246.17-246.175a9.821 9.821 0 0 0 0-13.893z"/></symbol><symbol id="icon_close" viewBox="0 0 23.51 23.51"><path d="M13.87 11.75l9.19-9.19A1.5 1.5 0 1 0 20.95.44l-9.2 9.19L2.56.44A1.5 1.5 0 0 0 .44 2.56l9.19 9.19-9.19 9.2a1.5 1.5 0 0 0 2.12 2.12l9.19-9.19 9.19 9.19a1.5 1.5 0 1 0 2.12-2.12z"/></symbol><symbol id="icon_exclamation-point" viewBox="0 0 2.74 11.83"><path d="M2.74 10.44a1.27 1.27 0 0 1-1.38 1.39A1.27 1.27 0 0 1 0 10.44 1.26 1.26 0 0 1 1.36 9a1.27 1.27 0 0 1 1.38 1.44zM2.56 3c0 1.08-.33 2.92-.41 4.11 0 .13-.06.2-.19.2H.63c-.14 0-.2-.06-.2-.2C.36 5.9 0 4.05 0 3V.2A.18.18 0 0 1 .22 0h2.15a.18.18 0 0 1 .2.2z"/></symbol><symbol id="icon_fb" viewBox="0 0 10.27 19"><path d="M9.89 0H7.42a4.33 4.33 0 0 0-4.56 4.68v2.15H.39a.39.39 0 0 0-.39.39v3.12a.39.39 0 0 0 .39.39h2.47v7.88a.39.39 0 0 0 .39.39h3.23a.39.39 0 0 0 .39-.39v-7.88h2.9a.39.39 0 0 0 .39-.39V7.22a.39.39 0 0 0-.16-.27.39.39 0 0 0-.27-.11H6.87V5c0-.88.21-1.32 1.35-1.32h1.67a.39.39 0 0 0 .39-.39V.39A.39.39 0 0 0 9.89 0zm0 0"/></symbol><symbol id="icon_g-share" viewBox="0 0 90 90"><path d="M74.499 0H50.144c-6.382 0-14.421.942-21.158 6.49-5.09 4.374-7.566 10.392-7.566 15.828 0 9.211 7.094 18.546 19.625 18.546 1.182 0 2.477-.12 3.787-.235-.592 1.413-1.189 2.594-1.189 4.605 0 3.662 1.893 5.902 3.547 8.029-5.314.353-15.249.942-22.583 5.428-6.975 4.143-9.107 10.16-9.107 14.414C15.499 81.846 23.778 90 40.923 90c20.336 0 31.098-11.22 31.098-22.33 0-8.143-4.729-12.164-9.932-16.534l-4.258-3.305c-1.295-1.065-3.068-2.479-3.068-5.08 0-2.597 1.773-4.254 3.307-5.789 4.964-3.896 9.933-8.03 9.933-16.77 0-8.979-5.68-13.704-8.396-15.947h7.334L74.499 0zM64.103 72.279c0 7.322-6.033 12.753-17.385 12.753-12.648 0-20.809-6.024-20.809-14.405 0-8.393 7.568-11.218 10.166-12.164 4.969-1.656 11.352-1.891 12.414-1.891 1.184 0 1.775 0 2.725.115 8.988 6.377 12.889 9.57 12.889 15.592zm-9.461-38.03c-1.893 1.886-5.088 3.305-8.045 3.305-10.164 0-14.772-13.113-14.772-21.023 0-3.072.592-6.258 2.598-8.74 1.893-2.362 5.201-3.899 8.277-3.899 9.812 0 14.899 13.229 14.899 21.73 0 2.13-.241 5.906-2.957 8.627z"/></symbol><symbol id="icon_go" viewBox="0 0 26.42 16.78"><path d="M0 8a8.37 8.37 0 0 1 8.39-8A8.5 8.5 0 0 1 14 2.08a29.87 29.87 0 0 1-2.13 2.2C10 3 7.25 2.59 5.34 4.11a5.37 5.37 0 0 0-.23 8.37c2.55 2.32 7.38 1.17 8.08-2.38-1.6 0-3.2 0-4.8-.05V7.19h8a9.62 9.62 0 0 1-1.51 6.49c-2.09 2.94-6.28 3.79-9.55 2.54A8.4 8.4 0 0 1 0 8zm21.62-3.22H24v2.4h2.4v2.4L24 9.6V12h-2.38V9.61h-2.4V7.19h2.4q-.01-1.19 0-2.41z"/></symbol><symbol id="icon_insta" viewBox="0 0 19.48 20"><path d="M13.62 20H5.86A5.87 5.87 0 0 1 0 14.14V5.86A5.87 5.87 0 0 1 5.86 0h7.75a5.87 5.87 0 0 1 5.86 5.86v8.27A5.87 5.87 0 0 1 13.62 20zM5.86 2.12a3.75 3.75 0 0 0-3.74 3.74v8.27a3.75 3.75 0 0 0 3.75 3.75h7.75a3.75 3.75 0 0 0 3.75-3.75V5.86a3.75 3.75 0 0 0-3.75-3.75z"/><path d="M9.74 15.53A5.56 5.56 0 0 1 4.18 10a5.65 5.65 0 0 1 1.7-4 5.32 5.32 0 0 1 3.9-1.58 5.73 5.73 0 0 1 4.13 1.69A5.38 5.38 0 0 1 15.3 10a5.68 5.68 0 0 1-1.64 3.9 5.47 5.47 0 0 1-3.92 1.63zM9.62 7a2.76 2.76 0 0 0-1.93.8 3 3 0 0 0-.92 2.2 3 3 0 1 0 5.94 0A2.9 2.9 0 0 0 12 7.88 3.22 3.22 0 0 0 9.7 7z"/><circle cx="14.99" cy="4.7" r="1.2"/></symbol><symbol id="icon_login" viewBox="0 0 19.5 17"><path id="_Контур_" class="cls-1" d="M.5 8.5h11.08"/><g id="_Группа_"><path id="_Контур_2" class="cls-1" d="M8.99 5.91l2.59 2.59"/><path id="_Контур_3" class="cls-1" d="M8.99 11.09l2.59-2.59"/></g><g id="_Группа_2"><path id="_Контур_4" class="cls-1" d="M5.16.5H19"/><path id="_Контур_5" class="cls-1" d="M5.16 16.5H19"/><path id="_Контур_6" class="cls-1" d="M19 16.5V.5"/></g></symbol><symbol id="icon_magnifier" viewBox="0 0 17.31 17.5"><circle cx="6.81" cy="6.81" r="6.31" stroke-linecap="round" stroke-miterlimit="10"/><path stroke-linecap="round" stroke-miterlimit="10" d="M11.17 11.36L16.81 17"/></symbol><symbol id="icon_minus" viewBox="0 0 12 2"><path d="M11 2H1a1 1 0 0 1 0-2h10a1 1 0 0 1 0 2z"/></symbol><symbol id="icon_odnokl" viewBox="0 0 12.01 20"><path d="M5 14.09a7.78 7.78 0 0 1-4.13-1.48c-.15-.12-.3-.23-.44-.36a1.18 1.18 0 0 1-.16-1.67 1.18 1.18 0 0 1 1.57-.35 2.49 2.49 0 0 1 .34.2 6.8 6.8 0 0 0 7.53.07 2 2 0 0 1 .73-.38 1.15 1.15 0 0 1 1.32.53 1.12 1.12 0 0 1-.08 1.47 6.1 6.1 0 0 1-2.18 1.41 10.34 10.34 0 0 1-2.5.56l.27.29 3.46 3.47a1.15 1.15 0 0 1 .27 1.34 1.37 1.37 0 0 1-1.28.8 1.25 1.25 0 0 1-.81-.41 92.21 92.21 0 0 1-2.61-2.63c-.25-.26-.37-.21-.58 0-.87.9-1.76 1.79-2.66 2.67a1.11 1.11 0 0 1-1.34.24 1.36 1.36 0 0 1-.79-1.25 1.25 1.25 0 0 1 .42-.84l3.41-3.42.24-.26zm0 0" fill-rule="evenodd"/><path d="M6 10.12a5.06 5.06 0 1 1 5.09-5 5.06 5.06 0 0 1-5.09 5zm2.48-5.06A2.48 2.48 0 1 0 6 7.54a2.47 2.47 0 0 0 2.48-2.48zm0 0" fill-rule="evenodd"/></symbol><symbol id="icon_plus" viewBox="0 0 12 12"><path d="M11 5H7V1a1 1 0 0 0-2 0v4H1a1 1 0 0 0 0 2h4v4a1 1 0 1 0 2 0V7h4a1 1 0 1 0 0-2z"/></symbol><symbol id="icon_rouble" viewBox="0 0 10.76 12.39"><path d="M6.65 0c2.59 0 4.11 1.39 4.11 3.73 0 2.52-1.73 3.89-5.11 3.89H3.32v4.61a.14.14 0 0 1-.16.16H2.3a.14.14 0 0 1-.16-.16V.16A.14.14 0 0 1 2.3 0zm-1 6.54c2.61 0 3.89-1 3.89-2.81S8.45 1.08 6.65 1.08H3.32v5.46z"/><rect x="4.17" y="5.06" width="1.19" height="9.53" rx=".16" ry=".16" transform="rotate(90 4.765 9.825)"/></symbol><symbol id="icon_subscribe-type-default" viewBox="0 0 405.6 193.57"><path d="M404.52 60a4.83 4.83 0 0 0-5.08-1.61l-130.18 37-62.44-93.24a4.84 4.84 0 0 0-8 0l-62.48 93.22L6.17 58.35a4.84 4.84 0 0 0-5.61 6.93L67.09 191a4.83 4.83 0 0 0 4.28 2.58h262.86a4.83 4.83 0 0 0 4.28-2.58L405 65.28a4.84 4.84 0 0 0-.48-5.28zM207.64 20.77l51.83 77.38-51.83 14.74zm-9.68 0v92.12l-51.83-14.74zm-183.53 50l175.44 49.89-116.48 61.53zM90.9 183.89l111.9-59.11 111.9 59.11zm241.31-1.7l-116.48-61.53 175.45-49.89z"/></symbol><symbol id="icon_subscribe-type-express" viewBox="0 0 340.65 339.49"><path d="M141.71 94a5.4 5.4 0 0 0-4-5.12 8.53 8.53 0 0 0-2.23-.34c-1.76 0-3 .81-4.18 2.64L42.36 234.75c-1.56 2.49-1 4.06-.33 5.16 1.32 2.13 2.74 3 4.91 3h88.93a5.56 5.56 0 0 0 5.85-5.36zm-11.18 138.23H56.32l74.22-118z"/><path d="M48.47 337.4a4.91 4.91 0 0 0 4.4 2.09h235.24a5.87 5.87 0 0 0 4.51-2.24l46.89-64.88a4.46 4.46 0 0 0 .42-5.39l-.12-.25c-.9-2.08-2.29-2.93-4.7-2.93H169.54v-20.88h145.05c2.18 0 3.34-.73 4.43-2.8 1.52-2.89.94-4.49.18-5.67L168.67 2.62c-1.58-2.4-3.38-3.06-6.44-2.35a5.06 5.06 0 0 0-3.52 5.09V263.8H5.52c-2.14 0-3.62 1-4.79 3.15a4.49 4.49 0 0 0 .38 5.41zM169.54 24.5L305 232.23H169.54zM324.48 275l-39.09 53.8h-230L16.15 275z"/><path d="M127.09 296.6a6.78 6.78 0 0 0-5-2.23H122a7.36 7.36 0 0 0-5.27 2.27A7.36 7.36 0 1 0 127.18 307a7.31 7.31 0 0 0 2.28-5.32 6.82 6.82 0 0 0-2.25-5zm-23.25 0a6.82 6.82 0 0 0-5-2.23h-.08a7.34 7.34 0 0 0-5.25 2.27 7.36 7.36 0 1 0 10.42 10.41 7.31 7.31 0 0 0 2.28-5.33 6.82 6.82 0 0 0-2.25-5zm-28.39-2.2a7.13 7.13 0 0 0-5.18 2.23 7.59 7.59 0 0 0 0 10.44 7.49 7.49 0 0 0 10.41 0 7.61 7.61 0 0 0 0-10.45 7.12 7.12 0 0 0-5.23-2.22z"/></symbol><symbol id="icon_subscribe-type-turbo" viewBox="0 0 523.67 195.23"><path d="M523.43 74.63c0-.07 0-.13.05-.2s.06-.21.08-.32.05-.3.07-.46v-.08a5.48 5.48 0 0 0-.08-1.64c0-.11-.05-.22-.08-.33s0-.12 0-.19-.08-.24-.13-.36l-.05-.14c0-.11-.1-.22-.15-.33l-.08-.16-.16-.27-.12-.2-.14-.2-.18-.24-.12-.14-.23-.26-.12-.11-.27-.25-.17-.13-.25-.19a5.48 5.48 0 0 0-1.48-.71h-.11l-.41-.1-.38-.06h-.15a5.47 5.47 0 0 0-.59 0H389.06L348 2.56a5.5 5.5 0 0 0-5.46-2.5L141.21 30a5.5 5.5 0 0 0-4.35 3.53l-12.6 34h-6.82a5.5 5.5 0 0 0-5.28 4l-6.42 22-55.27-.23a5.55 5.55 0 0 0-4.3 2l-11.5 14.27L16 132.2a5.62 5.62 0 0 0-.4.55L1.25 150.13a5.5 5.5 0 0 0-.25 6.73l26 35.89a5.5 5.5 0 0 0 4.48 2.25c2.29 0 230.57-.09 342.43.21 24.17 0 58.41-16.87 75.53-28.2 21-13.88 51.41-38.51 73.79-91.84a5.47 5.47 0 0 0 .2-.54zM146 40.38l194.63-28.91 35.42 56.07h-29.13l-16.45-30.85a5.5 5.5 0 0 0-5.68-2.85L240.6 46.69a5.5 5.5 0 0 0-4.36 3.61l-6.09 17.25H136zm188.46 27.16h-92.64l3.7-10.48L322.6 45.3zm39.46 116.69c-105.1-.28-313-.22-339.63-.21l-19.37-26.75h153.82c93.64 0 191.35 0 275.8-.23l-1.18.79c-29.01 19.24-58 26.4-69.44 26.4zM459.4 146c-130.7.31-297 .27-430.74.24h-10l24.46-29.69 9.87-12.21 56.77.21a5.5 5.5 0 0 0 5.28-4l6.42-22h388.28c-15.4 33.5-34.07 54.04-50.34 67.45z"/></symbol><symbol id="icon_subscribe" viewBox="0 0 29.08 20"><path class="cls-1" d="M19.08 19.5l9.5-9.5M19.08.5l9.5 9.5m-.75 0H.5"/></symbol><symbol id="icon_tw" viewBox="0 0 24.12 20.68"><path d="M21.66 5.89v-.68a10 10 0 0 0 2.48-2.65 9.45 9.45 0 0 1-2.84.78A5 5 0 0 0 23.45.5a9.44 9.44 0 0 1-3.14 1.2A4.91 4.91 0 0 0 16.7 0a5 5 0 0 0-4.95 5.16 5.29 5.29 0 0 0 .13 1.19A13.92 13.92 0 0 1 1.68.72 5.46 5.46 0 0 0 1 3.36a5.43 5.43 0 0 0 2.21 4.42A4.75 4.75 0 0 1 1 7.1v.07a5.27 5.27 0 0 0 4 5.21 4.82 4.82 0 0 1-1.3.18 4.79 4.79 0 0 1-.93-.11 5 5 0 0 0 4.62 3.69 9.55 9.55 0 0 1-6.14 2.24A9.62 9.62 0 0 1 0 18.29a13.28 13.28 0 0 0 7.59 2.38c9.1 0 14.08-7.92 14.08-14.79zm0 0" fill-rule="evenodd"/></symbol><symbol id="icon_vk" viewBox="0 0 22 12.55"><path d="M21.88 11.34l-.07-.14a11.41 11.41 0 0 0-2.19-2.53q-.73-.7-.93-.94a.88.88 0 0 1-.16-.93 8.65 8.65 0 0 1 1-1.5l.74-1q2-2.64 1.72-3.37L21.9.79a.67.67 0 0 0-.35-.19 1.79 1.79 0 0 0-.73 0h-3.3a.43.43 0 0 0-.23 0h-.21a.5.5 0 0 0-.13.12.79.79 0 0 0-.11.2 18.73 18.73 0 0 1-1.27 2.68q-.42.71-.78 1.23a6 6 0 0 1-.6.77 4.12 4.12 0 0 1-.44.39c-.13.1-.23.14-.3.13h-.19a.75.75 0 0 1-.26-.33 1.25 1.25 0 0 1-.13-.45V1.46a2.64 2.64 0 0 0 0-.52 1.77 1.77 0 0 0-.12-.37.61.61 0 0 0-.23-.27 1.32 1.32 0 0 0-.38-.16A7.68 7.68 0 0 0 10.58 0a7.52 7.52 0 0 0-2.73.28 1.54 1.54 0 0 0-.44.34q-.2.25-.06.28a1.41 1.41 0 0 1 1 .49l.07.14a2.16 2.16 0 0 1 .16.53 5.29 5.29 0 0 1 .1.84 8.83 8.83 0 0 1 0 1.43q-.06.59-.11.93a1.86 1.86 0 0 1-.15.54 2.18 2.18 0 0 1-.16.2l-.06.1a.85.85 0 0 1-.31.06A.73.73 0 0 1 7.5 6a2.75 2.75 0 0 1-.5-.45 5.89 5.89 0 0 1-.56-.78q-.31-.5-.64-1.19l-.18-.33q-.17-.32-.47-.93t-.5-1.2a.76.76 0 0 0-.27-.36h-.06L4.14.63a1.22 1.22 0 0 0-.27-.08L.73.57a.8.8 0 0 0-.65.22L0 .86A.37.37 0 0 0 0 1a.91.91 0 0 0 .07.31Q.76 3 1.56 4.47T3 6.89q.6.92 1.21 1.73t.82 1l.32.34.29.28a6.73 6.73 0 0 0 .81.66 13.76 13.76 0 0 0 1.18.76 6.41 6.41 0 0 0 1.51.61 5.19 5.19 0 0 0 1.67.19h1.32a.91.91 0 0 0 .61-.25v-.06a.76.76 0 0 0 .09-.21 1.16 1.16 0 0 0 0-.31 3.8 3.8 0 0 1 .07-.89 2.33 2.33 0 0 1 .2-.6 1.44 1.44 0 0 1 .25-.34 1 1 0 0 1 .19-.17h.09a.73.73 0 0 1 .65.18 3.84 3.84 0 0 1 .7.66q.33.4.78.89a5.47 5.47 0 0 0 .8.73l.23.14a2.77 2.77 0 0 0 .6.25 1.28 1.28 0 0 0 .64.06h2.93a1.33 1.33 0 0 0 .68-.14.57.57 0 0 0 .36-.4.89.89 0 0 0 0-.39 1.49 1.49 0 0 0-.08-.3zm0 0"/></symbol><symbol id="icon_win-share" viewBox="0 0 90 90"><path d="M18.373 8.481C24.043 6.22 29.017 5.084 33.569 5c2.39 0 4.646.257 6.785.754 3.256.831 7.762 3.271 9.479 4.251l-8.152 27.759c-4.154-2.649-9.167-5.222-15.946-5.291h-.006c-4.521 0-9.433 1.041-15.125 3.178l7.769-27.17zM31.14 75.052c2.016-6.815 6.857-23.274 8.302-28.194a72.599 72.599 0 0 0-3.209-1.864c-4.195-2.145-8.271-3.232-12.12-3.232-.522 0-1.046.016-1.576.062-4.912.404-9.395 1.695-12.283 2.697a73.76 73.76 0 0 0-2.357.901L0 72.658c5.427-1.998 10.222-2.969 14.617-2.969 7.106 0 12.26 2.643 16.523 5.363zm48.076-20.299c-5.153 1.655-10.096 2.494-14.719 2.494-8.433 0-14.337-2.72-18.062-5.331l-7.948 27.48C40.846 80.74 48.777 85 54.854 85c4.904 0 10.394-1.252 16.772-3.832l7.59-26.415zM90 17.543c-5.17 1.998-10.214 3.016-15.032 3.016-8.058 0-14-2.781-17.85-5.455L49.036 42.94c5.428 3.474 11.276 5.237 17.414 5.237 5.005 0 10.188-1.196 15.421-3.559l-.016-.193.328-.079L90 17.543z"/></symbol><symbol id="icon_ya-share" viewBox="0 0 320 320"><path d="M227.184 0h-45.466c-46.063 0-92.541 34.014-92.541 110.004 0 39.361 16.683 70.017 47.263 87.451L80.468 298.762c-2.653 4.791-2.722 10.221-.185 14.525C82.76 317.49 87.288 320 92.395 320h28.311c6.432 0 11.448-3.109 13.852-8.555L187.037 208.8h3.83v98.407c0 6.935 5.852 12.793 12.778 12.793h24.735c7.767 0 13.191-5.424 13.191-13.19V14.002C241.572 5.758 235.656 0 227.184 0zm-36.316 163.204h-6.756c-26.197 0-41.837-21.384-41.837-57.202 0-44.537 19.757-60.405 38.247-60.405h10.346v117.607z"/></symbol><symbol id="icon_yt" viewBox="0 0 21.35 15.5"><path d="M21.27 4.41v-.18A4.52 4.52 0 0 0 16.89.06L14 0H4.39A4.47 4.47 0 0 0 .08 4.24v.17A96.59 96.59 0 0 0 .07 11v.18a4.49 4.49 0 0 0 4.34 4.19l3 .06h6.61l2.89-.06a4.54 4.54 0 0 0 4.37-4.19V11c.1-1.78.1-4.76-.01-6.59zm-1.81 6.54v.18a2.73 2.73 0 0 1-2.59 2.48l-2.87.05H7.45l-3-.06a2.64 2.64 0 0 1-2.56-2.47V11c-.09-1.78-.09-4.68 0-6.46v-.21a2.63 2.63 0 0 1 2.56-2.46H16.9a2.67 2.67 0 0 1 2.59 2.47v.18c.07 1.77.07 4.66-.03 6.43z"/><path d="M14.29 6.74L9.08 4a.91.91 0 0 0-1.33.8v5.46a.91.91 0 0 0 1.33.8l5.21-2.73a.9.9 0 0 0 0-1.6zm-2.37.8L9.57 8.77V6.31z"/></symbol></svg>