<svg xmlns="http://www.w3.org/2000/svg">
    <symbol id="icon_blackidea" viewBox="0 0 350 43.83">
      <title>blackidea</title><path d="M215.93,42.8H203.14V1h12.79Z" fill="#fff"/><path d="M241.11,1c12.79,0,21.07,7.74,21.07,20.77,0,13.9-7.63,21-21.29,21H222.47V1ZM235,32.24h5c6.28,0,9.38-3.94,9.38-10.21,0-7.1-4-10.5-10.62-10.5H235Z" fill="#fff"/><path d="M302.27,11.17h-22v5.22h20v9.68h-20v6.1h22.59V42.79h-35.2V1h34.62Z" fill="#fff"/><path d="M321.54,36.85l-2.05,5.93h-13L321.94,1h12.68L350,42.77H337L335,36.85l-2.82-9c-.77-2.41-2.23-7.16-2.23-7.16a56.66,56.66,0,0,1-1.59-6.34c-.7,2.88-.93,3.82-1.76,6.4,0,0-.88,2.87-2.29,7.1Z" fill="#fff"/><path d="M21.06,1.09C28,1.08,35.91,2.9,35.91,11.52c0,4.11-2,6.51-5.22,8.39C35.38,21.56,38,24.78,38,30.18c0,9.8-7.86,12.67-16,12.68H0V1.09ZM12.44,17h7.22c2.4,0,3.87-1.17,3.87-3.17,0-2.17-1.46-3.28-4.46-3.28H12.44Zm0,15.9h7.92c3.23,0,4.87-1.29,4.87-3.87s-1.7-4-4.87-4H12.44Z" fill="#fff"/><path d="M132.34,43.83c-12.79,0-20.95-9.62-21-22S119.89,0,132.57,0c10.2,0,18.36,7.1,19,16.48H139.09c-.71-3.76-3.11-5.87-6.75-5.87-6,0-8,6-8,11.21,0,6.92,3.05,11.2,8,11.2,3.75,0,6.1-2.35,6.75-6.69H151.7C150.94,37.9,142.49,43.82,132.34,43.83Z" fill="#fff"/><path d="M181.33,17.27l17.55,25.52h-16L172.65,26.54l-3.75,3.94V42.79H156.3V1H169l-.06,8.45c0,4-.06,2.76-.17,6.4L180.63,1h15.84Z" fill="#fff"/><path d="M97.56,1.07H84.88L73.49,31.93H55V1.08H42.16V42.85H82.42l2.06-5.92,2.75-9c1.41-4.23,2.29-7.1,2.29-7.1.82-2.58,1.05-3.52,1.76-6.4a54.91,54.91,0,0,0,1.58,6.34s1.47,4.74,2.23,7.16l2.82,9L100,42.84h13Z" fill="#fff"/>
    </symbol>
    <symbol id="icon_burger" viewBox="0 0 32 25">
      <title>burger</title><rect width="32" height="3" rx="1.5" ry="1.5"/><rect y="10.97" width="32" height="3" rx="1.5" ry="1.5"/><rect y="22" width="32" height="3" rx="1.5" ry="1.5"/>
    </symbol>
    <symbol id="icon_caret" viewBox="0 0 11 6">
      <title>caret</title><line x1="0.5" y1="0.5" x2="5.5" y2="5.5" fill="none" stroke="#000" stroke-linecap="round" stroke-miterlimit="10"/><line x1="10.5" y1="0.5" x2="5.5" y2="5.5" fill="none" stroke="#000" stroke-linecap="round" stroke-miterlimit="10"/>
    </symbol>
    <symbol id="icon_chevron" viewBox="0 0 512 512">
       <g> <g> <path d="M509.121,125.966c-3.838-3.838-10.055-3.838-13.893,0L256.005,365.194L16.771,125.966c-3.838-3.838-10.055-3.838-13.893,0
			c-3.838,3.838-3.838,10.055,0,13.893l246.18,246.175c1.842,1.842,4.337,2.878,6.947,2.878c2.61,0,5.104-1.036,6.946-2.878
			l246.17-246.175C512.959,136.021,512.959,129.804,509.121,125.966z"/> </g> </g>                
    </symbol>
    <symbol id="icon_close" viewBox="0 0 23.51 23.51">
      <title>close</title><path d="M13.87,11.75l9.19-9.19A1.5,1.5,0,1,0,20.95.44L11.75,9.63,2.56.44A1.5,1.5,0,0,0,.44,2.56l9.19,9.19L.44,20.95a1.5,1.5,0,0,0,2.12,2.12l9.19-9.19,9.19,9.19a1.5,1.5,0,1,0,2.12-2.12Z"/>
    </symbol>
    <symbol id="icon_exclamation-point" viewBox="0 0 2.74 11.83">
      <title>exclamation-point</title><path d="M2.74,10.44a1.27,1.27,0,0,1-1.38,1.39A1.27,1.27,0,0,1,0,10.44,1.26,1.26,0,0,1,1.36,9,1.27,1.27,0,0,1,2.74,10.44ZM2.56,3c0,1.08-.33,2.92-.41,4.11,0,.13-.06.2-.19.2H.63c-.14,0-.2-.06-.2-.2C.36,5.9,0,4.05,0,3V.2A.18.18,0,0,1,.22,0H2.37a.18.18,0,0,1,.2.2Z" fill="#fff"/>
    </symbol>
    <symbol id="icon_fb" viewBox="0 0 10.27 19">
      <title>facebook</title><path d="M9.89,0H7.42A4.33,4.33,0,0,0,2.86,4.68V6.83H.39A.39.39,0,0,0,0,7.22v3.12a.39.39,0,0,0,.39.39H2.86v7.88a.39.39,0,0,0,.39.39H6.48a.39.39,0,0,0,.39-.39V10.73h2.9a.39.39,0,0,0,.39-.39V7.22A.39.39,0,0,0,10,6.95a.39.39,0,0,0-.27-.11H6.87V5c0-.88.21-1.32,1.35-1.32H9.89a.39.39,0,0,0,.39-.39V.39A.39.39,0,0,0,9.89,0Zm0,0"/>
    </symbol>
    <symbol id="icon_go" viewBox="0 0 26.42 16.78">
      <title>google_plus</title><path d="M0,8A8.37,8.37,0,0,1,8.39,0,8.5,8.5,0,0,1,14,2.08a29.87,29.87,0,0,1-2.13,2.2C10,3,7.25,2.59,5.34,4.11a5.37,5.37,0,0,0-.23,8.37c2.55,2.32,7.38,1.17,8.08-2.38-1.6,0-3.2,0-4.8-.05,0-1,0-1.91,0-2.86,2.67,0,5.34,0,8,0a9.62,9.62,0,0,1-1.51,6.49c-2.09,2.94-6.28,3.79-9.55,2.54A8.4,8.4,0,0,1,0,8Z" fill="#fff"/><path d="M21.62,4.78H24c0,.8,0,1.6,0,2.4l2.4,0V9.58L24,9.6q0,1.2,0,2.4H21.62c0-.8,0-1.59,0-2.39l-2.4,0V7.19l2.4,0Q21.61,6,21.62,4.78Z" fill="#fff"/>
    </symbol>
    <symbol id="icon_insta" viewBox="0 0 19.48 20">
      <title>instagram</title><path d="M13.62,20H5.86A5.87,5.87,0,0,1,0,14.14V5.86A5.87,5.87,0,0,1,5.86,0h7.75a5.87,5.87,0,0,1,5.86,5.86v8.27A5.87,5.87,0,0,1,13.62,20ZM5.86,2.12A3.75,3.75,0,0,0,2.12,5.86v8.27a3.75,3.75,0,0,0,3.75,3.75h7.75a3.75,3.75,0,0,0,3.75-3.75V5.86a3.75,3.75,0,0,0-3.75-3.75Z"/><path d="M9.74,15.53A5.56,5.56,0,0,1,4.18,10a5.65,5.65,0,0,1,1.7-4A5.32,5.32,0,0,1,9.78,4.42a5.73,5.73,0,0,1,4.13,1.69A5.38,5.38,0,0,1,15.3,10h0a5.68,5.68,0,0,1-1.64,3.9A5.47,5.47,0,0,1,9.74,15.53ZM9.62,7a2.76,2.76,0,0,0-1.93.8A3,3,0,0,0,6.77,10a3,3,0,1,0,5.94,0A2.9,2.9,0,0,0,12,7.88,3.22,3.22,0,0,0,9.7,7Z"/><circle cx="14.99" cy="4.7" r="1.2"/>
    </symbol>
    <symbol id="icon_login" viewBox="0 0 19.5 17">
      <title>login</title><line id="_&#x41A;&#x43E;&#x43D;&#x442;&#x443;&#x440;_" data-name="&lt;&#x41A;&#x43E;&#x43D;&#x442;&#x443;&#x440;&gt;" class="cls-1" x1="0.5" y1="8.5" x2="11.58" y2="8.5"/><g id="_&#x413;&#x440;&#x443;&#x43F;&#x43F;&#x430;_" data-name="&lt;&#x413;&#x440;&#x443;&#x43F;&#x43F;&#x430;&gt;"><line id="_&#x41A;&#x43E;&#x43D;&#x442;&#x443;&#x440;_2" data-name="&lt;&#x41A;&#x43E;&#x43D;&#x442;&#x443;&#x440;&gt;" class="cls-1" x1="8.99" y1="5.91" x2="11.58" y2="8.5"/><line id="_&#x41A;&#x43E;&#x43D;&#x442;&#x443;&#x440;_3" data-name="&lt;&#x41A;&#x43E;&#x43D;&#x442;&#x443;&#x440;&gt;" class="cls-1" x1="8.99" y1="11.09" x2="11.58" y2="8.5"/></g><g id="_&#x413;&#x440;&#x443;&#x43F;&#x43F;&#x430;_2" data-name="&lt;&#x413;&#x440;&#x443;&#x43F;&#x43F;&#x430;&gt;"><line id="_&#x41A;&#x43E;&#x43D;&#x442;&#x443;&#x440;_4" data-name="&lt;&#x41A;&#x43E;&#x43D;&#x442;&#x443;&#x440;&gt;" class="cls-1" x1="5.16" y1="0.5" x2="19" y2="0.5"/><line id="_&#x41A;&#x43E;&#x43D;&#x442;&#x443;&#x440;_5" data-name="&lt;&#x41A;&#x43E;&#x43D;&#x442;&#x443;&#x440;&gt;" class="cls-1" x1="5.16" y1="16.5" x2="19" y2="16.5"/><line id="_&#x41A;&#x43E;&#x43D;&#x442;&#x443;&#x440;_6" data-name="&lt;&#x41A;&#x43E;&#x43D;&#x442;&#x443;&#x440;&gt;" class="cls-1" x1="19" y1="16.5" x2="19" y2="0.5"/></g>
    </symbol>
    <symbol id="icon_magnifier" viewBox="0 0 17.31 17.5">
      <title>magnifier</title><circle cx="6.81" cy="6.81" r="6.31" fill="none" stroke="#000" stroke-linecap="round" stroke-miterlimit="10"/><line x1="11.17" y1="11.36" x2="16.81" y2="17" fill="none" stroke="#000" stroke-linecap="round" stroke-miterlimit="10"/>
    </symbol>
    <symbol id="icon_odnokl" viewBox="0 0 12.01 20">
      <title>odnoklassniki</title><path d="M5,14.09A7.78,7.78,0,0,1,.87,12.61c-.15-.12-.3-.23-.44-.36a1.18,1.18,0,0,1-.16-1.67,1.18,1.18,0,0,1,1.57-.35,2.49,2.49,0,0,1,.34.2,6.8,6.8,0,0,0,7.53.07,2,2,0,0,1,.73-.38,1.15,1.15,0,0,1,1.32.53,1.12,1.12,0,0,1-.08,1.47A6.1,6.1,0,0,1,9.5,13.53,10.34,10.34,0,0,1,7,14.09l.27.29,3.46,3.47A1.15,1.15,0,0,1,11,19.19a1.37,1.37,0,0,1-1.28.8,1.25,1.25,0,0,1-.81-.41C8,18.7,7.15,17.84,6.3,16.95c-.25-.26-.37-.21-.58,0-.87.9-1.76,1.79-2.66,2.67a1.11,1.11,0,0,1-1.34.24,1.36,1.36,0,0,1-.79-1.25,1.25,1.25,0,0,1,.42-.84l3.41-3.42L5,14.09Zm0,0" fill-rule="evenodd"/><path d="M6,10.12a5.06,5.06,0,1,1,5.09-5,5.06,5.06,0,0,1-5.09,5ZM8.48,5.06A2.48,2.48,0,1,0,6,7.54,2.47,2.47,0,0,0,8.48,5.06Zm0,0" fill-rule="evenodd"/>
    </symbol>
    <symbol id="icon_rouble" viewBox="0 0 10.76 12.39">
      <title>rouble</title><path d="M6.65,0c2.59,0,4.11,1.39,4.11,3.73,0,2.52-1.73,3.89-5.11,3.89H3.32v4.61a.14.14,0,0,1-.16.16H2.3a.14.14,0,0,1-.16-.16V.16A.14.14,0,0,1,2.3,0Zm-1,6.54c2.61,0,3.89-1,3.89-2.81S8.45,1.08,6.65,1.08H3.32V6.54Z"/><rect x="4.17" y="5.06" width="1.19" height="9.53" rx="0.16" ry="0.16" transform="translate(14.59 5.06) rotate(90)"/>
    </symbol>
    <symbol id="icon_subscribe" viewBox="0 0 29.08 20">
      <title>subscribe</title><line class="cls-1" x1="19.08" y1="19.5" x2="28.58" y2="10"/><line class="cls-1" x1="19.08" y1="0.5" x2="28.58" y2="10"/><line class="cls-1" x1="27.83" y1="10" x2="0.5" y2="10"/>
    </symbol>
    <symbol id="icon_tw" viewBox="0 0 24.12 20.68">
      <title>twitter</title><path d="M21.66,5.89c0-.23,0-.45,0-.68a10,10,0,0,0,2.48-2.65,9.45,9.45,0,0,1-2.84.78A5,5,0,0,0,23.45.5a9.44,9.44,0,0,1-3.14,1.2A4.91,4.91,0,0,0,16.7,0a5,5,0,0,0-4.95,5.16,5.29,5.29,0,0,0,.13,1.19A13.92,13.92,0,0,1,1.68.72,5.46,5.46,0,0,0,1,3.36,5.43,5.43,0,0,0,3.21,7.78,4.75,4.75,0,0,1,1,7.1v.07a5.27,5.27,0,0,0,4,5.21,4.82,4.82,0,0,1-1.3.18,4.79,4.79,0,0,1-.93-.11,5,5,0,0,0,4.62,3.69,9.55,9.55,0,0,1-6.14,2.24A9.62,9.62,0,0,1,0,18.29a13.28,13.28,0,0,0,7.59,2.38c9.1,0,14.08-7.92,14.08-14.79Zm0,0" fill="#fff" fill-rule="evenodd"/>
    </symbol>
    <symbol id="icon_vk" viewBox="0 0 22 12.55">
      <title>vkontakte</title><path d="M21.88,11.34l-.07-.14a11.41,11.41,0,0,0-2.19-2.53l0,0h0q-.73-.7-.93-.94a.88.88,0,0,1-.16-.93,8.65,8.65,0,0,1,1-1.5l.74-1q2-2.64,1.72-3.37L21.9.79A.67.67,0,0,0,21.55.6a1.79,1.79,0,0,0-.73,0l-3.3,0a.43.43,0,0,0-.23,0l-.15,0-.06,0,0,0a.5.5,0,0,0-.13.12.79.79,0,0,0-.11.2A18.73,18.73,0,0,1,15.57,3.6q-.42.71-.78,1.23a6,6,0,0,1-.6.77,4.12,4.12,0,0,1-.44.39c-.13.1-.23.14-.3.13l-.19,0A.75.75,0,0,1,13,5.79a1.25,1.25,0,0,1-.13-.45q0-.27,0-.46c0-.13,0-.31,0-.55s0-.4,0-.48q0-.44,0-.95t0-.81q0-.3,0-.63a2.64,2.64,0,0,0,0-.52,1.77,1.77,0,0,0-.12-.37.61.61,0,0,0-.23-.27,1.32,1.32,0,0,0-.38-.16A7.68,7.68,0,0,0,10.58,0,7.52,7.52,0,0,0,7.85.28a1.54,1.54,0,0,0-.44.34Q7.21.87,7.35.9a1.41,1.41,0,0,1,1,.49l.07.14a2.16,2.16,0,0,1,.16.53,5.29,5.29,0,0,1,.1.84,8.83,8.83,0,0,1,0,1.43q-.06.59-.11.93a1.86,1.86,0,0,1-.15.54A2.18,2.18,0,0,1,8.26,6L8.2,6.1a.85.85,0,0,1-.31.06A.73.73,0,0,1,7.5,6,2.75,2.75,0,0,1,7,5.55a5.89,5.89,0,0,1-.56-.78q-.31-.5-.64-1.19l-.18-.33q-.17-.32-.47-.93T4.65,1.12A.76.76,0,0,0,4.38.76l-.06,0L4.14.63A1.22,1.22,0,0,0,3.87.55L.73.57A.8.8,0,0,0,.08.79L0,.86A.37.37,0,0,0,0,1a.91.91,0,0,0,.07.31Q.76,3,1.56,4.47T3,6.89q.6.92,1.21,1.73t.82,1l.32.34.29.28a6.73,6.73,0,0,0,.81.66,13.76,13.76,0,0,0,1.18.76,6.41,6.41,0,0,0,1.51.61,5.19,5.19,0,0,0,1.67.19h1.32a.91.91,0,0,0,.61-.25l0-.06a.76.76,0,0,0,.09-.21,1.16,1.16,0,0,0,0-.31,3.8,3.8,0,0,1,.07-.89,2.33,2.33,0,0,1,.2-.6,1.44,1.44,0,0,1,.25-.34,1,1,0,0,1,.19-.17l.09,0a.73.73,0,0,1,.65.18,3.84,3.84,0,0,1,.7.66q.33.4.78.89a5.47,5.47,0,0,0,.8.73l.23.14a2.77,2.77,0,0,0,.6.25,1.28,1.28,0,0,0,.64.06l2.93,0a1.33,1.33,0,0,0,.68-.14A.57.57,0,0,0,22,12a.89.89,0,0,0,0-.39,1.49,1.49,0,0,0-.08-.3Zm0,0"/>
    </symbol>
    <symbol id="icon_yt" viewBox="0 0 21.35 15.5">
      <title>youtube</title><path d="M21.27,4.41V4.23A4.52,4.52,0,0,0,16.89.06L14,0c-1.9,0-4.87,0-6.61,0l-3,0A4.47,4.47,0,0,0,.08,4.24v.17C0,6.25,0,9.22.07,11v.18a4.49,4.49,0,0,0,4.34,4.19l3,.06,3.29,0,3.32,0,2.89-.06a4.54,4.54,0,0,0,4.37-4.19v-.18C21.38,9.22,21.38,6.24,21.27,4.41Zm-1.81,6.54v.18a2.73,2.73,0,0,1-2.59,2.48L14,13.66c-1.8,0-4.74,0-6.55,0l-3-.06a2.64,2.64,0,0,1-2.56-2.47V11c-.09-1.78-.09-4.68,0-6.46V4.33A2.63,2.63,0,0,1,4.45,1.87l3,0,3.23,0,3.32,0,2.9,0a2.67,2.67,0,0,1,2.59,2.47v.18C19.56,6.29,19.56,9.18,19.46,10.95Z" fill="#fff"/><path d="M14.29,6.74,9.08,4a.91.91,0,0,0-1.33.8v5.46a.91.91,0,0,0,1.33.8l5.21-2.73a.9.9,0,0,0,0-1.6Zm-2.37.8L9.57,8.77V6.31Z" fill="#fff"/>
    </symbol></svg>