<svg xmlns="http://www.w3.org/2000/svg"><symbol id="icon_ac-shop1" viewBox="-118.6 95.5 543.6 627"><path d="M-118.6 688.1c0 19.3 15.1 34.4 34.4 34.4h474.8c19 0 34.4-15.9 34.4-35.4V129.9c0-9.2-3.5-17.9-10-24.4-6.4-6.4-15.1-10-24.3-10H-84.2c-19.3 0-34.4 15.1-34.4 34.4v558.2zm15.8-558.2c0-10.4 8.2-18.6 18.6-18.6h474.8c10.4 0 18.6 8.2 18.6 18.6V685l.1 2c0 10.4-8.2 18.6-18.6 18.6H-84.2c-10.4 0-18.6-8.2-18.6-18.6V129.9z"/><path d="M47 160.5h-85c-5.3 0-9.6 4.3-9.6 9.6v85c0 5.3 4.3 9.6 9.6 9.6h85c5.3 0 9.6-4.3 9.6-9.6v-85c0-5.3-4.3-9.6-9.6-9.6zM40.8 242c0 3.8-3.1 6.9-6.9 6.9h-57.7c-3.8 0-6.9-3.1-6.9-6.9v-57.7c0-3.8 3.1-6.9 6.9-6.9h57.7c3.8 0 6.9 3.1 6.9 6.9V242zm304.7 388.2H-39.2c-4.6 0-8.4 3.8-8.4 8.4s3.8 8.4 8.4 8.4h384.7c4.6 0 8.4-3.8 8.4-8.4s-3.7-8.4-8.4-8.4zm0-469.7H121.2c-4.6 0-8.4 3.8-8.4 8.4s3.8 8.4 8.4 8.4h224.3c4.6 0 8.4-3.8 8.4-8.4s-3.7-8.4-8.4-8.4zm0 75.3H121.2c-4.6 0-8.4 3.8-8.4 8.4s3.8 8.4 8.4 8.4h224.3c4.6 0 8.4-3.8 8.4-8.4s-3.7-8.4-8.4-8.4zm-16.3 95.6c5.4 0 9.7 4.4 9.7 9.7v214.8c0 5.4-4.4 9.7-9.7 9.7H-22.9c-5.4 0-9.7-4.4-9.7-9.7V341.1c0-5.4 4.4-9.7 9.7-9.7h352.1m0-17H-22.9c-14.8 0-26.7 12-26.7 26.7v214.8c0 14.8 12 26.7 26.7 26.7h352.1c14.8 0 26.7-12 26.7-26.7V341.1c0-14.8-11.9-26.7-26.7-26.7z"/></symbol><symbol id="icon_ac-shop2" viewBox="0 0 166.3 181.6"><path d="M127.6 15.7l-.3.3-.6.5L51 92.3c-.4.4-.7.9-.8 1.4l-6.5 25.2c-.3 1 0 2.2.8 2.9.8.8 1.9 1.1 2.9.8l25.2-6.5c.5-.1 1-.4 1.4-.8l91.5-91.5c1.2-1.2 1.2-3.1 0-4.3L146.8.9c-1.1-1.1-3.2-1.1-4.3 0l-14.9 14.8zm17-8.4l14.3 14.3-11 11-14.3-14.3 11-11zm-1 29.7l-73.4 73.4-19.3 5 5-19.3.1-.1 73.2-73.2L143.6 37z"/><path d="M96.7 17.9h-78C8.4 17.9 0 26.3 0 36.6v126.3c0 10.3 8.4 18.7 18.7 18.7h128.9c10.3 0 18.7-8.4 18.7-18.7V55.1c0-1.5-1-2.8-2.4-3.1-.9-.2-1.8 0-2.6.6-.7.6-1.1 1.4-1.1 2.4v104c0 9-7.4 16.4-16.4 16.4H22.5c-9 0-16.4-7.4-16.4-16.4V40.4c0-9 7.4-16.4 16.4-16.4h74.1c1.5 0 2.8-1 3.1-2.4.2-.9 0-1.8-.6-2.6-.6-.7-1.5-1.1-2.4-1.1z"/></symbol><symbol id="icon_ac-shop3" viewBox="-49 141 512 512"><path d="M53.1 589.4c-2.6 3.4-1.9 8.3 1.6 10.9C98.9 633.5 151.6 651 207 651c140.1 0 254-113.9 254-254 0-47.6-13.3-94.1-38.4-134.3-2.3-3.6-7.1-4.7-10.7-2.5-1.8 1.1-3 2.8-3.5 4.8s-.1 4.1 1 5.9c23.5 37.7 36 81.3 36 126 0 131.5-107 238.5-238.5 238.5-52.1 0-101.5-16.5-143-47.6-1.4-1-3-1.6-4.7-1.6-.4 0-.7 0-1.1.1-1.9.3-3.7 1.4-5 3.1z"/><path d="M82 507.9h102.3c4.3 0 7.8-3.5 7.8-7.8s-3.5-7.8-7.8-7.8h-83.5l52.9-52.9c24.8-24.8 38.4-57.8 38.4-92.8 0-32.5-26.4-58.9-58.9-58.9s-58.9 26.4-58.9 58.9c0 4.3 3.5 7.8 7.8 7.8s7.8-3.5 7.8-7.8c0-23.9 19.5-43.4 43.4-43.4s43.4 19.5 43.4 43.4c0 30.9-12 60-33.9 81.8l-66.1 66.1c-2.2 2.2-2.9 5.6-1.7 8.5 1 3.1 3.8 4.9 7 4.9zm222.2 0c4.3 0 7.8-3.5 7.8-7.8v-59.3h29c4.3 0 7.8-3.5 7.8-7.8s-3.5-7.8-7.8-7.8h-29.1v-17.8c0-4.3-3.5-7.8-7.8-7.8s-7.8 3.5-7.8 7.8v17.8h-60.6l60.6-101.5v51.1c0 4.3 3.5 7.8 7.8 7.8s7.8-3.5 7.8-7.8v-79.3c0-2.8-1.4-5.3-3.8-6.6-1.2-.7-2.6-1.1-4-1.1-2.6 0-5.2 1.4-6.7 3.8l-82.1 137.5c-1.4 2.4-1.5 5.4-.1 7.8 1.4 2.4 4 3.9 6.8 3.9h74.3v59.3c.1 4.4 3.6 7.8 7.9 7.8z"/><path d="M345.5 238.7h.2l42.3-1c4.3-.1 7.7-3.7 7.6-8l-1-42.3c-.1-4.3-3.6-7.7-8-7.6-4.3.1-7.7 3.7-7.6 8l.5 22.9-3.4-3.1c-19.5-17.5-41.6-31.8-65.6-42.5-32.7-14.6-67.5-22-103.5-22C66.9 143-47 256.9-47 397c0 68.8 27 133.2 76.1 181.3 1.5 1.4 3.4 2.2 5.4 2.2 2.1 0 4.1-.8 5.5-2.3 1.5-1.5 2.2-3.4 2.2-5.5s-.8-4-2.3-5.5C-6.1 522-31.5 461.6-31.5 397c0-131.5 107-238.5 238.5-238.5 58.6 0 115 21.5 158.8 60.6l3.8 3.4-24.3.6c-4.3.1-7.7 3.7-7.6 8 .1 4.2 3.6 7.6 7.8 7.6z"/></symbol><symbol id="icon_ac-shop4" viewBox="0 0 409.6 409.6"><path d="M104.8 353.9c1.2 1 2.7 1.4 4.2 1.4 2 0 4.1-.9 5.4-2.7 5.5-7.2 8.5-15.8 8.5-24.9 0-8.6-2.6-16.8-7.6-23.8-2.2-3.1-6.5-3.8-9.5-1.6-3.1 2.2-3.8 6.5-1.6 9.5 3.3 4.6 5.1 10.1 5.1 15.9 0 6.1-2 11.8-5.6 16.6-2.4 3-1.9 7.3 1.1 9.6zm0 0"/><path d="M389.1 0c-8 0-16.5 7.1-17.8 8.2-.9.7-90 69.5-171.3 150.8-40.6 40.6-66.4 71.8-80.9 90.7-2.3 3-1.7 7.3 1.3 9.6s7.3 1.7 9.6-1.3c5.1-6.7 11.7-15 19.9-24.7 4.2 1.8 10.9 5.3 16 10.4 5.4 5.4 8.7 12 10.4 16.1-24.3 20.7-39.3 31-42.6 33.2h-.1c-.1.1-.2.2-.4.3-.1 0-.2.1-.2.1l-.2.2c-.6.4-1.1.9-1.6 1.5-.2.3-.4.7-.5 1-.2.4-.4.7-.5 1.1-.2.7-.2 1.3-.2 2v.4c.1 1.1.3 2.2 1 3.2 0 .1.1.1.1.1 3.6 7.2 5.5 15.6 5.5 24.6 0 25.4-18 47.9-42.8 53.3-2.8.6-45.5 7.9-78.6 13.4 5.6-33.1 12.8-75.9 13.5-78.7 5.5-24.8 27.9-42.7 53.3-42.7 13.1 0 25.8 4.7 35.7 13.3 2.8 2.5 7.2 2.2 9.6-.7 2.5-2.8 2.2-7.2-.7-9.6-12.4-10.7-28.2-16.6-44.7-16.6-31.8 0-59.8 22.5-66.6 53.4-1 4.3-13.7 80.2-15.2 88.8-.4 2.2.3 4.4 1.9 6 1.3 1.3 3 2 4.8 2 .4 0 .8 0 1.1-.1 8.6-1.5 84.4-14.2 88.7-15.2 31-6.8 53.5-34.9 53.5-66.7 0-9.3-1.7-18.1-4.9-26.1 12.9-9 50-36.7 105.3-92C331.8 128 400.6 38.9 401 38.3c1.4-1.6 8.6-10 8.6-18.2 0-10.9-9.2-20.1-20.5-20.1zm1.4 30c-.7.9-68.9 89.3-149.6 170-20.6 20.6-38.7 37.3-53.9 50.6-2.4-5-6.2-11.1-11.6-16.5-5.2-5.2-11.5-9-16.4-11.5 13.3-15.3 30-33.3 50.6-53.9C290.3 88 378.7 19.7 380 18.8c2.7-2.4 7.3-5.1 9.2-5.1 3.8 0 6.8 3.1 6.8 6.8-.1 1.9-2.7 6.4-5.5 9.5zm0 0"/></symbol><symbol id="icon_acc-msg" viewBox="0 0 24.19 17.19"><path d="M4050.58 2272.25a.39.39 0 0 1-.27-.11l-4.49-4.21a.39.39 0 1 1 .53-.57l4.49 4.21a.39.39 0 0 1-.27.67zm-14.98 0a.39.39 0 0 1-.27-.67l4.49-4.21a.39.39 0 1 1 .53.57l-4.49 4.21a.39.39 0 0 1-.26.1z" transform="translate(-4030.99 -2258.97)"/><path d="M4053.23 2276.16h-20.29a2 2 0 0 1-1.95-1.95v-13.29a2 2 0 0 1 1.95-1.95h20.29a2 2 0 0 1 1.95 1.95v13.29a2 2 0 0 1-1.95 1.95zm-20.29-16.41a1.17 1.17 0 0 0-1.17 1.17v13.29a1.17 1.17 0 0 0 1.17 1.17h20.29a1.17 1.17 0 0 0 1.17-1.17v-13.29a1.17 1.17 0 0 0-1.17-1.17z" transform="translate(-4030.99 -2258.97)"/><path d="M4043.09 2269.53a2.18 2.18 0 0 1-1.43-.52l-10-8.74a.39.39 0 1 1 .51-.59l10 8.73a1.46 1.46 0 0 0 1.84 0l10-8.72a.39.39 0 1 1 .51.59l-10 8.72a2.18 2.18 0 0 1-1.43.53z" transform="translate(-4030.99 -2258.97)"/></symbol><symbol id="icon_acc-prof" viewBox="0 0 26.53 27"><path d="M4104.7 2274l-.67-.13a.92.92 0 0 1-.57-1.44l.42-.58a.47.47 0 0 0 0-.6l-.91-.91a.47.47 0 0 0-.59-.06l-.57.38a.92.92 0 0 1-1.42-.62l-.11-.71a.46.46 0 0 0-.46-.39h-1.29a.47.47 0 0 0-.46.38l-.17.87a.92.92 0 0 1-1.42.59l-.73-.5a.47.47 0 0 0-.59.06l-.91.91a.47.47 0 0 0 0 .6l.42.58a.92.92 0 0 1-.57 1.44l-.67.13a.47.47 0 0 0-.38.46v1.29a.47.47 0 0 0 .39.46l.71.11a.92.92 0 0 1 .62 1.42l-.38.57a.47.47 0 0 0 .06.59l.91.91a.47.47 0 0 0 .6 0l.58-.42a.92.92 0 0 1 1.44.57l.13.67a.47.47 0 0 0 .46.38h1.29a.47.47 0 0 0 .46-.39l.08-.5a.92.92 0 0 1 1.45-.6l.4.3a.46.46 0 0 0 .6 0l.91-.91a.47.47 0 0 0 .06-.59l-.38-.57a.92.92 0 0 1 .62-1.42l.71-.11a.47.47 0 0 0 .39-.46v-1.29a.47.47 0 0 0-.46-.47zm-.55 1.35h-.31a1.85 1.85 0 0 0-1.25 2.86l.17.25-.36.36-.08-.06a1.85 1.85 0 0 0-2.92 1.21v.1h-.51l-.06-.29a1.85 1.85 0 0 0-2.91-1.14l-.25.19-.36-.36.17-.25a1.85 1.85 0 0 0-1.25-2.86h-.31v-.51l.29-.06a1.85 1.85 0 0 0 1.14-2.91l-.19-.25.36-.36.41.28a1.85 1.85 0 0 0 2.85-1.18l.09-.49h.51v.31a1.85 1.85 0 0 0 2.86 1.25l.25-.17.36.36-.19.25a1.85 1.85 0 0 0 1.14 2.91l.29.06v.51z" transform="translate(-4078.55 -2254.07)"/><path d="M4099 2272.69a2.33 2.33 0 1 0 2.33 2.33 2.33 2.33 0 0 0-2.33-2.33zm0 3.72a1.4 1.4 0 1 1 1.4-1.4 1.4 1.4 0 0 1-1.4 1.4z" transform="translate(-4078.55 -2254.07)"/><path d="M4091.35 2278.74h-1.03c-.3 0-.59-.06-.88-.11a11.83 11.83 0 0 1-1.81-.45h-.05c-.29-.1-.58-.21-.87-.33-.27-.12-.53-.24-.79-.38l-.1-.05c-.24-.13-.47-.26-.7-.41l-.2-.13c-.21-.14-.42-.28-.62-.43h-.06l3.68-2a2 2 0 0 0 1-1.73v-1.68l-.11-.13a7.77 7.77 0 0 1-1.4-2.89v-.18l-.16-.1a.77.77 0 0 1-.36-.65v-1.65a.76.76 0 0 1 .26-.57l.15-.14v-2.65a2.8 2.8 0 0 1 .65-2 5.66 5.66 0 0 1 6.85 0 2.85 2.85 0 0 1 .66 2v2.65l.15.14a.76.76 0 0 1 .26.57v1.65a.78.78 0 0 1-.55.73.47.47 0 0 0 .27.89 1.69 1.69 0 0 0 1.21-1.62v-1.65a1.69 1.69 0 0 0-.41-1.1V2262a3.75 3.75 0 0 0-.88-2.73 6.51 6.51 0 0 0-8.26 0 3.76 3.76 0 0 0-.88 2.73v2.17a1.7 1.7 0 0 0-.41 1.1v1.65a1.69 1.69 0 0 0 .62 1.31 8.75 8.75 0 0 0 1.44 3v1.35a1 1 0 0 1-.54.91l-3.68 2a3.36 3.36 0 0 0-.35.22 11.87 11.87 0 1 1 19.8-8.83.47.47 0 0 0 .93 0 12.8 12.8 0 1 0-21.45 9.43l.42.35.08.06c.22.18.45.36.68.52l.23.16q.37.26.76.49l.17.1c.29.16.58.32.88.46h.07a12.69 12.69 0 0 0 3.1 1h.09c.34.06.68.1 1 .14h1.13a.47.47 0 0 0 0-.93z" transform="translate(-4078.55 -2254.07)"/></symbol><symbol id="icon_acc-sale" viewBox="0 0 32.01 27.73"><path id="_Path_" d="M3990.92 2259.89a.47.47 0 1 0 0 .93h8.38a.47.47 0 0 0 0-.93z" transform="translate(-3978.36 -2254.3)"/><path id="_Path_2" d="M3999.77 2266.87a.47.47 0 0 0-.47-.47h-8.38a.47.47 0 0 0 0 .93h8.38a.47.47 0 0 0 .47-.46z" transform="translate(-3978.36 -2254.3)"/><path id="_Path_3" d="M3987.93 2257.67a.46.46 0 0 0-.66.05l-2.91 3.39-1.78-1.33a.47.47 0 1 0-.56.74l2.13 1.6a.46.46 0 0 0 .63-.07l3.19-3.72a.46.46 0 0 0-.04-.66z" transform="translate(-3978.36 -2254.3)"/><path id="_Path_4" d="M3987.93 2264.19a.46.46 0 0 0-.66.05l-2.91 3.39-1.78-1.33a.47.47 0 1 0-.56.74l2.13 1.6a.46.46 0 0 0 .63-.07l3.19-3.72a.46.46 0 0 0-.04-.66z" transform="translate(-3978.36 -2254.3)"/><path id="_Path_5" d="M3987.28 2271.22l-2.91 3.39-1.78-1.33a.47.47 0 1 0-.56.74l2.13 1.6a.46.46 0 0 0 .63-.07l3.19-3.72a.47.47 0 1 0-.71-.61z" transform="translate(-3978.36 -2254.3)"/><path id="_Path_6" d="M3986.06 2278.51h-2a4.74 4.74 0 0 1-4.74-4.74V2260a4.74 4.74 0 0 1 4.74-4.74h13.8a4.74 4.74 0 0 1 4.74 4.74v7.16a.47.47 0 0 0 .93 0V2260a5.67 5.67 0 0 0-5.67-5.67H3984a5.67 5.67 0 0 0-5.67 5.67v13.8a5.67 5.67 0 0 0 5.67 5.67h2a.47.47 0 1 0 0-.93z" transform="translate(-3978.36 -2254.3)"/><text transform="translate(12.31 25.14)">238</text></symbol><symbol id="icon_anchor" viewBox="0 0 312.13 336.15"><g id="Слой_2"><g id="Capa_1"><path class="cls-1" d="M156.4 28.55A29.46 29.46 0 1 0 185.87 58a29.5 29.5 0 0 0-29.47-29.45zm0 51.21A21.75 21.75 0 1 1 178.16 58a21.78 21.78 0 0 1-21.76 21.77z"/><path class="cls-1" d="M282.8 258.73l1.9 1.16a18.5 18.5 0 0 0 17.46.7 18.16 18.16 0 0 0 8-24.35l-24.72-49.13-49.13 24.74a18.13 18.13 0 0 0 9 34.3L249 246l-1.69 3.15c-13.48 25.1-39.8 43.38-70.4 48.92l-2.36.43V157.82h19.18a18.13 18.13 0 0 0 0-36.27h-19.22v-8.46l1.33-.47a58 58 0 1 0-38.91 0l1.33.47v8.46h-18a18.13 18.13 0 0 0 0 36.27h18v140.42l-2.38-.46c-30-5.8-55.85-24-69.16-48.66l-1.52-2.81 3.19-.13a18.13 18.13 0 0 0 7.39-34.31l-49.12-24.74-24.71 49.12a18.13 18.13 0 0 0 8 24.35 18.56 18.56 0 0 0 18.72-1.43l2-1.41 1 2.19c21.47 46.29 70.65 76.21 125.29 76.21 54.16 0 103.17-29.6 124.86-75.41zm-4.72-8.73c-18.21 46.91-66.87 78.42-121.09 78.42-55.2 0-104.15-32.24-121.82-80.24l-3.06-8.32-4.65 9.22a10.46 10.46 0 0 1-6.06 5.16 10.39 10.39 0 0 1-12.56-14.52l21.26-42.24 42.24 21.28a10.41 10.41 0 0 1 4.62 14 10.6 10.6 0 0 1-14 4.63l-11.76-5.9 3.27 9.07c12.55 34.84 46.76 60.74 87.16 66l4.35.56v-157h-25.72a10.42 10.42 0 0 1 0-20.84H146v-22l-2.83-.78a50.3 50.3 0 1 1 26.5 0l-2.83.78v22h26.86a10.42 10.42 0 0 1 0 20.84h-26.88v157.06l4.31-.51c41.58-4.94 76.44-31.36 88.82-67.31l3.08-8.95-13.81 6.94a10.59 10.59 0 0 1-14-4.61 10.45 10.45 0 0 1 4.63-14l42.23-21.28 21.25 42.25a10.45 10.45 0 0 1-4.63 14 10.59 10.59 0 0 1-13.7-4.21l-4-7.05z"/></g></g></symbol><symbol id="icon_arrow-next" viewBox="0 0 29.08 20"><path class="cls-1" d="M19.08 19.5l9.5-9.5M19.08.5l9.5 9.5m-.75 0H.5"/></symbol><symbol id="icon_arrow-prev" viewBox="0 0 29.08 20"><path class="cls-1" d="M10 .5L.5 10m9.5 9.5L.5 10m.75 0h27.33"/></symbol><symbol id="icon_blackidea" viewBox="0 0 350 43.83"><path d="M215.93 42.8h-12.79V1h12.79zM241.11 1c12.79 0 21.07 7.74 21.07 20.77 0 13.9-7.63 21-21.29 21h-18.42V1zM235 32.24h5c6.28 0 9.38-3.94 9.38-10.21 0-7.1-4-10.5-10.62-10.5H235zm67.27-21.07h-22v5.22h20v9.68h-20v6.1h22.59v10.62h-35.2V1h34.62zm19.27 25.68l-2.05 5.93h-13L321.94 1h12.68L350 42.77h-13l-2-5.92-2.82-9c-.77-2.41-2.23-7.16-2.23-7.16a56.66 56.66 0 0 1-1.59-6.34c-.7 2.88-.93 3.82-1.76 6.4 0 0-.88 2.87-2.29 7.1zM21.06 1.09C28 1.08 35.91 2.9 35.91 11.52c0 4.11-2 6.51-5.22 8.39C35.38 21.56 38 24.78 38 30.18c0 9.8-7.86 12.67-16 12.68H0V1.09zM12.44 17h7.22c2.4 0 3.87-1.17 3.87-3.17 0-2.17-1.46-3.28-4.46-3.28h-6.63zm0 15.9h7.92c3.23 0 4.87-1.29 4.87-3.87s-1.7-4-4.87-4h-7.92zm119.9 10.93c-12.79 0-20.95-9.62-21-22S119.89 0 132.57 0c10.2 0 18.36 7.1 19 16.48h-12.48c-.71-3.76-3.11-5.87-6.75-5.87-6 0-8 6-8 11.21 0 6.92 3.05 11.2 8 11.2 3.75 0 6.1-2.35 6.75-6.69h12.61c-.76 11.57-9.21 17.49-19.36 17.5zm48.99-26.56l17.55 25.52h-16l-10.23-16.25-3.75 3.94v12.31h-12.6V1H169l-.06 8.45c0 4-.06 2.76-.17 6.4L180.63 1h15.84zM97.56 1.07H84.88L73.49 31.93H55V1.08H42.16v41.77h40.26l2.06-5.92 2.75-9c1.41-4.23 2.29-7.1 2.29-7.1.82-2.58 1.05-3.52 1.76-6.4a54.91 54.91 0 0 0 1.58 6.34s1.47 4.74 2.23 7.16l2.82 9 2.09 5.91h13z"/></symbol><symbol id="icon_boat" viewBox="0 0 376.64 335.68"><g id="Слой_2"><path d="M376.16 268.35a4 4 0 0 0-3.52-2.11H222.32V212.8h129.84a4 4 0 0 0 3.3-6.26L222.32 12.4V4a4 4 0 0 0-8 0v41l-.25.45-83.58 151.17a4 4 0 0 0 3.5 5.93h64.4a4 4 0 0 0 0-8h-57.62l73.55-133v204.69h-16.24v-5a36 36 0 0 0-36-36H110.4V84.48a4 4 0 0 0-8 0v2.37l-.35.51-80.88 119.19a4 4 0 0 0 3.31 6.25h61.44a4 4 0 1 0 0-8H32l70.4-103.7v124.18H85.92a4 4 0 0 0-4 4v16.48H45a4 4 0 0 0-4 4v16.48H4a4 4 0 0 0-3.8 5.26l20.48 61.44a4 4 0 0 0 3.79 2.73h307.2a4 4 0 0 0 3.33-1.77l41-61.44a4 4 0 0 0 .16-4.11zM222.32 26.54L344.56 204.8H222.32zm107.22 301.14H27.36L9.55 274.24H170a4 4 0 0 0 0-8H49v-12.48h37a4 4 0 0 0 4-4v-16.48h72.16a28.07 28.07 0 0 1 20.67 9.13l3.06 3.35h-74.37a4 4 0 0 0 0 8h77.57l.34 1.57a28 28 0 0 1 .64 5.95v9a4 4 0 0 0 4 4 3.79 3.79 0 0 0 .65-.06l.34-.06.34.06a3.76 3.76 0 0 0 .65.06h169.12z" id="Слой_1-2"/></g></symbol><symbol id="icon_burger" viewBox="0 0 32 25"><rect width="32" height="3" rx="1.5" ry="1.5"/><rect y="10.97" width="32" height="3" rx="1.5" ry="1.5"/><rect y="22" width="32" height="3" rx="1.5" ry="1.5"/></symbol><symbol id="icon_caret" viewBox="0 0 11 6"><path stroke-linecap="round" stroke-miterlimit="10" d="M.5.5l5 5m5-5l-5 5"/></symbol><symbol id="icon_check-mark" viewBox="0 0 12.86 8.41"><path stroke-linecap="square" stroke-miterlimit="10" d="M.71 3.26l4.45 4.45m0 0l7-7"/></symbol><symbol id="icon_chevron" viewBox="0 0 512 512"><path d="M509.121 125.966a9.821 9.821 0 0 0-13.893 0L256.005 365.194 16.771 125.966a9.821 9.821 0 0 0-13.893 0 9.821 9.821 0 0 0 0 13.893l246.18 246.175a9.819 9.819 0 0 0 13.893 0l246.17-246.175a9.821 9.821 0 0 0 0-13.893z"/></symbol><symbol id="icon_close" viewBox="0 0 23.51 23.51"><path d="M13.87 11.75l9.19-9.19A1.5 1.5 0 1 0 20.95.44l-9.2 9.19L2.56.44A1.5 1.5 0 0 0 .44 2.56l9.19 9.19-9.19 9.2a1.5 1.5 0 0 0 2.12 2.12l9.19-9.19 9.19 9.19a1.5 1.5 0 1 0 2.12-2.12z"/></symbol><symbol id="icon_eat" viewBox="0 0 374 254"><g id="Слой_2"><g id="Слой_1-2"><path d="M268.53 69.38a5 5 0 0 0-7.95 6.07A84.22 84.22 0 0 1 278 127a85 85 0 1 1-85-85 84.23 84.23 0 0 1 51.55 17.42 5 5 0 1 0 6.07-7.95A94.14 94.14 0 0 0 193 32a95 95 0 1 0 95 95 94.13 94.13 0 0 0-19.47-57.62z"/><path d="M193 0a127 127 0 1 0 127 127A127.14 127.14 0 0 0 193 0zm0 244a117 117 0 1 1 117-117 117.13 117.13 0 0 1-117 117zM34 105.58l.8-.16A29.09 29.09 0 0 0 58 77V5a5 5 0 0 0-10 0v51H34V5a5 5 0 0 0-10 0v51H10V5A5 5 0 0 0 0 5v72a29.09 29.09 0 0 0 23.2 28.42l.8.16V249a5 5 0 0 0 10 0zM29 96a19 19 0 0 1-19-19V66h38v11a19 19 0 0 1-19 19zM374 5a5 5 0 0 0-5-5 29 29 0 0 0-29 29v110a5 5 0 0 0 5 5h19v105a5 5 0 0 0 10 0zm-10 129h-14V29a19 19 0 0 1 12.67-17.92l1.33-.47z"/></g></g></symbol><symbol id="icon_exclamation-point" viewBox="0 0 2.74 11.83"><path d="M2.74 10.44a1.27 1.27 0 0 1-1.38 1.39A1.27 1.27 0 0 1 0 10.44 1.26 1.26 0 0 1 1.36 9a1.27 1.27 0 0 1 1.38 1.44zM2.56 3c0 1.08-.33 2.92-.41 4.11 0 .13-.06.2-.19.2H.63c-.14 0-.2-.06-.2-.2C.36 5.9 0 4.05 0 3V.2A.18.18 0 0 1 .22 0h2.15a.18.18 0 0 1 .2.2z"/></symbol><symbol id="icon_eye" viewBox="0 0 23.84 13.41"><path d="M21.2 3.31A14.65 14.65 0 0 0 .37 5.65a1.72 1.72 0 0 0 0 2.12 14.57 14.57 0 0 0 11.56 5.65 14.57 14.57 0 0 0 11.55-5.65 1.72 1.72 0 0 0 0-2.12.37.37 0 0 0-.48-.07.37.37 0 0 0-.07.52 1 1 0 0 1 0 1.21 13.94 13.94 0 0 1-5.8 4.37l-1 .42.77-.82a6.69 6.69 0 0 0 0-9.13l-.76-.82 1 .42a13.84 13.84 0 0 1 3.62 2.14l.4.34a.35.35 0 0 0 .27.09.37.37 0 0 0 .22-.65zM6.74 11.68A13.93 13.93 0 0 1 .95 7.31a1 1 0 0 1 0-1.21 13.93 13.93 0 0 1 5.79-4.37l1-.42-.74.83a6.69 6.69 0 0 0 0 9.14l.76.82zm11.14-5a6 6 0 0 1-6 6h-.06a6 6 0 1 1 6-6z"/><path d="M11.92 4.32a2.38 2.38 0 1 0 2.38 2.39 2.38 2.38 0 0 0-2.38-2.39zm0 4a1.64 1.64 0 1 1 1.64-1.64 1.64 1.64 0 0 1-1.64 1.67z"/></symbol><symbol id="icon_fb" viewBox="0 0 10.27 19"><path d="M9.89 0H7.42a4.33 4.33 0 0 0-4.56 4.68v2.15H.39a.39.39 0 0 0-.39.39v3.12a.39.39 0 0 0 .39.39h2.47v7.88a.39.39 0 0 0 .39.39h3.23a.39.39 0 0 0 .39-.39v-7.88h2.9a.39.39 0 0 0 .39-.39V7.22a.39.39 0 0 0-.16-.27.39.39 0 0 0-.27-.11H6.87V5c0-.88.21-1.32 1.35-1.32h1.67a.39.39 0 0 0 .39-.39V.39A.39.39 0 0 0 9.89 0zm0 0"/></symbol><symbol id="icon_g-share" viewBox="0 0 90 90"><path d="M74.499 0H50.144c-6.382 0-14.421.942-21.158 6.49-5.09 4.374-7.566 10.392-7.566 15.828 0 9.211 7.094 18.546 19.625 18.546 1.182 0 2.477-.12 3.787-.235-.592 1.413-1.189 2.594-1.189 4.605 0 3.662 1.893 5.902 3.547 8.029-5.314.353-15.249.942-22.583 5.428-6.975 4.143-9.107 10.16-9.107 14.414C15.499 81.846 23.778 90 40.923 90c20.336 0 31.098-11.22 31.098-22.33 0-8.143-4.729-12.164-9.932-16.534l-4.258-3.305c-1.295-1.065-3.068-2.479-3.068-5.08 0-2.597 1.773-4.254 3.307-5.789 4.964-3.896 9.933-8.03 9.933-16.77 0-8.979-5.68-13.704-8.396-15.947h7.334L74.499 0zM64.103 72.279c0 7.322-6.033 12.753-17.385 12.753-12.648 0-20.809-6.024-20.809-14.405 0-8.393 7.568-11.218 10.166-12.164 4.969-1.656 11.352-1.891 12.414-1.891 1.184 0 1.775 0 2.725.115 8.988 6.377 12.889 9.57 12.889 15.592zm-9.461-38.03c-1.893 1.886-5.088 3.305-8.045 3.305-10.164 0-14.772-13.113-14.772-21.023 0-3.072.592-6.258 2.598-8.74 1.893-2.362 5.201-3.899 8.277-3.899 9.812 0 14.899 13.229 14.899 21.73 0 2.13-.241 5.906-2.957 8.627z"/></symbol><symbol id="icon_go" viewBox="0 0 26.42 16.78"><path d="M0 8a8.37 8.37 0 0 1 8.39-8A8.5 8.5 0 0 1 14 2.08a29.87 29.87 0 0 1-2.13 2.2C10 3 7.25 2.59 5.34 4.11a5.37 5.37 0 0 0-.23 8.37c2.55 2.32 7.38 1.17 8.08-2.38-1.6 0-3.2 0-4.8-.05V7.19h8a9.62 9.62 0 0 1-1.51 6.49c-2.09 2.94-6.28 3.79-9.55 2.54A8.4 8.4 0 0 1 0 8zm21.62-3.22H24v2.4h2.4v2.4L24 9.6V12h-2.38V9.61h-2.4V7.19h2.4q-.01-1.19 0-2.41z"/></symbol><symbol id="icon_insta" viewBox="0 0 19.48 20"><path d="M13.62 20H5.86A5.87 5.87 0 0 1 0 14.14V5.86A5.87 5.87 0 0 1 5.86 0h7.75a5.87 5.87 0 0 1 5.86 5.86v8.27A5.87 5.87 0 0 1 13.62 20zM5.86 2.12a3.75 3.75 0 0 0-3.74 3.74v8.27a3.75 3.75 0 0 0 3.75 3.75h7.75a3.75 3.75 0 0 0 3.75-3.75V5.86a3.75 3.75 0 0 0-3.75-3.75z"/><path d="M9.74 15.53A5.56 5.56 0 0 1 4.18 10a5.65 5.65 0 0 1 1.7-4 5.32 5.32 0 0 1 3.9-1.58 5.73 5.73 0 0 1 4.13 1.69A5.38 5.38 0 0 1 15.3 10a5.68 5.68 0 0 1-1.64 3.9 5.47 5.47 0 0 1-3.92 1.63zM9.62 7a2.76 2.76 0 0 0-1.93.8 3 3 0 0 0-.92 2.2 3 3 0 1 0 5.94 0A2.9 2.9 0 0 0 12 7.88 3.22 3.22 0 0 0 9.7 7z"/><circle cx="14.99" cy="4.7" r="1.2"/></symbol><symbol id="icon_login" viewBox="0 0 19.5 17"><path id="_Контур_" class="cls-1" d="M.5 8.5h11.08"/><g id="_Группа_"><path id="_Контур_2" class="cls-1" d="M8.99 5.91l2.59 2.59"/><path id="_Контур_3" class="cls-1" d="M8.99 11.09l2.59-2.59"/></g><g id="_Группа_2"><path id="_Контур_4" class="cls-1" d="M5.16.5H19"/><path id="_Контур_5" class="cls-1" d="M5.16 16.5H19"/><path id="_Контур_6" class="cls-1" d="M19 16.5V.5"/></g></symbol><symbol id="icon_magnifier" viewBox="0 0 17.31 17.5"><circle cx="6.81" cy="6.81" r="6.31" stroke-linecap="round" stroke-miterlimit="10"/><path stroke-linecap="round" stroke-miterlimit="10" d="M11.17 11.36L16.81 17"/></symbol><symbol id="icon_mark" viewBox="0 0 12.86 8.41"><path stroke-linecap="square" stroke-miterlimit="10" d="M.71 3.26l4.45 4.45m0 0l7-7"/></symbol><symbol id="icon_minus" viewBox="0 0 12 2"><path d="M11 2H1a1 1 0 0 1 0-2h10a1 1 0 0 1 0 2z"/></symbol><symbol id="icon_motor" viewBox="0 0 298.54 84.33"><path id="_Контур_" class="cls-1" d="M3070.63-1167.28h58.74c2.52 0 5.64-1.44 5.64-5.19 0-4.17-3.29-5.28-5.64-5.28h-47.94l-19.3 18.82 15 16.65s132.4 0 197.74.1c13.13 0 32.48-7.67 41.86-12.66 13.13-7 29.36-18.34 41.44-41.48" transform="translate(-3060.88 1225.3)"/><path id="_Контур_2" class="cls-1" d="M3063.12-1159.83c79.67 0 182.28 0 261.95-.11" transform="translate(-3060.88 1225.3)"/><path id="_Контур_3" class="cls-1" d="M20.55 47.51l6.66-6.61 262.51.1"/><path id="_Контур_4" class="cls-1" d="M188.94 8.9l-8.44-7.65L80.08 11.5l-.9 5.49"/><path id="_Контур_5" class="cls-1" d="M221 28.96L202.5 8.08 74.48 17.36l-1.99 10.62"/><path id="_Контур_6" class="cls-1" d="M72.49 28.96l224.8-.02"/><path id="_Контур_7" class="cls-1" d="M62.49 39.98l3.4-11.02h6.6"/><path id="_Контур_8" class="cls-1" d="M192.29 28.94l-4.33-13.52-27.33 2.16"/><path id="_Контур_9" class="cls-1" d="M162.46 28.96l-1.83-11.38-23.14 1.67-.95 9.71"/></symbol><symbol id="icon_odnokl" viewBox="0 0 12.01 20"><path d="M5 14.09a7.78 7.78 0 0 1-4.13-1.48c-.15-.12-.3-.23-.44-.36a1.18 1.18 0 0 1-.16-1.67 1.18 1.18 0 0 1 1.57-.35 2.49 2.49 0 0 1 .34.2 6.8 6.8 0 0 0 7.53.07 2 2 0 0 1 .73-.38 1.15 1.15 0 0 1 1.32.53 1.12 1.12 0 0 1-.08 1.47 6.1 6.1 0 0 1-2.18 1.41 10.34 10.34 0 0 1-2.5.56l.27.29 3.46 3.47a1.15 1.15 0 0 1 .27 1.34 1.37 1.37 0 0 1-1.28.8 1.25 1.25 0 0 1-.81-.41 92.21 92.21 0 0 1-2.61-2.63c-.25-.26-.37-.21-.58 0-.87.9-1.76 1.79-2.66 2.67a1.11 1.11 0 0 1-1.34.24 1.36 1.36 0 0 1-.79-1.25 1.25 1.25 0 0 1 .42-.84l3.41-3.42.24-.26zm0 0" fill-rule="evenodd"/><path d="M6 10.12a5.06 5.06 0 1 1 5.09-5 5.06 5.06 0 0 1-5.09 5zm2.48-5.06A2.48 2.48 0 1 0 6 7.54a2.47 2.47 0 0 0 2.48-2.48zm0 0" fill-rule="evenodd"/></symbol><symbol id="icon_pdf" viewBox="0 0 482.46 512"><g id="Слой_2"><path d="M479.71 138.56L349.27 3a9.85 9.85 0 0 0-7.1-3h-194.4a39.5 39.5 0 0 0-39.46 39.44v137.79H29.52A29.55 29.55 0 0 0 0 206.74v147.75A29.55 29.55 0 0 0 29.52 384h78.79v88.63A39.46 39.46 0 0 0 147.77 512H443a39.45 39.45 0 0 0 39.46-39.35V145.38a9.85 9.85 0 0 0-2.75-6.82zm-135.09-112L451.7 137.85H344.62zM29.52 364.31a9.83 9.83 0 0 1-9.83-9.82V206.74a9.84 9.84 0 0 1 9.83-9.82H295.4a9.84 9.84 0 0 1 9.83 9.82v147.75a9.84 9.84 0 0 1-9.83 9.82zm433.25 108.34A19.74 19.74 0 0 1 443 492.31H147.77A19.75 19.75 0 0 1 128 472.63V384h167.4a29.55 29.55 0 0 0 29.52-29.51V206.74a29.55 29.55 0 0 0-29.52-29.51H128V39.44a19.78 19.78 0 0 1 19.77-19.75h177.15v128a9.85 9.85 0 0 0 9.85 9.85h128v315.11z"/><path d="M117.71 249.89a22.17 22.17 0 0 0-12.17-8.28q-4.73-1.27-20.31-1.27h-27.4v84.58H74.9V293H86a97.45 97.45 0 0 0 17.71-1.21 24.74 24.74 0 0 0 8.86-4 23.19 23.19 0 0 0 7.18-8.34 27.59 27.59 0 0 0 2.83-13.1q.04-10.08-4.87-16.46zm-14.62 23.28a11.21 11.21 0 0 1-5.34 4.15q-3.4 1.33-13.5 1.33H74.9v-24h8.25a82 82 0 0 1 12.29.58 11.81 11.81 0 0 1 6.86 3.75 10.92 10.92 0 0 1 2.7 7.62 11.37 11.37 0 0 1-1.91 6.57zm101.62-9.72a37 37 0 0 0-8.08-13.7 28.29 28.29 0 0 0-12.74-7.75q-5.54-1.62-16.1-1.62h-31.21v84.58h32.13q9.46 0 15.12-1.79a30 30 0 0 0 12-6.75 37.3 37.3 0 0 0 9.06-14.94 55.58 55.58 0 0 0 2.6-18q-.01-11.92-2.78-20.03zm-16.61 34.73q-1.73 5.68-4.47 8.16a15.76 15.76 0 0 1-6.89 3.52 46.49 46.49 0 0 1-10.33.81h-12.76v-56h7.67q10.44 0 14 .81a16.25 16.25 0 0 1 7.9 4 19.35 19.35 0 0 1 4.85 8.19q1.73 5.25 1.73 15.06t-1.7 15.45zm91.96-43.53v-14.3h-57.98v84.57h17.07v-35.94h35.31v-14.31h-35.31v-20.02h40.91z"/></g></symbol><symbol id="icon_plus" viewBox="0 0 12 12"><path d="M11 5H7V1a1 1 0 0 0-2 0v4H1a1 1 0 0 0 0 2h4v4a1 1 0 1 0 2 0V7h4a1 1 0 1 0 0-2z"/></symbol><symbol id="icon_question-mark" viewBox="0 0 6.04 10.82"><path d="M2.15 7.81a4.37 4.37 0 0 1 .18-1.48 3.69 3.69 0 0 1 .92-1.08 16.08 16.08 0 0 0 1-1.32 2 2 0 0 0 .31-1.11 1.62 1.62 0 0 0-.41-1.19A1.59 1.59 0 0 0 3 1.22a1.79 1.79 0 0 0-1.13.36 1.27 1.27 0 0 0-.47 1.06H0A2.28 2.28 0 0 1 .83.71 3.26 3.26 0 0 1 3 0a3.18 3.18 0 0 1 2.24.74A2.65 2.65 0 0 1 6 2.79a3.08 3.08 0 0 1-.52 1.73 9.69 9.69 0 0 1-1.37 1.6 1.74 1.74 0 0 0-.47.71 4.15 4.15 0 0 0-.08 1zm1.49 3h-1.5V9.29h1.5z"/></symbol><symbol id="icon_questions-circular" viewBox="0 0 612 612"><path d="M230.724 181.208a1489.01 1489.01 0 0 1-5.119 5.508c2.17-2.337 5.119-5.508 5.119-5.508z"/><path d="M336.962 200.875c7.956 9.792 11.906 21.337 11.906 34.634 0 9.514-2.727 18.666-8.151 27.512-2.977 5.007-6.898 9.848-11.795 14.465l-16.301 16.107c-15.634 15.356-25.732 28.958-30.35 40.865-4.618 11.878-6.927 27.54-6.927 46.957h36.275c0-17.108 1.947-30.044 5.814-38.807 3.866-8.763 12.323-19.444 25.37-32.102 17.942-17.387 29.849-30.572 35.746-39.53s8.874-20.641 8.874-35.051c0-23.756-8.039-43.285-24.146-58.585-16.106-15.3-37.526-22.922-64.288-22.922-28.931 0-51.686 8.929-68.266 26.789s-24.87 41.449-24.87 70.797h36.275c.667-17.665 3.478-31.184 8.346-40.559 8.679-16.83 24.369-25.259 47.068-25.259 18.333.001 31.491 4.897 39.42 14.689z"/><path d="M612 306C612 137.004 474.995 0 306 0 137.004 0 0 137.004 0 306c0 168.995 137.004 306 306 306 168.995 0 306-137.005 306-306zm-584.182 0C27.818 152.36 152.36 27.818 306 27.818S584.182 152.36 584.182 306 459.64 584.182 306 584.182 27.818 459.64 27.818 306z"/><path d="M274.51 415.214h40.559v42.367H274.51z"/></symbol><symbol id="icon_rouble" viewBox="0 0 10.76 12.39"><path d="M6.65 0c2.59 0 4.11 1.39 4.11 3.73 0 2.52-1.73 3.89-5.11 3.89H3.32v4.61a.14.14 0 0 1-.16.16H2.3a.14.14 0 0 1-.16-.16V.16A.14.14 0 0 1 2.3 0zm-1 6.54c2.61 0 3.89-1 3.89-2.81S8.45 1.08 6.65 1.08H3.32v5.46z"/><rect x="4.17" y="5.06" width="1.19" height="9.53" rx=".16" ry=".16" transform="rotate(90 4.765 9.825)"/></symbol><symbol id="icon_rowing" viewBox="0 0 297.51 114.88"><path id="_Контур_" class="cls-1" d="M1754.06-940.17c49.41 0 98.83 0 148.24-.16 14.85-.06 28.6-4.94 41-13.34 6.92-4.68 21.54-17.4 22.59-19.62" transform="translate(-1669.41 1016.91)"/><path id="_Контур_2" class="cls-1" d="M1788.25-977.36c-20.63.28-54.58.59-58.67.46-5.73-.18-18.94 0-26.17-1.46a13 13 0 0 1-4.27-1.59l-4.77-7.7h-9.94l-14 14.44s7.49 22.06 15.91 28.5a19.91 19.91 0 0 0 12.49 4.58h19.24" transform="translate(-1669.41 1016.91)"/><path id="_Контур_3" class="cls-1" d="M1870.75-992.89c-9.17 6.66-27.83 14.41-69.67 15.32l-2.55.05" transform="translate(-1669.41 1016.91)"/><path id="_Контур_4" class="cls-1" d="M97.87 54.71l-92.45.01"/><path id="_Контур_5" class="cls-1" d="M284.87 54.69l-176.98.02"/><path id="_Контур_6" class="cls-1" d="M112.95 43.7H2.02"/><path id="_Контур_7" class="cls-1" d="M295.76 43.7H122.99"/><path id="_Контур_8" class="cls-1" d="M1794.66-981.75c-6.16.19-13.52.28-20 .39-32.76.54-61.53.92-71.53-.76l-4.53-5.52h-4.22" transform="translate(-1669.41 1016.91)"/><path id="_Контур_9" class="cls-1" d="M1965.92-973.32c-9.09-6-40.73-14-49.08-15.66-9.15-1.79-24.42-3.17-33.25-3.62-11.21-.58-23.78-.09-23.78-.09s-18.27 7.14-27 7.83c-5.27 1.24-15.21 2.07-27.82 2.64" transform="translate(-1669.41 1016.91)"/><path id="_Составной_контур_" class="cls-1" d="M1749.5-943.14c2.52-1.84 5.21-3.45 7.84-5.14.19-.12.4-.52.67-.22s-.05.52-.17.74c-1 1.84-1.87 3.7-2.9 5.5a82.78 82.78 0 0 1-6.31 9.46 82.26 82.26 0 0 1-12.41 13c-6.74 5.62-14.1 10.4-21.16 15.6a5.78 5.78 0 0 1-3.71 1.15 4.28 4.28 0 0 1-3.19-1.69c-1.42-1.8-2.75-3.66-4.1-5.51-1.8-2.49-3.59-5-5.38-7.49a16.38 16.38 0 0 1-1.73-2.73 5.23 5.23 0 0 1 1.72-5.93c3.15-2.23 6.27-4.51 9.4-6.77 3.59-2.59 7.15-5.22 10.9-7.57a83.76 83.76 0 0 1 13.59-6.92 93.58 93.58 0 0 1 10.42-3.44 72.72 72.72 0 0 1 8.37-1.72l2.87-.43c.18 0 .41-.13.51.08s-.14.31-.28.43c-1.9 1.64-3.93 3.12-5.89 4.67-3.62 2.85-7.22 5.72-10.84 8.57-2.73 2.15-5.5 4.25-8.24 6.39-4 3.11-7.92 6.23-11.88 9.34a11.64 11.64 0 0 0-2.45 2c-.85 1.17-2.37 1.39-3.21 2.5-.13.17-.53.24-.29.55s.45 0 .64-.08c1.57-1 3.14-2 4.69-3 2.79-1.83 5.56-3.7 8.36-5.53q7.51-4.91 15-9.78c.5-.33 7.66-4.89 9.16-6.03z" transform="translate(-1669.41 1016.91)"/><path id="_Контур_10" class="cls-1" d="M1761.26-950.86c-.89.64-.92.63-1.57-.29s-1.32-1.91-2-2.82a.81.81 0 0 1 .22-1.41c4-2.84 8-5.72 12-8.58l71.36-51.21c1.54-1.11 1.85-1.05 2.95.52l1.16 1.66c.65.93.59 1.36-.33 2l-8.41 6-45.37 32.55z" transform="translate(-1669.41 1016.91)"/></symbol><symbol id="icon_sailing" viewBox="0 0 269.97 263.55"><path id="_Контур_" class="cls-1" d="M3754.51-1165.2h-255.49" transform="translate(-3488.06 1404.42)"/><path id="_Контур_2" class="cls-1" d="M3751.93-1161.19h-249.56a11.42 11.42 0 0 1-1-1.06c-5.21-5.91-10.07-12.08-12-20 1.48-1 4.36-1 5-1 30.33 0 59.79.05 90.13 0 3 0 4.31 0 7 2.42 2.82 2.82 5.57 5.41 8.37 8.1a9.54 9.54 0 0 0 7 2.5h150" transform="translate(-3488.06 1404.42)"/><path id="_Контур_3" class="cls-1" d="M3502.13-1161.44c6.37 7.23 18.2 19.32 36.18 19.32 60.5-.17 121 0 181.5-.21 17.88 0 33.81-17.37 37-27.87" transform="translate(-3488.06 1404.42)"/><path id="_Контур_4" class="cls-1" d="M3745.42-1154.21h-235.88" transform="translate(-3488.06 1404.42)"/><path id="_Контур_5" class="cls-1" d="M129.25 217.21V1.25"/><path id="_Контур_6" class="cls-1" d="M3599.81-1174.71c2.14-2.52 4.15-4.76 6.49-7.5 3.83-4.49 11.5-4 11.5-4h109.5s3.22-.14 5.16 1.62c4.2 3.8 7.19 7.36 8.84 13.35" transform="translate(-3488.06 1404.42)"/><path id="_Контур_7" class="cls-1" d="M129.25 2.77l-10.93 200.54H10.19L129.25 2.77z"/><path id="_Контур_8" class="cls-1" d="M129.25 2.77l10.93 196.54 108.13 4L129.25 2.77z"/><g id="_Группа_"><circle id="_Контур_9" class="cls-1" cx="132.05" cy="226.56" r="3"/><circle id="_Контур_10" class="cls-1" cx="143.26" cy="226.56" r="3"/><circle id="_Контур_11" class="cls-1" cx="154.47" cy="226.56" r="3"/><circle id="_Контур_12" class="cls-1" cx="165.68" cy="226.56" r="3"/><circle id="_Контур_13" class="cls-1" cx="176.89" cy="226.56" r="3"/><circle id="_Контур_14" class="cls-1" cx="188.11" cy="226.56" r="3"/><circle id="_Контур_15" class="cls-1" cx="199.32" cy="226.56" r="3"/><circle id="_Контур_16" class="cls-1" cx="210.53" cy="226.56" r="3"/><circle id="_Контур_17" class="cls-1" cx="221.74" cy="226.56" r="3"/><circle id="_Контур_18" class="cls-1" cx="232.95" cy="226.56" r="3"/></g><path id="_Контур_19" class="cls-2" d="M129.05 226.56h-14.87"/><path id="_Контур_20" class="cls-2" d="M250.82 226.56h-14.87"/><path id="_Контур_21" class="cls-2" d="M229.96 226.56h-5.22"/><path id="_Контур_22" class="cls-2" d="M218.75 226.56h-5.22"/><path id="_Контур_23" class="cls-2" d="M207.53 226.56h-5.22"/><path id="_Контур_24" class="cls-2" d="M196.32 226.56h-5.22"/><path id="_Контур_25" class="cls-2" d="M185.11 226.56h-5.22"/><path id="_Контур_26" class="cls-2" d="M173.9 226.56h-5.22"/><path id="_Контур_27" class="cls-2" d="M162.69 226.56h-5.22"/><path id="_Контур_28" class="cls-2" d="M151.48 226.56h-5.22"/><path id="_Контур_29" class="cls-2" d="M140.2 226.56h-5.22"/></symbol><symbol id="icon_ship1" viewBox="0 0 405.6 193.57"><g id="Слой_2"><g id="Слой_1-2"><path id="_Составной_контур_" d="M404.52 60a4.83 4.83 0 0 0-5.08-1.61l-130.18 37-62.44-93.24a4.84 4.84 0 0 0-8 0l-62.48 93.22L6.17 58.35a4.84 4.84 0 0 0-5.61 6.93L67.09 191a4.83 4.83 0 0 0 4.28 2.58h262.86a4.83 4.83 0 0 0 4.28-2.58L405 65.28a4.84 4.84 0 0 0-.48-5.28zM207.64 20.77l51.83 77.38-51.83 14.74zm-9.68 0v92.12l-51.83-14.74zm-183.53 50l175.44 49.89-116.48 61.53zM90.9 183.89l111.9-59.11 111.9 59.11zm241.31-1.7l-116.48-61.53 175.45-49.89z"/></g></g></symbol><symbol id="icon_ship2" viewBox="0 0 340.65 339.49"><g id="Слой_2"><g id="Слой_1-2"><g id="_Группа_"><path id="_Составной_контур_" d="M141.71 94a5.4 5.4 0 0 0-4-5.12 8.53 8.53 0 0 0-2.23-.34c-1.76 0-3 .81-4.18 2.64L42.36 234.75c-1.56 2.49-1 4.06-.33 5.16 1.32 2.13 2.74 3 4.91 3h88.93a5.56 5.56 0 0 0 5.85-5.36zm-11.18 138.23H56.32l74.22-118z"/><path id="_Составной_контур_2" d="M48.47 337.4a4.91 4.91 0 0 0 4.4 2.09h235.24a5.87 5.87 0 0 0 4.51-2.24l46.89-64.88a4.46 4.46 0 0 0 .42-5.39l-.12-.25c-.9-2.08-2.29-2.93-4.7-2.93H169.54v-20.88h145.05c2.18 0 3.34-.73 4.43-2.8 1.52-2.89.94-4.49.18-5.67L168.67 2.62c-1.58-2.4-3.38-3.06-6.44-2.35a5.06 5.06 0 0 0-3.52 5.09V263.8H5.52c-2.14 0-3.62 1-4.79 3.15a4.49 4.49 0 0 0 .38 5.41zM169.54 24.5L305 232.23H169.54zM324.48 275l-39.09 53.8h-230L16.15 275z"/><path id="_Контур_" d="M127.09 296.6a6.78 6.78 0 0 0-5-2.23H122a7.36 7.36 0 0 0-5.27 2.27A7.36 7.36 0 1 0 127.18 307a7.31 7.31 0 0 0 2.28-5.32 6.82 6.82 0 0 0-2.25-5z"/><path id="_Контур_2" d="M103.84 296.6a6.82 6.82 0 0 0-5-2.23h-.08a7.34 7.34 0 0 0-5.25 2.27 7.36 7.36 0 1 0 10.42 10.41 7.31 7.31 0 0 0 2.28-5.33 6.82 6.82 0 0 0-2.25-5z"/><path id="_Контур_3" d="M75.45 294.4a7.13 7.13 0 0 0-5.18 2.23 7.59 7.59 0 0 0 0 10.44 7.49 7.49 0 0 0 10.41 0 7.61 7.61 0 0 0 0-10.45 7.12 7.12 0 0 0-5.23-2.22z"/></g></g></g></symbol><symbol id="icon_ship3" viewBox="0 0 523.67 195.23"><g id="Слой_2"><g id="Слой_1-2"><path id="_Составной_контур_" d="M523.43 74.63c0-.07 0-.13.05-.2s.06-.21.08-.32.05-.3.07-.46v-.08a5.48 5.48 0 0 0-.08-1.64c0-.11-.05-.22-.08-.33s0-.12 0-.19-.08-.24-.13-.36l-.05-.14c0-.11-.1-.22-.15-.33l-.08-.16-.16-.27-.12-.2-.14-.2-.18-.24-.12-.14-.23-.26-.12-.11-.27-.25-.17-.13-.25-.19a5.48 5.48 0 0 0-1.48-.71h-.11l-.41-.1-.38-.06h-.15a5.47 5.47 0 0 0-.59 0H389.06L348 2.56a5.5 5.5 0 0 0-5.46-2.5L141.21 30a5.5 5.5 0 0 0-4.35 3.53l-12.6 34h-6.82a5.5 5.5 0 0 0-5.28 4l-6.42 22-55.27-.23a5.55 5.55 0 0 0-4.3 2l-11.5 14.27L16 132.2a5.62 5.62 0 0 0-.4.55L1.25 150.13a5.5 5.5 0 0 0-.25 6.73l26 35.89a5.5 5.5 0 0 0 4.48 2.25c2.29 0 230.57-.09 342.43.21 24.17 0 58.41-16.87 75.53-28.2 21-13.88 51.41-38.51 73.79-91.84a5.47 5.47 0 0 0 .2-.54zM146 40.38l194.63-28.91 35.42 56.07h-29.13l-16.45-30.85a5.5 5.5 0 0 0-5.68-2.85L240.6 46.69a5.5 5.5 0 0 0-4.36 3.61l-6.09 17.25H136zm188.46 27.16h-92.64l3.7-10.48L322.6 45.3zm39.46 116.69c-105.1-.28-313-.22-339.63-.21l-19.37-26.75h153.82c93.64 0 191.35 0 275.8-.23l-1.18.79c-29.01 19.24-58 26.4-69.44 26.4zM459.4 146c-130.7.31-297 .27-430.74.24h-10l24.46-29.69 9.87-12.21 56.77.21a5.5 5.5 0 0 0 5.28-4l6.42-22h388.28c-15.4 33.5-34.07 54.04-50.34 67.45z"/></g></g></symbol><symbol id="icon_ship4" viewBox="0 0 498.04 412.56"><g id="Слой_2"><path d="M498 313.16a39.25 39.25 0 0 0-39.67-39.67h-79.8v-31.15a37.15 37.15 0 0 0-37.11-37.11h-73.79v-25.32l74.2-36.69A54 54 0 0 0 370.89 98c.81-20.24-8.08-37.18-25-47.67L264.7.78a4.74 4.74 0 0 0-5.21 0l-.37.27-.32.23A4.94 4.94 0 0 0 256.63 5v.14a7.48 7.48 0 0 0 0 .78v199.31h-73.69L97.61 273.5H0l.57 6.29c.3 3 16.34 132.78 116.47 132.78h287.7l-.55-6.12c-.08-1-1.66-22.81 11.83-38.1 9.24-10.17 23.88-15.52 42.36-15.52A39.25 39.25 0 0 0 498 313.16zM267.64 16l72.81 43.69a41.49 41.49 0 0 1 19.37 37.73c-.95 16.14-9.57 29.53-23.06 35.82l-69.12 34.56zM186.8 216.3h154.66a26.07 26.07 0 0 1 26 26v31.2H116.25zm220.92 144.92c-12.63 13.53-14.13 31.59-14.63 37.53l-.23 2.75H117c-25 0-46.31-8.92-63.36-26.51l-4.93-5.09H338.9c3.46 0 5.53-2.07 5.53-5.53s-2.07-5.53-5.53-5.53H40.78l-.89-1.37a150.21 150.21 0 0 1-9.19-16.54c-1.48-3-2.92-6.09-4.37-9.51l-1.77-4.17h280.2c3.46 0 5.53-2.07 5.53-5.53s-2.07-5.53-5.53-5.53H22.93l-2.27.06-.66-2.18c-3.28-10.47-5.26-19.74-6.58-25.88l-.78-3.63h445.73a28.6 28.6 0 1 1 0 57.2c-22.31 0-39.37 6.55-50.65 19.46z" id="Layer_1"/></g></symbol><symbol id="icon_ship5" viewBox="0 0 498.04 386.57"><g id="Слой_2"><g id="Layer_1"><path d="M498 287.17a39.25 39.25 0 0 0-39.67-39.67h-62.7v-37.12c0-17.75-14.85-31.13-34.55-31.13H335.9v-67.86a17.71 17.71 0 0 0-17.48-17.48h-27.3a17.71 17.71 0 0 0-17.48 17.48v67.85H233.5v-67.85A17.71 17.71 0 0 0 216 93.91h-27.29a17.71 17.71 0 0 0-17.48 17.48v67.85H146c-20.34 0-34.55 12.8-34.55 31.13v37.13H0l.57 6.29c.3 3 16.34 132.78 116.47 132.78h287.7l-.55-6.12c-.08-1-1.66-22.81 11.83-38.1 9.24-10.17 23.88-15.52 42.36-15.52A39.25 39.25 0 0 0 498 287.17zM284.7 111.39a6.67 6.67 0 0 1 6.41-6.41h27.31a6.67 6.67 0 0 1 6.41 6.41v67.85H284.7zm-102.4 0a6.67 6.67 0 0 1 6.41-6.41H216a6.67 6.67 0 0 1 6.41 6.41v67.85H182.3zM146 190.31h215c11.69 0 23.48 6.2 23.48 20.07v37.13h-262v-37.13c.09-13.87 11.88-20.07 23.52-20.07zm261.72 144.92c-12.63 13.53-14.13 31.59-14.63 37.53l-.23 2.75H117c-25 0-46.31-8.92-63.36-26.51l-4.93-5.09H338.9c3.46 0 5.53-2.07 5.53-5.53s-2.07-5.53-5.53-5.53H40.78l-.89-1.37a150.21 150.21 0 0 1-9.19-16.54c-1.48-3-2.92-6.09-4.37-9.51l-1.77-4.17h280.2c3.46 0 5.53-2.07 5.53-5.53s-2.07-5.53-5.53-5.53H22.93l-2.27.06-.66-2.18c-3.28-10.47-5.26-19.74-6.58-25.88l-.78-3.63h445.73a28.6 28.6 0 0 1 0 57.2c-22.31.01-39.37 6.55-50.65 19.46zM216.44 45.68c0-4.62-1.64-11.47-9.43-17.89l-.24-.2-.2-.25a5.46 5.46 0 0 0-1.39-1.23c-5.05-2.56-5.81-5.41-5.81-6.89 0-1.25.61-4.66 6.25-9.17l.33-.23A4 4 0 0 0 207.84 7a6.25 6.25 0 0 0-1-4.76l-.22-.24A4 4 0 0 0 203.8.11a6.26 6.26 0 0 0-4.7 1c-8.93 7.47-10.8 14.9-10.8 19.83 0 5.68 3.87 11 11.21 15.27l.59.27.34.3c4.45 4 4.93 7 4.93 8 0 1.48-.76 4.33-5.81 6.89-2.86 1.78-3.17 5.18-2.2 7.9a7.34 7.34 0 0 0 5 2.69 12.86 12.86 0 0 0 2.29-.12l.06-.06.29-.08c7.47-5 11.44-10.67 11.44-16.32zm88.33 16.63a4.88 4.88 0 0 0 2.76-.46c7.4-5 11.3-10.56 11.3-16.17 0-4.61-1.63-11.46-9.41-17.87l-.24-.2-.19-.24a5.58 5.58 0 0 0-1.42-1.26c-5.05-2.56-5.81-5.41-5.81-6.89 0-1.25.61-4.66 6.25-9.17l.33-.23a4 4 0 0 0 1.9-2.82 6.25 6.25 0 0 0-1-4.75L309 2a4 4 0 0 0-2.8-1.89 6.27 6.27 0 0 0-4.7 1c-8.92 7.47-10.8 14.9-10.8 19.83 0 5.68 3.87 11 11.2 15.27l.6.27.34.3c4.45 4 4.93 7 4.93 8.05 0 1.48-.76 4.33-5.81 6.89-2.88 1.78-3.88 5.07-2.33 7.72a7.31 7.31 0 0 0 5.14 2.87z"/><path d="M210.9 224.44a5.55 5.55 0 0 0 5.53-5.53c0-2.59-2.95-5.53-5.53-5.53a5.53 5.53 0 1 0 0 11.07zm42.67-11.06a5.53 5.53 0 1 0 5.53 5.53 6.22 6.22 0 0 0-5.53-5.53zm42.66 0a5.53 5.53 0 1 0 5.53 5.53c.01-2.59-2.94-5.53-5.53-5.53z"/></g></g></symbol><symbol id="icon_ship6" viewBox="0 0 378.92 281.6"><g id="Слой_2"><path d="M374.42 201.16a4.5 4.5 0 0 0 0-9H240a4.66 4.66 0 0 0-.65.05h-.13a4.12 4.12 0 0 0-.59.14h-.12a4.58 4.58 0 0 0-.48.21h-.1a4.09 4.09 0 0 0-.51.31l-1-1.13.91 1.19a5.37 5.37 0 0 0-.46.39 4 4 0 0 0-.42.48l-1.29-.78 1.2.9a4.3 4.3 0 0 0-.32.52l-.08.15c0 .1-.13.29-.2.49v.13c-4 12.13-13.8 21.12-26.74 24.58l-1.89.51v-41.1h46.7a4.49 4.49 0 0 0 4.28-3.12l3.32-10.31a137 137 0 0 0 0-84.54l-3.32-10.31a4.49 4.49 0 0 0-4.28-3.12H205.5V50h14a4.5 4.5 0 0 0 0-9h-14v-4.36l38.06-14.49a4.5 4.5 0 0 0-.2-8.48L202.4.22a4.5 4.5 0 0 0-5.9 4.27V41h-12.8a4.5 4.5 0 0 0 0 9h12.8v17.8h-45.1a4.5 4.5 0 0 0-4.28 5.88L150.44 84a130.83 130.83 0 0 1 3.89 15.11 5.7 5.7 0 0 0 .11.61 128.85 128.85 0 0 1-4 63.28l-3.32 10.31a4.5 4.5 0 0 0 4.28 5.88h46.7v42.2h-66.22V14.74a4.5 4.5 0 0 0-9 0V34L51.81 155.83a4.5 4.5 0 0 0 3.89 6.77h67.18v58.8h-17.72a19.5 19.5 0 0 1-18.86-14.55v-.12l-5.66-32.79a4.49 4.49 0 0 0-4.43-3.73H4.5a4.5 4.5 0 0 0 0 9h6.89l6.38 21.26 23.38 77.93a4.47 4.47 0 0 0 4.31 3.2h256a4.48 4.48 0 0 0 3.8-2.08l49.87-78.36zM205.5 10.71l23 7.54-23 8.75zM157.57 170.2l1.43-4.43a136.27 136.27 0 0 0 5.41-60.91l-.24-1.71H236a4.5 4.5 0 1 0 0-9h-73.5l-.27-1.15c-.91-4-2-8-3.23-11.75l-1.43-4.43h92.95l2.32 7.18a128 128 0 0 1 0 79l-2.32 7.19zm-94-16.61l59.31-101.73V153.6zM299 272.6H48.81l-20.72-69h31.13a4.5 4.5 0 1 0 0-9H25.4l-4.61-15.4h51.6l5.05 29.28c0 .1 0 .22.07.33a28.45 28.45 0 0 0 27.64 21.58h92.25c20.34 0 37.72-10.86 45.36-28.35l.39-.9h101.3z" id="Слой_1-2"/></g></symbol><symbol id="icon_subscribe-type-default" viewBox="0 0 405.6 193.57"><path d="M404.52 60a4.83 4.83 0 0 0-5.08-1.61l-130.18 37-62.44-93.24a4.84 4.84 0 0 0-8 0l-62.48 93.22L6.17 58.35a4.84 4.84 0 0 0-5.61 6.93L67.09 191a4.83 4.83 0 0 0 4.28 2.58h262.86a4.83 4.83 0 0 0 4.28-2.58L405 65.28a4.84 4.84 0 0 0-.48-5.28zM207.64 20.77l51.83 77.38-51.83 14.74zm-9.68 0v92.12l-51.83-14.74zm-183.53 50l175.44 49.89-116.48 61.53zM90.9 183.89l111.9-59.11 111.9 59.11zm241.31-1.7l-116.48-61.53 175.45-49.89z"/></symbol><symbol id="icon_subscribe-type-express" viewBox="0 0 340.65 339.49"><path d="M141.71 94a5.4 5.4 0 0 0-4-5.12 8.53 8.53 0 0 0-2.23-.34c-1.76 0-3 .81-4.18 2.64L42.36 234.75c-1.56 2.49-1 4.06-.33 5.16 1.32 2.13 2.74 3 4.91 3h88.93a5.56 5.56 0 0 0 5.85-5.36zm-11.18 138.23H56.32l74.22-118z"/><path d="M48.47 337.4a4.91 4.91 0 0 0 4.4 2.09h235.24a5.87 5.87 0 0 0 4.51-2.24l46.89-64.88a4.46 4.46 0 0 0 .42-5.39l-.12-.25c-.9-2.08-2.29-2.93-4.7-2.93H169.54v-20.88h145.05c2.18 0 3.34-.73 4.43-2.8 1.52-2.89.94-4.49.18-5.67L168.67 2.62c-1.58-2.4-3.38-3.06-6.44-2.35a5.06 5.06 0 0 0-3.52 5.09V263.8H5.52c-2.14 0-3.62 1-4.79 3.15a4.49 4.49 0 0 0 .38 5.41zM169.54 24.5L305 232.23H169.54zM324.48 275l-39.09 53.8h-230L16.15 275z"/><path d="M127.09 296.6a6.78 6.78 0 0 0-5-2.23H122a7.36 7.36 0 0 0-5.27 2.27A7.36 7.36 0 1 0 127.18 307a7.31 7.31 0 0 0 2.28-5.32 6.82 6.82 0 0 0-2.25-5zm-23.25 0a6.82 6.82 0 0 0-5-2.23h-.08a7.34 7.34 0 0 0-5.25 2.27 7.36 7.36 0 1 0 10.42 10.41 7.31 7.31 0 0 0 2.28-5.33 6.82 6.82 0 0 0-2.25-5zm-28.39-2.2a7.13 7.13 0 0 0-5.18 2.23 7.59 7.59 0 0 0 0 10.44 7.49 7.49 0 0 0 10.41 0 7.61 7.61 0 0 0 0-10.45 7.12 7.12 0 0 0-5.23-2.22z"/></symbol><symbol id="icon_subscribe-type-turbo" viewBox="0 0 523.67 195.23"><path d="M523.43 74.63c0-.07 0-.13.05-.2s.06-.21.08-.32.05-.3.07-.46v-.08a5.48 5.48 0 0 0-.08-1.64c0-.11-.05-.22-.08-.33s0-.12 0-.19-.08-.24-.13-.36l-.05-.14c0-.11-.1-.22-.15-.33l-.08-.16-.16-.27-.12-.2-.14-.2-.18-.24-.12-.14-.23-.26-.12-.11-.27-.25-.17-.13-.25-.19a5.48 5.48 0 0 0-1.48-.71h-.11l-.41-.1-.38-.06h-.15a5.47 5.47 0 0 0-.59 0H389.06L348 2.56a5.5 5.5 0 0 0-5.46-2.5L141.21 30a5.5 5.5 0 0 0-4.35 3.53l-12.6 34h-6.82a5.5 5.5 0 0 0-5.28 4l-6.42 22-55.27-.23a5.55 5.55 0 0 0-4.3 2l-11.5 14.27L16 132.2a5.62 5.62 0 0 0-.4.55L1.25 150.13a5.5 5.5 0 0 0-.25 6.73l26 35.89a5.5 5.5 0 0 0 4.48 2.25c2.29 0 230.57-.09 342.43.21 24.17 0 58.41-16.87 75.53-28.2 21-13.88 51.41-38.51 73.79-91.84a5.47 5.47 0 0 0 .2-.54zM146 40.38l194.63-28.91 35.42 56.07h-29.13l-16.45-30.85a5.5 5.5 0 0 0-5.68-2.85L240.6 46.69a5.5 5.5 0 0 0-4.36 3.61l-6.09 17.25H136zm188.46 27.16h-92.64l3.7-10.48L322.6 45.3zm39.46 116.69c-105.1-.28-313-.22-339.63-.21l-19.37-26.75h153.82c93.64 0 191.35 0 275.8-.23l-1.18.79c-29.01 19.24-58 26.4-69.44 26.4zM459.4 146c-130.7.31-297 .27-430.74.24h-10l24.46-29.69 9.87-12.21 56.77.21a5.5 5.5 0 0 0 5.28-4l6.42-22h388.28c-15.4 33.5-34.07 54.04-50.34 67.45z"/></symbol><symbol id="icon_subscribe" viewBox="0 0 29.08 20"><path class="cls-1" d="M19.08 19.5l9.5-9.5M19.08.5l9.5 9.5m-.75 0H.5"/></symbol><symbol id="icon_tw" viewBox="0 0 24.12 20.68"><path d="M21.66 5.89v-.68a10 10 0 0 0 2.48-2.65 9.45 9.45 0 0 1-2.84.78A5 5 0 0 0 23.45.5a9.44 9.44 0 0 1-3.14 1.2A4.91 4.91 0 0 0 16.7 0a5 5 0 0 0-4.95 5.16 5.29 5.29 0 0 0 .13 1.19A13.92 13.92 0 0 1 1.68.72 5.46 5.46 0 0 0 1 3.36a5.43 5.43 0 0 0 2.21 4.42A4.75 4.75 0 0 1 1 7.1v.07a5.27 5.27 0 0 0 4 5.21 4.82 4.82 0 0 1-1.3.18 4.79 4.79 0 0 1-.93-.11 5 5 0 0 0 4.62 3.69 9.55 9.55 0 0 1-6.14 2.24A9.62 9.62 0 0 1 0 18.29a13.28 13.28 0 0 0 7.59 2.38c9.1 0 14.08-7.92 14.08-14.79zm0 0" fill-rule="evenodd"/></symbol><symbol id="icon_upload" viewBox="0 0 255.09 280.91"><path d="M173.16 72.34a72.57 72.57 0 0 0 0 102.62l141.09 141.1a54.28 54.28 0 0 0 85.95-64.61 9 9 0 0 0-2.56-5.93L256.55 104.41a36.27 36.27 0 1 0-51.3 51.3l115.44 115.45a9.07 9.07 0 1 0 12.82-12.82L218.07 142.89a18.14 18.14 0 1 1 25.65-25.65l134.69 134.69a36.27 36.27 0 0 1-51.3 51.3L186 162.14a54.42 54.42 0 1 1 77-77l128.22 128.3A9.07 9.07 0 1 0 404 200.61L275.78 72.34a72.57 72.57 0 0 0-102.62 0zm0 0" transform="translate(-151.91 -51.09)"/></symbol><symbol id="icon_vk" viewBox="0 0 22 12.55"><path d="M21.88 11.34l-.07-.14a11.41 11.41 0 0 0-2.19-2.53q-.73-.7-.93-.94a.88.88 0 0 1-.16-.93 8.65 8.65 0 0 1 1-1.5l.74-1q2-2.64 1.72-3.37L21.9.79a.67.67 0 0 0-.35-.19 1.79 1.79 0 0 0-.73 0h-3.3a.43.43 0 0 0-.23 0h-.21a.5.5 0 0 0-.13.12.79.79 0 0 0-.11.2 18.73 18.73 0 0 1-1.27 2.68q-.42.71-.78 1.23a6 6 0 0 1-.6.77 4.12 4.12 0 0 1-.44.39c-.13.1-.23.14-.3.13h-.19a.75.75 0 0 1-.26-.33 1.25 1.25 0 0 1-.13-.45V1.46a2.64 2.64 0 0 0 0-.52 1.77 1.77 0 0 0-.12-.37.61.61 0 0 0-.23-.27 1.32 1.32 0 0 0-.38-.16A7.68 7.68 0 0 0 10.58 0a7.52 7.52 0 0 0-2.73.28 1.54 1.54 0 0 0-.44.34q-.2.25-.06.28a1.41 1.41 0 0 1 1 .49l.07.14a2.16 2.16 0 0 1 .16.53 5.29 5.29 0 0 1 .1.84 8.83 8.83 0 0 1 0 1.43q-.06.59-.11.93a1.86 1.86 0 0 1-.15.54 2.18 2.18 0 0 1-.16.2l-.06.1a.85.85 0 0 1-.31.06A.73.73 0 0 1 7.5 6a2.75 2.75 0 0 1-.5-.45 5.89 5.89 0 0 1-.56-.78q-.31-.5-.64-1.19l-.18-.33q-.17-.32-.47-.93t-.5-1.2a.76.76 0 0 0-.27-.36h-.06L4.14.63a1.22 1.22 0 0 0-.27-.08L.73.57a.8.8 0 0 0-.65.22L0 .86A.37.37 0 0 0 0 1a.91.91 0 0 0 .07.31Q.76 3 1.56 4.47T3 6.89q.6.92 1.21 1.73t.82 1l.32.34.29.28a6.73 6.73 0 0 0 .81.66 13.76 13.76 0 0 0 1.18.76 6.41 6.41 0 0 0 1.51.61 5.19 5.19 0 0 0 1.67.19h1.32a.91.91 0 0 0 .61-.25v-.06a.76.76 0 0 0 .09-.21 1.16 1.16 0 0 0 0-.31 3.8 3.8 0 0 1 .07-.89 2.33 2.33 0 0 1 .2-.6 1.44 1.44 0 0 1 .25-.34 1 1 0 0 1 .19-.17h.09a.73.73 0 0 1 .65.18 3.84 3.84 0 0 1 .7.66q.33.4.78.89a5.47 5.47 0 0 0 .8.73l.23.14a2.77 2.77 0 0 0 .6.25 1.28 1.28 0 0 0 .64.06h2.93a1.33 1.33 0 0 0 .68-.14.57.57 0 0 0 .36-.4.89.89 0 0 0 0-.39 1.49 1.49 0 0 0-.08-.3zm0 0"/></symbol><symbol id="icon_wheel" viewBox="0 0 367.2 319.19"><g id="Слой_2"><g id="Слой_1-2"><path d="M250.27 76.16A106.51 106.51 0 1 0 287 132.9a4.4 4.4 0 1 0-8.53 2.19 98 98 0 1 1-94.91-73.5A96.93 96.93 0 0 1 244.78 83a4.4 4.4 0 1 0 5.5-6.87z"/><path d="M266.8 155.19h-60l-.39-1.5a23.64 23.64 0 0 0-6.33-10.93l-1.1-1.08 30-51.94a4.4 4.4 0 0 0-1.61-6 4.41 4.41 0 0 0-6 1.61l-30 51.93-1.49-.41a23.63 23.63 0 0 0-12.63 0l-1.49.41-30-51.93a4.4 4.4 0 1 0-7.62 4.4l30 51.94-1.1 1.08a23.67 23.67 0 0 0-6.33 10.93l-.39 1.5h-60a4.4 4.4 0 0 0 0 8.8h60l.39 1.5a23.66 23.66 0 0 0 6.33 10.93l1.1 1.08-30 51.94a4.4 4.4 0 1 0 7.62 4.4l30-51.93 1.49.42a23.62 23.62 0 0 0 12.63 0l1.49-.42 30 51.93a4.4 4.4 0 0 0 8.06-1.06 4.37 4.37 0 0 0-.44-3.34L199 177.5l1.11-1.08a23.59 23.59 0 0 0 6.33-10.92l.39-1.5h60a4.4 4.4 0 0 0 0-8.8zm-83.2 19.2a14.8 14.8 0 1 1 14.8-14.8 14.82 14.82 0 0 1-14.8 14.81z"/><path d="M362.8 155.19h-53.26l-.09-1.9A126.42 126.42 0 0 0 252 53.8l-1.59-1L277 6.6a4.4 4.4 0 0 0-1.61-6 4.4 4.4 0 0 0-6 1.61l-26.64 46.14-1.69-.87a125.85 125.85 0 0 0-114.91 0l-1.69.87L97.81 2.2a4.4 4.4 0 0 0-7.62 4.4l26.65 46.16-1.59 1a126.41 126.41 0 0 0-57.49 99.49l-.09 1.9H4.4a4.4 4.4 0 0 0 0 8.8h53.27l.09 1.9a126.42 126.42 0 0 0 57.49 99.5l1.59 1-26.65 46.24a4.4 4.4 0 1 0 7.62 4.4l26.64-46.14 1.69.87a125.85 125.85 0 0 0 114.91 0l1.69-.87L269.39 317a4.42 4.42 0 0 0 3.82 2.2 4.4 4.4 0 0 0 3.8-6.6l-26.65-46.16 1.59-1a126.44 126.44 0 0 0 57.49-99.5l.09-1.9h53.27a4.4 4.4 0 0 0 0-8.8zm-179.2 121.6a117.2 117.2 0 1 1 117.2-117.2 117.33 117.33 0 0 1-117.2 117.2z"/></g></g></symbol><symbol id="icon_win-share" viewBox="0 0 90 90"><path d="M18.373 8.481C24.043 6.22 29.017 5.084 33.569 5c2.39 0 4.646.257 6.785.754 3.256.831 7.762 3.271 9.479 4.251l-8.152 27.759c-4.154-2.649-9.167-5.222-15.946-5.291h-.006c-4.521 0-9.433 1.041-15.125 3.178l7.769-27.17zM31.14 75.052c2.016-6.815 6.857-23.274 8.302-28.194a72.599 72.599 0 0 0-3.209-1.864c-4.195-2.145-8.271-3.232-12.12-3.232-.522 0-1.046.016-1.576.062-4.912.404-9.395 1.695-12.283 2.697a73.76 73.76 0 0 0-2.357.901L0 72.658c5.427-1.998 10.222-2.969 14.617-2.969 7.106 0 12.26 2.643 16.523 5.363zm48.076-20.299c-5.153 1.655-10.096 2.494-14.719 2.494-8.433 0-14.337-2.72-18.062-5.331l-7.948 27.48C40.846 80.74 48.777 85 54.854 85c4.904 0 10.394-1.252 16.772-3.832l7.59-26.415zM90 17.543c-5.17 1.998-10.214 3.016-15.032 3.016-8.058 0-14-2.781-17.85-5.455L49.036 42.94c5.428 3.474 11.276 5.237 17.414 5.237 5.005 0 10.188-1.196 15.421-3.559l-.016-.193.328-.079L90 17.543z"/></symbol><symbol id="icon_ya-share" viewBox="0 0 320 320"><path d="M227.184 0h-45.466c-46.063 0-92.541 34.014-92.541 110.004 0 39.361 16.683 70.017 47.263 87.451L80.468 298.762c-2.653 4.791-2.722 10.221-.185 14.525C82.76 317.49 87.288 320 92.395 320h28.311c6.432 0 11.448-3.109 13.852-8.555L187.037 208.8h3.83v98.407c0 6.935 5.852 12.793 12.778 12.793h24.735c7.767 0 13.191-5.424 13.191-13.19V14.002C241.572 5.758 235.656 0 227.184 0zm-36.316 163.204h-6.756c-26.197 0-41.837-21.384-41.837-57.202 0-44.537 19.757-60.405 38.247-60.405h10.346v117.607z"/></symbol><symbol id="icon_yt" viewBox="0 0 21.35 15.5"><path d="M21.27 4.41v-.18A4.52 4.52 0 0 0 16.89.06L14 0H4.39A4.47 4.47 0 0 0 .08 4.24v.17A96.59 96.59 0 0 0 .07 11v.18a4.49 4.49 0 0 0 4.34 4.19l3 .06h6.61l2.89-.06a4.54 4.54 0 0 0 4.37-4.19V11c.1-1.78.1-4.76-.01-6.59zm-1.81 6.54v.18a2.73 2.73 0 0 1-2.59 2.48l-2.87.05H7.45l-3-.06a2.64 2.64 0 0 1-2.56-2.47V11c-.09-1.78-.09-4.68 0-6.46v-.21a2.63 2.63 0 0 1 2.56-2.46H16.9a2.67 2.67 0 0 1 2.59 2.47v.18c.07 1.77.07 4.66-.03 6.43z"/><path d="M14.29 6.74L9.08 4a.91.91 0 0 0-1.33.8v5.46a.91.91 0 0 0 1.33.8l5.21-2.73a.9.9 0 0 0 0-1.6zm-2.37.8L9.57 8.77V6.31z"/></symbol><symbol id="icon_zip" viewBox="0 0 482.46 512"><path d="M479.71 138.56L349.27 3a9.85 9.85 0 0 0-7.1-3h-194.4a39.5 39.5 0 0 0-39.46 39.44v137.79H29.52A29.55 29.55 0 0 0 0 206.74v147.75A29.55 29.55 0 0 0 29.52 384h78.79v88.63A39.46 39.46 0 0 0 147.77 512H443a39.45 39.45 0 0 0 39.46-39.35V145.38a9.85 9.85 0 0 0-2.75-6.82zm-135.09-112L451.7 137.85H344.62zM29.52 364.31a9.83 9.83 0 0 1-9.83-9.82V206.74a9.84 9.84 0 0 1 9.83-9.82H295.4a9.84 9.84 0 0 1 9.83 9.82v147.75a9.84 9.84 0 0 1-9.83 9.82zm433.25 108.34A19.74 19.74 0 0 1 443 492.31H147.77A19.75 19.75 0 0 1 128 472.63V384h167.4a29.55 29.55 0 0 0 29.52-29.51V206.74a29.55 29.55 0 0 0-29.52-29.51H128V39.44a19.78 19.78 0 0 1 19.77-19.75h177.15v128a9.85 9.85 0 0 0 9.85 9.85h128v315.11z"/><path d="M70.73 231.43a1.12 1.12 0 0 1 1.27-1.27h62.75a1.42 1.42 0 0 1 1.41.85l.56 1a1.32 1.32 0 0 1-.14 1.83 117.44 117.44 0 0 0-9.17 13.82L88.35 308.7a184.12 184.12 0 0 1-5.78 8.18c-1.13 1.41-.71 2.26.85 2.12 3.53-.14 6.77-.28 9.73-.28h41.74c1 0 1.41.56 1.13 1.41l-1.7 5.87a1.26 1.26 0 0 1-1.41 1.13H70.44a1.36 1.36 0 0 1-1.41-1l-.56-1a1.71 1.71 0 0 1 .14-1.83 146.11 146.11 0 0 0 9.59-14.81l38.49-60.07c1.55-2.4 3.52-5.92 5.78-8.18 1-1.27.85-2.12-.71-2.12-3.67.28-6.77.42-9.59.42H72a1.12 1.12 0 0 1-1.27-1.27zM167 325.9a1.12 1.12 0 0 1-1.27 1.27H159a1.12 1.12 0 0 1-1.27-1.27v-94.47a1.12 1.12 0 0 1 1.27-1.27h6.77a1.12 1.12 0 0 1 1.27 1.27zm60.23-95.74c20.3 0 32.15 10.86 32.15 29.19 0 19.74-13.54 30.46-40 30.46h-18.23v36.1a1.12 1.12 0 0 1-1.27 1.27h-6.77a1.12 1.12 0 0 1-1.27-1.27v-94.48a1.12 1.12 0 0 1 1.27-1.27zm-26.09 51.19h18.19c20.45 0 30.46-7.76 30.46-22 0-13.11-8.46-20.73-22.56-20.73h-26.08z"/></symbol></svg>