<svg xmlns="http://www.w3.org/2000/svg" viewBox="0 0 86 16.72"><title>logo-small</title><path d="M52 13c0 .9.62 1.45 1.72 1.45 1.81 0 2.8-.9 2.8-2.6v-.16H53.7c-1.13.03-1.7.55-1.7 1.31zm-38.25 0c0 .9.62 1.45 1.72 1.45 1.81 0 2.8-.9 2.8-2.6v-.16H15.4c-1.12.03-1.65.55-1.65 1.31z" fill="none"/><path d="M7.7 12.73a5 5 0 0 0-2.14-1.86c-.11 0-.09-.14 0-.18a4.55 4.55 0 0 0 2-1.79l2-3.26c.09-.16 0-.3-.18-.3H7.14a.37.37 0 0 0-.32.16L5.31 7.81c-.62.9-1.31 1.88-2.42 1.88h-.34V.25A.23.23 0 0 0 2.3 0h-2a.23.23 0 0 0-.3.25v16a.23.23 0 0 0 .25.25h2a.23.23 0 0 0 .25-.25V12h.34c1.26 0 1.91.8 2.55 1.77L7 16.31a.37.37 0 0 0 .32.16h2.3c.21 0 .3-.14.18-.3zm8.09-7.63a8.57 8.57 0 0 0-2.5.34l-.87.25a.24.24 0 0 0-.18.32l.51 1.7a.24.24 0 0 0 .32.18l.83-.25a6.27 6.27 0 0 1 1.79-.23c1.7 0 2.6.76 2.6 2.16v.14H15.4c-2.71 0-4.18 1.38-4.18 3.54s1.42 3.47 4 3.47a4 4 0 0 0 3.15-1.22c.3-.28.44-.28.57 0l.18.71a.28.28 0 0 0 .3.21h1.15a.23.23 0 0 0 .25-.25V9.49C20.8 6.71 18.9 5.1 15.79 5.1zm2.48 6.78c0 1.7-1 2.6-2.8 2.6-1.1 0-1.72-.55-1.72-1.45s.53-1.31 1.65-1.31h2.87zm9.98-6.55h-2.58v-3.4c0-.18-.11-.25-.3-.21l-2 .69a.27.27 0 0 0-.21.28v10.5a3.19 3.19 0 0 0 3.45 3.54 3.42 3.42 0 0 0 1.56-.39.25.25 0 0 0 .11-.34l-.74-1.56c-.07-.16-.18-.18-.34-.12a1.71 1.71 0 0 1-.6.09c-.55 0-.9-.44-.9-1.22V7.6h2.57a.23.23 0 0 0 .25-.25V5.58a.23.23 0 0 0-.27-.25zm11.24 3.42c0-2.27-1.68-3.65-4.43-3.65-3.35 0-5.33 2.23-5.33 5.81s2 5.81 5.42 5.81a9.65 9.65 0 0 0 2.34-.3l1.06-.28a.24.24 0 0 0 .18-.32l-.46-1.72a.24.24 0 0 0-.32-.18l-1 .25a6.22 6.22 0 0 1-1.81.23 2.43 2.43 0 0 1-2.62-2l3.61-.55c2.28-.32 3.36-1.33 3.36-3.1zm-7.21 1.7C32.46 8.34 33.5 7.4 35 7.4c1.24 0 2 .48 2 1.4 0 .6-.44 1-1.24 1.1zM47.94 5.1a4.27 4.27 0 0 0-3.63 1.81c-.21.23-.32.18-.46-.07l-.37-1.31a.28.28 0 0 0-.3-.21H42a.23.23 0 0 0-.25.25v10.65a.23.23 0 0 0 .25.25h2a.23.23 0 0 0 .25-.25v-2.74c0-4.23 1.1-6 3.61-6.09a.23.23 0 0 0 .25-.25V5.35a.23.23 0 0 0-.17-.25zm6.15 0a8.57 8.57 0 0 0-2.5.34l-.87.25a.24.24 0 0 0-.18.32L51 7.72a.24.24 0 0 0 .32.18l.83-.25A6.27 6.27 0 0 1 54 7.42c1.7 0 2.6.76 2.6 2.16v.14h-2.9c-2.71 0-4.18 1.38-4.18 3.54s1.42 3.47 4 3.47a4 4 0 0 0 3.15-1.22c.3-.28.44-.28.57 0l.18.71a.28.28 0 0 0 .3.21h1.15a.23.23 0 0 0 .25-.25V9.49c-.02-2.78-1.93-4.39-5.03-4.39zm2.48 6.78c0 1.7-1 2.6-2.8 2.6-1.1 0-1.72-.55-1.72-1.45s.53-1.31 1.65-1.31h2.87z" fill="#130b59"/><path d="M63.39 13.41a1.48 1.48 0 0 0-1.58 1.65 1.48 1.48 0 0 0 1.58 1.65A1.5 1.5 0 0 0 65 15.07a1.5 1.5 0 0 0-1.61-1.66z" fill="#fb2500"/><path d="M73.7 5.1a4.27 4.27 0 0 0-3.63 1.81c-.21.23-.32.18-.46-.07l-.37-1.31a.28.28 0 0 0-.3-.21h-1.15a.23.23 0 0 0-.25.25v10.65a.23.23 0 0 0 .25.25h2a.23.23 0 0 0 .25-.25v-2.74c0-4.23 1.1-6 3.61-6.09a.23.23 0 0 0 .25-.25V5.35a.23.23 0 0 0-.2-.25zm12.04.23h-2a.23.23 0 0 0-.25.25v5.35c0 2.23-1 3.47-2.69 3.47-1.24 0-2-.87-2-2.32v-6.5a.23.23 0 0 0-.25-.25h-2a.23.23 0 0 0-.25.25v6.78c0 2.71 1.58 4.34 4.2 4.34a4.12 4.12 0 0 0 3.17-1.4c.25-.23.39-.25.53 0l.21.92a.24.24 0 0 0 .28.23h1.15a.23.23 0 0 0 .25-.25V5.58a.23.23 0 0 0-.35-.25z" fill="#130b59"/></svg>