<svg xmlns="http://www.w3.org/2000/svg" viewBox="0 0 86 16.72"><title>logo-small</title><path d="M52,13c0,.9.62,1.45,1.72,1.45,1.81,0,2.8-.9,2.8-2.6v-.16H53.7C52.57,11.72,52,12.24,52,13Z" fill="none"/><path d="M13.75,13c0,.9.62,1.45,1.72,1.45,1.81,0,2.8-.9,2.8-2.6v-.16H15.4C14.28,11.72,13.75,12.24,13.75,13Z" fill="none"/><path d="M7.7,12.73a5,5,0,0,0-2.14-1.86c-.11,0-.09-.14,0-.18a4.55,4.55,0,0,0,2-1.79l2-3.26c.09-.16,0-.3-.18-.3H7.14a.37.37,0,0,0-.32.16L5.31,7.81C4.69,8.71,4,9.69,2.89,9.69H2.55V.25A.23.23,0,0,0,2.3,0h-2A.23.23,0,0,0,0,.25v16a.23.23,0,0,0,.25.25h2a.23.23,0,0,0,.25-.25V12h.34c1.26,0,1.91.8,2.55,1.77L7,16.31a.37.37,0,0,0,.32.16H9.62c.21,0,.3-.14.18-.3Z" fill="#130b59"/><path d="M15.79,5.1a8.57,8.57,0,0,0-2.5.34l-.87.25a.24.24,0,0,0-.18.32l.51,1.7a.24.24,0,0,0,.32.18l.83-.25a6.27,6.27,0,0,1,1.79-.23c1.7,0,2.6.76,2.6,2.16v.14H15.4c-2.71,0-4.18,1.38-4.18,3.54s1.42,3.47,4,3.47a4,4,0,0,0,3.15-1.22c.3-.28.44-.28.57,0l.18.71a.28.28,0,0,0,.3.21h1.15a.23.23,0,0,0,.25-.25V9.49C20.8,6.71,18.9,5.1,15.79,5.1Zm2.48,6.78c0,1.7-1,2.6-2.8,2.6-1.1,0-1.72-.55-1.72-1.45s.53-1.31,1.65-1.31h2.87Z" fill="#130b59"/><path d="M28.25,5.33H25.67V1.93c0-.18-.11-.25-.3-.21l-2,.69a.27.27,0,0,0-.21.28v10.5a3.19,3.19,0,0,0,3.45,3.54,3.42,3.42,0,0,0,1.56-.39.25.25,0,0,0,.11-.34l-.74-1.56c-.07-.16-.18-.18-.34-.12a1.71,1.71,0,0,1-.6.09c-.55,0-.9-.44-.9-1.22V7.6h2.57a.23.23,0,0,0,.25-.25V5.58A.23.23,0,0,0,28.25,5.33Z" fill="#130b59"/><path d="M39.49,8.75c0-2.27-1.68-3.65-4.43-3.65-3.35,0-5.33,2.23-5.33,5.81s2,5.81,5.42,5.81a9.65,9.65,0,0,0,2.34-.3l1.06-.28a.24.24,0,0,0,.18-.32l-.46-1.72a.24.24,0,0,0-.32-.18l-1,.25a6.22,6.22,0,0,1-1.81.23,2.43,2.43,0,0,1-2.62-2l3.61-.55C38.41,11.53,39.49,10.52,39.49,8.75Zm-7.21,1.7C32.46,8.34,33.5,7.4,35,7.4c1.24,0,2,.48,2,1.4,0,.6-.44,1-1.24,1.1Z" fill="#130b59"/><path d="M47.94,5.1a4.27,4.27,0,0,0-3.63,1.81c-.21.23-.32.18-.46-.07l-.37-1.31a.28.28,0,0,0-.3-.21H42a.23.23,0,0,0-.25.25V16.22a.23.23,0,0,0,.25.25h2a.23.23,0,0,0,.25-.25V13.48c0-4.23,1.1-6,3.61-6.09a.23.23,0,0,0,.25-.25V5.35A.23.23,0,0,0,47.94,5.1Z" fill="#130b59"/><path d="M54.09,5.1a8.57,8.57,0,0,0-2.5.34l-.87.25a.24.24,0,0,0-.18.32L51,7.72a.24.24,0,0,0,.32.18l.83-.25A6.27,6.27,0,0,1,54,7.42c1.7,0,2.6.76,2.6,2.16v.14H53.7c-2.71,0-4.18,1.38-4.18,3.54s1.42,3.47,4,3.47a4,4,0,0,0,3.15-1.22c.3-.28.44-.28.57,0l.18.71a.28.28,0,0,0,.3.21h1.15a.23.23,0,0,0,.25-.25V9.49C59.1,6.71,57.19,5.1,54.09,5.1Zm2.48,6.78c0,1.7-1,2.6-2.8,2.6-1.1,0-1.72-.55-1.72-1.45s.53-1.31,1.65-1.31h2.87Z" fill="#130b59"/><path d="M63.39,13.41a1.48,1.48,0,0,0-1.58,1.65,1.48,1.48,0,0,0,1.58,1.65A1.5,1.5,0,0,0,65,15.07,1.5,1.5,0,0,0,63.39,13.41Z" fill="#fb2500"/><path d="M73.7,5.1a4.27,4.27,0,0,0-3.63,1.81c-.21.23-.32.18-.46-.07l-.37-1.31a.28.28,0,0,0-.3-.21H67.79a.23.23,0,0,0-.25.25V16.22a.23.23,0,0,0,.25.25h2a.23.23,0,0,0,.25-.25V13.48c0-4.23,1.1-6,3.61-6.09a.23.23,0,0,0,.25-.25V5.35A.23.23,0,0,0,73.7,5.1Z" fill="#130b59"/><path d="M85.74,5.33h-2a.23.23,0,0,0-.25.25v5.35c0,2.23-1,3.47-2.69,3.47-1.24,0-2-.87-2-2.32V5.58a.23.23,0,0,0-.25-.25h-2a.23.23,0,0,0-.25.25v6.78c0,2.71,1.58,4.34,4.2,4.34a4.12,4.12,0,0,0,3.17-1.4c.25-.23.39-.25.53,0l.21.92a.24.24,0,0,0,.28.23h1.15a.23.23,0,0,0,.25-.25V5.58A.23.23,0,0,0,85.74,5.33Z" fill="#130b59"/></svg>